{"glyphs":{"0":{"ha":640,"x_min":67,"x_max":642,"o":"m 257 -12 q 111 80 156 -12 q 67 325 67 172 q 85 497 67 404 q 139 681 104 590 q 222 848 174 772 q 328 969 269 924 q 451 1014 386 1014 q 597 922 553 1014 q 642 676 642 829 q 623 506 642 599 q 569 322 604 413 q 487 155 535 231 q 381 33 439 79 q 257 -12 322 -12 m 264 24 q 349 64 310 24 q 422 172 389 104 q 481 322 456 240 q 525 489 507 404 q 552 648 543 574 q 561 774 561 722 q 531 928 561 879 q 444 978 501 978 q 359 938 399 978 q 286 830 319 897 q 227 680 253 763 q 183 513 201 597 q 156 354 165 429 q 147 228 147 279 q 158 126 147 172 q 193 52 168 81 q 264 24 218 24 z "},"1":{"ha":344,"x_min":-69,"x_max":369,"o":"m -49 0 q -69 14 -69 0 q -49 32 -69 31 l 7 38 q 51 51 38 40 q 69 92 64 63 l 260 917 q 254 948 265 940 q 221 953 243 956 l 169 947 q 153 951 158 946 q 149 963 149 957 q 176 985 149 981 q 288 1009 251 997 q 342 1021 325 1021 q 364 990 369 1021 l 156 92 q 158 51 150 63 q 193 38 165 40 l 236 32 q 253 17 253 31 q 228 0 253 0 l -49 0 z "},"2":{"ha":561,"x_min":-50,"x_max":610,"o":"m -26 0 q -50 14 -50 0 q -28 51 -50 28 l 200 313 q 298 426 244 364 q 399 556 351 488 q 478 695 447 625 q 510 833 510 765 q 477 926 510 893 q 381 960 444 960 q 265 919 321 960 q 172 779 208 878 q 150 760 165 760 q 136 768 140 760 q 136 789 132 776 q 208 922 165 872 q 301 992 251 971 q 401 1014 351 1014 q 553 963 497 1014 q 610 825 610 911 q 571 681 610 751 q 472 542 532 610 q 346 410 411 474 q 229 288 281 346 l 76 115 q 69 93 65 103 q 90 83 72 83 l 246 83 q 334 96 300 83 q 394 140 368 108 q 446 231 419 171 l 474 293 q 494 308 481 308 q 508 283 515 308 l 433 26 q 418 6 429 11 q 392 0 407 0 l -26 0 z "},"3":{"ha":518,"x_min":-31,"x_max":533,"o":"m 121 -12 q 15 14 60 -12 q -31 92 -31 40 q -16 135 -31 119 q 18 150 -1 150 q 51 138 42 150 q 62 106 60 125 q 67 68 64 88 q 84 36 71 49 q 129 24 97 24 q 235 58 189 24 q 312 149 281 93 q 359 272 343 206 q 375 399 375 338 q 348 528 375 483 q 256 572 321 572 q 208 567 229 572 q 169 553 188 561 q 145 549 154 546 q 136 561 136 551 q 156 585 136 571 l 274 665 q 399 776 360 724 q 438 888 438 829 q 417 948 438 926 q 356 969 396 969 q 266 935 307 969 q 207 829 225 900 q 186 811 203 811 q 172 839 165 811 q 249 969 192 925 q 378 1014 307 1014 q 492 978 451 1014 q 533 888 533 943 q 477 760 533 819 q 301 640 421 700 l 263 621 q 257 613 256 618 q 267 610 258 608 q 293 614 282 614 q 424 551 374 614 q 474 378 474 488 q 444 244 474 313 q 366 118 415 176 q 253 24 317 60 q 121 -12 190 -12 z "},"4":{"ha":547,"x_min":4,"x_max":575,"o":"m 160 0 q 139 14 139 0 q 160 32 139 29 l 225 40 q 267 55 256 44 q 283 92 278 65 l 325 271 q 308 292 329 292 l 26 292 q 4 308 4 292 q 10 326 4 317 q 26 350 17 336 l 507 986 q 532 1000 517 1000 l 560 1000 q 573 994 571 1000 q 567 976 575 988 l 99 389 q 104 369 85 369 l 329 369 q 351 386 347 369 l 415 661 q 435 683 419 675 l 489 713 q 506 715 500 719 q 510 700 513 711 l 439 389 q 453 369 435 369 l 514 369 q 528 353 532 369 l 517 308 q 496 292 513 292 l 435 292 q 411 272 415 292 l 369 92 q 370 52 364 63 q 404 38 376 42 l 429 33 q 446 27 442 32 q 450 17 450 22 q 425 0 450 0 l 160 0 z "},"5":{"ha":538,"x_min":-44,"x_max":650,"o":"m 143 -12 q 63 -1 107 -12 q -13 34 18 10 q -44 96 -44 58 q -31 134 -44 118 q 6 150 -17 150 q 38 138 28 150 q 53 106 47 125 q 66 68 58 88 q 93 36 74 49 q 150 24 113 24 q 253 51 208 24 q 328 126 297 79 q 376 229 360 172 q 392 344 392 286 q 338 515 392 451 q 171 607 285 579 q 160 631 151 613 l 311 985 q 336 1000 318 1000 l 551 1000 q 587 1009 575 1000 q 608 1026 599 1018 q 626 1035 617 1035 q 635 1006 650 1035 l 596 931 q 571 917 589 917 l 347 917 q 322 901 329 917 l 236 697 q 247 675 229 681 q 429 555 372 642 q 486 357 486 468 q 462 224 486 289 q 392 105 438 158 q 284 19 347 51 q 143 -12 221 -12 z "},"6":{"ha":571,"x_min":44,"x_max":650,"o":"m 232 -12 q 128 24 169 -12 q 65 124 86 61 q 44 265 44 188 q 75 456 44 358 q 161 646 106 554 q 290 815 217 738 q 448 944 363 892 q 625 1014 533 996 q 650 999 650 1019 q 644 985 650 989 q 628 979 639 982 q 406 854 500 943 q 244 628 311 765 q 244 615 240 619 q 257 615 249 610 q 298 629 275 625 q 340 633 321 633 q 478 563 428 633 q 528 375 528 492 q 507 254 528 321 q 447 127 486 188 q 354 27 408 67 q 232 -12 300 -12 m 229 24 q 305 53 271 24 q 364 131 339 83 q 406 235 389 179 q 431 342 422 290 q 439 433 439 394 q 413 556 439 513 q 335 599 388 599 q 253 569 289 599 q 192 492 218 540 q 150 389 167 444 q 126 281 133 333 q 118 188 118 228 q 144 67 118 111 q 229 24 171 24 z "},"7":{"ha":507,"x_min":40,"x_max":646,"o":"m 57 0 q 44 6 47 0 q 46 21 40 11 l 558 894 q 547 917 572 917 l 239 917 q 203 908 217 917 q 182 891 190 900 q 163 882 174 882 q 151 891 151 882 q 156 911 150 900 l 193 983 q 218 1000 201 1000 l 628 1000 q 646 988 646 1000 q 642 971 646 982 q 625 938 638 960 l 115 15 q 92 0 108 0 l 57 0 z "},"8":{"ha":607,"x_min":15,"x_max":643,"o":"m 258 -12 q 135 17 190 -12 q 47 100 79 47 q 15 221 15 153 q 48 351 15 293 q 138 451 81 408 q 264 518 194 493 q 276 527 274 521 q 271 539 278 533 q 196 647 219 589 q 172 768 172 704 q 205 890 172 833 q 297 980 238 946 q 432 1014 356 1014 q 542 987 494 1014 q 616 914 589 960 q 643 813 643 868 q 613 699 643 750 q 534 609 583 647 q 424 549 485 571 q 415 539 415 546 q 419 526 414 532 q 516 408 486 465 q 546 289 546 350 q 508 138 546 206 q 406 28 471 69 q 258 -12 340 -12 m 403 571 q 499 649 464 601 q 550 747 535 697 q 565 836 565 797 q 532 937 565 897 q 429 976 499 976 q 331 948 368 976 q 276 878 293 919 q 258 800 258 838 q 283 682 258 733 q 367 574 307 631 q 383 565 375 565 q 403 571 392 565 m 263 24 q 376 58 333 24 q 437 142 418 92 q 456 242 456 193 q 426 373 456 318 q 322 492 396 428 q 286 497 304 507 q 174 413 215 464 q 113 308 132 363 q 94 203 94 253 q 118 98 94 138 q 181 41 142 58 q 263 24 219 24 z "},"9":{"ha":575,"x_min":-7,"x_max":599,"o":"m 18 -11 q -7 4 -7 -15 q -3 15 -7 11 q 15 24 1 19 q 399 403 247 89 q 399 416 403 411 q 386 415 394 421 q 303 397 353 397 q 166 467 217 397 q 115 656 115 538 q 140 789 115 725 q 208 903 165 853 q 303 984 250 954 q 415 1014 357 1014 q 550 942 501 1014 q 599 738 599 869 q 567 542 599 640 q 478 351 535 443 q 349 184 422 260 q 190 57 275 108 q 18 -11 106 6 m 308 432 q 416 483 367 432 q 495 619 465 535 q 525 801 525 704 q 495 932 525 886 q 415 978 465 978 q 335 947 374 978 q 267 865 297 917 q 221 747 238 813 q 204 611 204 682 q 232 479 204 526 q 308 432 260 432 z "},"A":{"ha":635,"x_min":-103,"x_max":581,"o":"m -86 0 q -103 14 -103 0 q -81 32 -103 26 l -58 36 q -10 63 -31 42 q 28 124 10 85 l 443 992 q 457 1010 450 1006 q 469 1014 464 1014 q 481 1010 476 1014 q 486 992 486 1006 l 501 111 q 511 58 503 72 q 546 36 519 43 l 564 32 q 581 15 581 28 q 557 0 581 0 l 328 0 q 310 14 310 0 q 338 32 310 29 l 365 35 q 398 50 389 38 q 407 93 407 63 l 404 308 q 367 344 404 344 l 218 344 q 164 308 182 344 l 74 122 q 99 35 36 43 l 118 32 q 139 15 139 29 q 115 0 139 0 l -86 0 m 224 386 l 379 386 q 403 410 403 386 l 400 789 l 393 789 l 211 410 q 210 393 206 400 q 224 386 214 386 z "},"Á":{"ha":635,"x_min":-103,"x_max":713,"o":"m -86 0 q -103 14 -103 0 q -81 32 -103 26 l -58 36 q -10 63 -31 42 q 28 124 10 85 l 443 992 q 457 1010 450 1006 q 469 1014 464 1014 q 481 1010 476 1014 q 486 992 486 1006 l 501 111 q 511 58 503 72 q 546 36 519 43 l 564 32 q 581 15 581 28 q 557 0 581 0 l 328 0 q 310 14 310 0 q 338 32 310 29 l 365 35 q 398 50 389 38 q 407 93 407 63 l 404 308 q 367 344 404 344 l 218 344 q 164 308 182 344 l 74 122 q 99 35 36 43 l 118 32 q 139 15 139 29 q 115 0 139 0 l -86 0 m 224 386 l 379 386 q 403 410 403 386 l 400 789 l 393 789 l 211 410 q 210 393 206 400 q 224 386 214 386 m 388 1104 q 356 1113 363 1094 q 374 1143 350 1126 l 592 1292 q 658 1319 631 1319 q 699 1306 686 1319 q 713 1272 713 1292 q 698 1236 713 1251 q 642 1204 683 1221 l 388 1104 z "},"Ă":{"ha":635,"x_min":-103,"x_max":735,"o":"m -86 0 q -103 14 -103 0 q -81 32 -103 26 l -58 36 q -10 63 -31 42 q 28 124 10 85 l 443 992 q 457 1010 450 1006 q 469 1014 464 1014 q 481 1010 476 1014 q 486 992 486 1006 l 501 111 q 511 58 503 72 q 546 36 519 43 l 564 32 q 581 15 581 28 q 557 0 581 0 l 328 0 q 310 14 310 0 q 338 32 310 29 l 365 35 q 398 50 389 38 q 407 93 407 63 l 404 308 q 367 344 404 344 l 218 344 q 164 308 182 344 l 74 122 q 99 35 36 43 l 118 32 q 139 15 139 29 q 115 0 139 0 l -86 0 m 224 386 l 379 386 q 403 410 403 386 l 400 789 l 393 789 l 211 410 q 210 393 206 400 q 224 386 214 386 m 497 1096 q 378 1145 426 1096 q 333 1281 329 1194 q 354 1306 336 1306 q 369 1289 369 1306 q 409 1202 371 1229 q 508 1175 447 1175 q 618 1202 569 1175 q 697 1289 667 1229 q 718 1306 706 1306 q 731 1299 726 1306 q 731 1281 735 1292 q 638 1145 700 1194 q 497 1096 576 1096 z "},"Ǎ":{"ha":635,"x_min":-103,"x_max":760,"o":"m -86 0 q -103 14 -103 0 q -81 32 -103 26 l -58 36 q -10 63 -31 42 q 28 124 10 85 l 443 992 q 457 1010 450 1006 q 469 1014 464 1014 q 481 1010 476 1014 q 486 992 486 1006 l 501 111 q 511 58 503 72 q 546 36 519 43 l 564 32 q 581 15 581 28 q 557 0 581 0 l 328 0 q 310 14 310 0 q 338 32 310 29 l 365 35 q 398 50 389 38 q 407 93 407 63 l 404 308 q 367 344 404 344 l 218 344 q 164 308 182 344 l 74 122 q 99 35 36 43 l 118 32 q 139 15 139 29 q 115 0 139 0 l -86 0 m 224 386 l 379 386 q 403 410 403 386 l 400 789 l 393 789 l 211 410 q 210 393 206 400 q 224 386 214 386 m 476 1099 q 446 1114 457 1099 l 324 1283 q 322 1306 315 1296 q 353 1304 332 1318 l 501 1189 l 715 1313 q 749 1313 738 1326 q 742 1283 760 1299 l 542 1114 q 503 1099 522 1099 l 476 1099 z "},"Â":{"ha":635,"x_min":-103,"x_max":714,"o":"m -86 0 q -103 14 -103 0 q -81 32 -103 26 l -58 36 q -10 63 -31 42 q 28 124 10 85 l 443 992 q 457 1010 450 1006 q 469 1014 464 1014 q 481 1010 476 1014 q 486 992 486 1006 l 501 111 q 511 58 503 72 q 546 36 519 43 l 564 32 q 581 15 581 28 q 557 0 581 0 l 328 0 q 310 14 310 0 q 338 32 310 29 l 365 35 q 398 50 389 38 q 407 93 407 63 l 404 308 q 367 344 404 344 l 218 344 q 164 308 182 344 l 74 122 q 99 35 36 43 l 118 32 q 139 15 139 29 q 115 0 139 0 l -86 0 m 224 386 l 379 386 q 403 410 403 386 l 400 789 l 393 789 l 211 410 q 210 393 206 400 q 224 386 214 386 m 314 1106 q 281 1106 292 1092 q 288 1135 269 1119 l 488 1304 q 526 1319 507 1319 l 553 1319 q 583 1304 572 1319 l 706 1135 q 707 1113 714 1122 q 678 1114 697 1100 l 529 1229 l 314 1106 z "},"Ä":{"ha":635,"x_min":-103,"x_max":714,"o":"m -86 0 q -103 14 -103 0 q -81 32 -103 26 l -58 36 q -10 63 -31 42 q 28 124 10 85 l 443 992 q 457 1010 450 1006 q 469 1014 464 1014 q 481 1010 476 1014 q 486 992 486 1006 l 501 111 q 511 58 503 72 q 546 36 519 43 l 564 32 q 581 15 581 28 q 557 0 581 0 l 328 0 q 310 14 310 0 q 338 32 310 29 l 365 35 q 398 50 389 38 q 407 93 407 63 l 404 308 q 367 344 404 344 l 218 344 q 164 308 182 344 l 74 122 q 99 35 36 43 l 118 32 q 139 15 139 29 q 115 0 139 0 l -86 0 m 224 386 l 379 386 q 403 410 403 386 l 400 789 l 393 789 l 211 410 q 210 393 206 400 q 224 386 214 386 m 375 1132 q 331 1151 347 1132 q 314 1196 314 1169 q 336 1251 314 1231 q 388 1272 358 1272 q 432 1254 415 1272 q 449 1208 449 1236 q 426 1153 449 1174 q 375 1132 404 1132 m 640 1132 q 596 1151 613 1132 q 579 1196 579 1169 q 601 1251 579 1231 q 653 1272 624 1272 q 697 1254 681 1272 q 714 1208 714 1236 q 692 1153 714 1174 q 640 1132 669 1132 z "},"À":{"ha":635,"x_min":-103,"x_max":631,"o":"m -86 0 q -103 14 -103 0 q -81 32 -103 26 l -58 36 q -10 63 -31 42 q 28 124 10 85 l 443 992 q 457 1010 450 1006 q 469 1014 464 1014 q 481 1010 476 1014 q 486 992 486 1006 l 501 111 q 511 58 503 72 q 546 36 519 43 l 564 32 q 581 15 581 28 q 557 0 581 0 l 328 0 q 310 14 310 0 q 338 32 310 29 l 365 35 q 398 50 389 38 q 407 93 407 63 l 404 308 q 367 344 404 344 l 218 344 q 164 308 182 344 l 74 122 q 99 35 36 43 l 118 32 q 139 15 139 29 q 115 0 139 0 l -86 0 m 224 386 l 379 386 q 403 410 403 386 l 400 789 l 393 789 l 211 410 q 210 393 206 400 q 224 386 214 386 m 592 1103 l 396 1210 q 340 1274 340 1239 q 356 1306 340 1293 q 393 1319 371 1319 q 426 1313 413 1319 q 457 1290 439 1307 l 619 1136 q 631 1115 631 1125 q 619 1098 631 1103 q 592 1103 608 1093 z "},"Ā":{"ha":635,"x_min":-103,"x_max":721,"o":"m -86 0 q -103 14 -103 0 q -81 32 -103 26 l -58 36 q -10 63 -31 42 q 28 124 10 85 l 443 992 q 457 1010 450 1006 q 469 1014 464 1014 q 481 1010 476 1014 q 486 992 486 1006 l 501 111 q 511 58 503 72 q 546 36 519 43 l 564 32 q 581 15 581 28 q 557 0 581 0 l 328 0 q 310 14 310 0 q 338 32 310 29 l 365 35 q 398 50 389 38 q 407 93 407 63 l 404 308 q 367 344 404 344 l 218 344 q 164 308 182 344 l 74 122 q 99 35 36 43 l 118 32 q 139 15 139 29 q 115 0 139 0 l -86 0 m 224 386 l 379 386 q 403 410 403 386 l 400 789 l 393 789 l 211 410 q 210 393 206 400 q 224 386 214 386 m 324 1175 q 310 1192 307 1175 l 314 1213 q 335 1229 317 1229 l 706 1229 q 718 1213 721 1229 l 714 1192 q 693 1175 711 1175 l 324 1175 z "},"Ą":{"ha":635,"x_min":-103,"x_max":581,"o":"m -86 0 q -103 14 -103 0 q -81 32 -103 26 l -58 36 q -10 63 -31 42 q 28 124 10 85 l 443 992 q 457 1010 450 1006 q 469 1014 464 1014 q 481 1010 476 1014 q 486 992 486 1006 l 501 111 q 511 58 503 72 q 546 36 519 43 l 564 32 q 581 15 581 28 q 557 0 581 0 l 328 0 q 310 14 310 0 q 338 32 310 29 l 365 35 q 398 50 389 38 q 407 93 407 63 l 404 308 q 367 344 404 344 l 218 344 q 164 308 182 344 l 74 122 q 99 35 36 43 l 118 32 q 139 15 139 29 q 115 0 139 0 l -86 0 m 224 386 l 379 386 q 403 410 403 386 l 400 789 l 393 789 l 211 410 q 210 393 206 400 q 224 386 214 386 m 344 -300 q 283 -281 311 -300 q 256 -219 256 -262 q 277 -149 256 -185 q 333 -82 299 -114 q 406 -25 367 -50 q 481 14 446 0 l 492 0 q 411 -55 450 -21 q 347 -129 372 -89 q 322 -210 322 -169 q 336 -247 322 -236 q 368 -258 350 -258 q 429 -229 399 -258 q 444 -219 436 -222 q 458 -225 453 -217 q 458 -239 461 -232 q 447 -253 454 -246 q 401 -287 425 -275 q 344 -300 376 -300 z "},"Å":{"ha":635,"x_min":-103,"x_max":668,"o":"m -86 0 q -103 14 -103 0 q -81 32 -103 26 l -58 36 q -10 63 -31 42 q 28 124 10 85 l 443 992 q 457 1010 450 1006 q 469 1014 464 1014 q 481 1010 476 1014 q 486 992 486 1006 l 501 111 q 511 58 503 72 q 546 36 519 43 l 564 32 q 581 15 581 28 q 557 0 581 0 l 328 0 q 310 14 310 0 q 338 32 310 29 l 365 35 q 398 50 389 38 q 407 93 407 63 l 404 308 q 367 344 404 344 l 218 344 q 164 308 182 344 l 74 122 q 99 35 36 43 l 118 32 q 139 15 139 29 q 115 0 139 0 l -86 0 m 224 386 l 379 386 q 403 410 403 386 l 400 789 l 393 789 l 211 410 q 210 393 206 400 q 224 386 214 386 m 507 1071 q 404 1111 442 1071 q 367 1207 367 1151 q 390 1290 367 1253 q 449 1348 413 1326 q 529 1369 486 1369 q 631 1329 594 1369 q 668 1233 668 1289 q 645 1151 668 1189 q 586 1092 622 1114 q 507 1071 550 1071 m 510 1108 q 591 1145 557 1108 q 625 1233 625 1182 q 599 1303 625 1275 q 526 1332 572 1332 q 444 1295 478 1332 q 410 1207 410 1258 q 436 1137 410 1165 q 510 1108 463 1108 z "},"Ã":{"ha":635,"x_min":-103,"x_max":758,"o":"m -86 0 q -103 14 -103 0 q -81 32 -103 26 l -58 36 q -10 63 -31 42 q 28 124 10 85 l 443 992 q 457 1010 450 1006 q 469 1014 464 1014 q 481 1010 476 1014 q 486 992 486 1006 l 501 111 q 511 58 503 72 q 546 36 519 43 l 564 32 q 581 15 581 28 q 557 0 581 0 l 328 0 q 310 14 310 0 q 338 32 310 29 l 365 35 q 398 50 389 38 q 407 93 407 63 l 404 308 q 367 344 404 344 l 218 344 q 164 308 182 344 l 74 122 q 99 35 36 43 l 118 32 q 139 15 139 29 q 115 0 139 0 l -86 0 m 224 386 l 379 386 q 403 410 403 386 l 400 789 l 393 789 l 211 410 q 210 393 206 400 q 224 386 214 386 m 596 1121 q 543 1135 565 1121 q 502 1166 521 1149 q 463 1197 483 1183 q 413 1211 442 1211 q 351 1194 375 1211 q 307 1140 326 1176 q 285 1124 299 1124 q 274 1129 278 1124 q 274 1144 269 1135 q 340 1252 303 1215 q 432 1289 376 1289 q 487 1275 464 1289 q 528 1244 510 1261 q 567 1213 547 1226 q 615 1199 588 1199 q 676 1216 653 1199 q 719 1269 700 1233 q 742 1286 728 1286 q 754 1281 750 1286 q 754 1265 758 1275 q 688 1158 724 1194 q 596 1121 651 1121 z "},"Æ":{"ha":1088,"x_min":-103,"x_max":1154,"o":"m -85 0 q -103 14 -103 0 q -96 26 -103 22 q -79 32 -89 31 l -57 36 q 1 65 -29 42 q 57 124 31 88 l 629 908 q 643 947 650 938 q 608 961 636 956 l 578 968 q 564 983 564 972 q 588 1000 564 1000 l 1119 1000 q 1147 968 1154 1000 l 1106 738 q 1083 714 1101 714 q 1067 732 1067 714 l 1069 783 q 1038 922 1075 878 q 918 965 1001 965 q 838 949 863 965 q 803 893 813 933 l 726 558 q 742 539 722 539 l 811 539 q 900 604 872 539 l 931 674 q 953 692 940 692 q 965 685 960 692 q 968 668 971 679 l 896 356 q 875 332 890 335 q 856 350 856 329 l 857 418 q 845 482 858 467 q 800 497 832 497 l 732 497 q 707 478 711 497 l 626 129 q 636 57 615 79 q 725 35 657 35 q 852 70 794 35 q 951 203 910 106 l 986 285 q 1008 303 993 303 q 1022 279 1029 303 l 951 32 q 910 0 943 0 l 424 0 q 404 14 404 0 q 426 32 404 26 l 460 38 q 502 53 490 43 q 519 92 514 63 l 608 478 q 594 497 613 497 l 396 497 q 369 483 379 497 l 106 122 q 113 35 49 43 l 133 32 q 154 15 154 31 q 128 0 154 0 l -85 0 m 428 563 q 424 546 421 553 q 436 539 426 539 l 604 539 q 628 558 624 539 l 711 922 q 708 936 714 935 q 693 926 701 938 l 428 563 z "},"B":{"ha":665,"x_min":-50,"x_max":674,"o":"m -31 0 q -50 14 -50 0 q -22 33 -50 29 l 6 38 q 47 52 36 42 q 65 92 58 63 l 254 908 q 254 947 261 936 q 219 963 247 957 l 192 968 q 174 983 174 972 q 199 1000 174 1000 l 464 1000 q 615 949 557 1000 q 674 815 674 897 q 618 668 674 738 q 469 567 563 599 q 463 560 463 565 q 469 553 463 556 q 579 468 542 526 q 617 332 617 410 q 568 165 617 240 q 437 44 519 89 q 253 0 354 0 l -31 0 m 350 571 q 462 603 411 571 q 543 690 513 635 q 574 810 574 744 q 537 924 574 883 q 435 965 500 965 q 350 910 363 965 l 290 647 q 294 588 281 606 q 350 571 308 571 m 257 35 q 389 74 331 35 q 481 183 447 114 q 515 339 515 253 q 472 485 515 433 q 349 536 428 536 q 247 463 263 536 l 171 131 q 257 35 149 35 z "},"C":{"ha":660,"x_min":76,"x_max":721,"o":"m 356 -12 q 142 81 208 -12 q 76 350 76 174 q 97 526 76 435 q 158 705 118 618 q 253 861 197 792 q 378 972 308 931 q 531 1014 449 1014 q 707 949 628 1014 q 717 918 721 938 l 675 708 q 654 686 671 686 q 638 708 638 686 l 636 763 q 603 926 633 878 q 515 975 572 975 q 411 931 461 975 q 318 815 361 888 q 242 653 275 742 q 192 476 210 565 q 174 311 174 388 q 212 107 174 186 q 339 28 250 28 q 433 66 392 28 q 517 197 474 104 l 547 263 q 568 279 554 279 q 583 253 590 279 l 528 36 q 506 11 522 15 q 438 -5 482 3 q 356 -12 393 -12 z "},"Ć":{"ha":660,"x_min":76,"x_max":767,"o":"m 356 -12 q 142 81 208 -12 q 76 350 76 174 q 97 526 76 435 q 158 705 118 618 q 253 861 197 792 q 378 972 308 931 q 531 1014 449 1014 q 707 949 628 1014 q 717 918 721 938 l 675 708 q 654 686 671 686 q 638 708 638 686 l 636 763 q 603 926 633 878 q 515 975 572 975 q 411 931 461 975 q 318 815 361 888 q 242 653 275 742 q 192 476 210 565 q 174 311 174 388 q 212 107 174 186 q 339 28 250 28 q 433 66 392 28 q 517 197 474 104 l 547 263 q 568 279 554 279 q 583 253 590 279 l 528 36 q 506 11 522 15 q 438 -5 482 3 q 356 -12 393 -12 m 442 1104 q 410 1113 417 1094 q 428 1143 404 1126 l 646 1292 q 713 1319 685 1319 q 753 1306 740 1319 q 767 1272 767 1292 q 752 1236 767 1251 q 696 1204 738 1221 l 442 1104 z "},"Č":{"ha":660,"x_min":76,"x_max":814,"o":"m 356 -12 q 142 81 208 -12 q 76 350 76 174 q 97 526 76 435 q 158 705 118 618 q 253 861 197 792 q 378 972 308 931 q 531 1014 449 1014 q 707 949 628 1014 q 717 918 721 938 l 675 708 q 654 686 671 686 q 638 708 638 686 l 636 763 q 603 926 633 878 q 515 975 572 975 q 411 931 461 975 q 318 815 361 888 q 242 653 275 742 q 192 476 210 565 q 174 311 174 388 q 212 107 174 186 q 339 28 250 28 q 433 66 392 28 q 517 197 474 104 l 547 263 q 568 279 554 279 q 583 253 590 279 l 528 36 q 506 11 522 15 q 438 -5 482 3 q 356 -12 393 -12 m 531 1099 q 500 1114 511 1099 l 378 1283 q 376 1306 369 1296 q 407 1304 386 1318 l 556 1189 l 769 1313 q 803 1313 792 1326 q 796 1283 814 1299 l 596 1114 q 557 1099 576 1099 l 531 1099 z "},"Ç":{"ha":660,"x_min":76,"x_max":721,"o":"m 356 -12 q 142 81 208 -12 q 76 350 76 174 q 97 526 76 435 q 158 705 118 618 q 253 861 197 792 q 378 972 308 931 q 531 1014 449 1014 q 707 949 628 1014 q 717 918 721 938 l 675 708 q 654 686 671 686 q 638 708 638 686 l 636 763 q 603 926 633 878 q 515 975 572 975 q 411 931 461 975 q 318 815 361 888 q 242 653 275 742 q 192 476 210 565 q 174 311 174 388 q 212 107 174 186 q 339 28 250 28 q 433 66 392 28 q 517 197 474 104 l 547 263 q 568 279 554 279 q 583 253 590 279 l 528 36 q 506 11 522 15 q 438 -5 482 3 q 356 -12 393 -12 m 350 18 l 317 -60 q 321 -71 313 -68 q 381 -109 360 -83 q 403 -171 403 -135 q 356 -265 403 -231 q 247 -299 308 -299 q 169 -277 199 -299 q 140 -224 140 -256 q 151 -194 140 -206 q 179 -182 161 -182 q 205 -195 200 -182 q 212 -226 210 -208 q 222 -258 214 -244 q 257 -271 231 -271 q 317 -243 297 -271 q 338 -185 338 -215 q 276 -117 338 -129 q 268 -99 263 -114 l 317 18 l 350 18 z "},"Ċ":{"ha":660,"x_min":76,"x_max":721,"o":"m 356 -12 q 142 81 208 -12 q 76 350 76 174 q 97 526 76 435 q 158 705 118 618 q 253 861 197 792 q 378 972 308 931 q 531 1014 449 1014 q 707 949 628 1014 q 717 918 721 938 l 675 708 q 654 686 671 686 q 638 708 638 686 l 636 763 q 603 926 633 878 q 515 975 572 975 q 411 931 461 975 q 318 815 361 888 q 242 653 275 742 q 192 476 210 565 q 174 311 174 388 q 212 107 174 186 q 339 28 250 28 q 433 66 392 28 q 517 197 474 104 l 547 263 q 568 279 554 279 q 583 253 590 279 l 528 36 q 506 11 522 15 q 438 -5 482 3 q 356 -12 393 -12 m 560 1132 q 516 1151 533 1132 q 499 1196 499 1169 q 522 1256 499 1233 q 574 1278 544 1278 q 620 1260 601 1278 q 639 1215 639 1243 q 615 1154 639 1176 q 560 1132 592 1132 z "},"D":{"ha":744,"x_min":-50,"x_max":738,"o":"m -31 0 q -50 14 -50 0 q -22 33 -50 29 l 6 38 q 48 52 36 42 q 65 92 60 63 l 254 908 q 254 947 261 938 q 219 963 247 957 l 192 968 q 174 983 174 972 q 199 1000 174 1000 l 478 1000 q 667 912 597 1000 q 738 650 738 824 q 697 405 738 522 q 589 197 657 288 q 434 53 521 106 q 253 0 347 0 l -31 0 m 260 36 q 408 94 339 36 q 531 253 478 153 q 613 481 583 354 q 643 742 643 607 q 597 908 643 853 q 469 964 551 964 q 342 863 365 964 l 175 138 q 185 59 163 82 q 260 36 208 36 z "},"Ð":{"ha":744,"x_min":-50,"x_max":738,"o":"m -31 0 q -50 14 -50 0 q -22 33 -50 29 l 6 38 q 48 52 36 42 q 65 92 60 63 l 160 497 l 75 497 q 64 511 61 497 l 67 522 q 83 536 69 536 l 168 536 l 254 908 q 254 947 261 938 q 219 963 247 957 l 192 968 q 174 983 174 972 q 199 1000 174 1000 l 478 1000 q 667 912 597 1000 q 738 650 738 824 q 697 405 738 522 q 589 197 657 288 q 434 53 521 106 q 253 0 347 0 l -31 0 m 260 36 q 408 94 339 36 q 531 253 478 153 q 613 481 583 354 q 643 742 643 607 q 597 908 643 853 q 469 964 551 964 q 342 863 365 964 l 267 536 l 438 536 q 449 522 451 536 l 446 511 q 429 497 443 497 l 258 497 l 175 138 q 185 59 163 82 q 260 36 208 36 z "},"Ď":{"ha":744,"x_min":-50,"x_max":800,"o":"m -31 0 q -50 14 -50 0 q -22 33 -50 29 l 6 38 q 48 52 36 42 q 65 92 60 63 l 254 908 q 254 947 261 938 q 219 963 247 957 l 192 968 q 174 983 174 972 q 199 1000 174 1000 l 478 1000 q 667 912 597 1000 q 738 650 738 824 q 697 405 738 522 q 589 197 657 288 q 434 53 521 106 q 253 0 347 0 l -31 0 m 260 36 q 408 94 339 36 q 531 253 478 153 q 613 481 583 354 q 643 742 643 607 q 597 908 643 853 q 469 964 551 964 q 342 863 365 964 l 175 138 q 185 59 163 82 q 260 36 208 36 m 517 1099 q 486 1114 497 1099 l 364 1283 q 363 1306 356 1296 q 393 1304 372 1318 l 542 1189 l 756 1313 q 789 1313 778 1326 q 782 1283 800 1299 l 582 1114 q 543 1099 563 1099 l 517 1099 z "},"Đ":{"ha":744,"x_min":-50,"x_max":738,"o":"m -31 0 q -50 14 -50 0 q -22 33 -50 29 l 6 38 q 48 52 36 42 q 65 92 60 63 l 160 497 l 75 497 q 64 511 61 497 l 67 522 q 83 536 69 536 l 168 536 l 254 908 q 254 947 261 938 q 219 963 247 957 l 192 968 q 174 983 174 972 q 199 1000 174 1000 l 478 1000 q 667 912 597 1000 q 738 650 738 824 q 697 405 738 522 q 589 197 657 288 q 434 53 521 106 q 253 0 347 0 l -31 0 m 260 36 q 408 94 339 36 q 531 253 478 153 q 613 481 583 354 q 643 742 643 607 q 597 908 643 853 q 469 964 551 964 q 342 863 365 964 l 267 536 l 438 536 q 449 522 451 536 l 446 511 q 429 497 443 497 l 258 497 l 175 138 q 185 59 163 82 q 260 36 208 36 z "},"E":{"ha":631,"x_min":-50,"x_max":699,"o":"m -31 0 q -50 14 -50 0 q -22 33 -50 29 l 6 38 q 48 52 36 42 q 65 92 60 63 l 254 908 q 254 947 261 938 q 219 963 247 957 l 192 968 q 174 983 174 972 q 199 1000 174 1000 l 663 1000 q 692 968 699 1000 l 649 738 q 626 714 644 714 q 610 732 607 714 l 614 781 q 602 892 621 851 q 547 949 583 932 q 461 965 510 965 q 381 949 406 965 q 346 893 356 933 l 269 558 q 285 539 265 539 l 356 539 q 444 604 417 539 l 475 674 q 497 692 482 692 q 510 685 506 692 q 513 668 515 679 l 440 356 q 417 332 433 332 q 400 350 400 332 l 401 418 q 390 482 403 467 q 344 497 376 497 l 275 497 q 250 478 254 497 l 169 129 q 179 57 158 79 q 268 35 200 35 q 351 48 310 35 q 428 99 392 61 q 496 207 465 136 l 529 285 q 551 303 536 303 q 565 279 572 303 l 494 32 q 453 0 486 0 l -31 0 z "},"É":{"ha":631,"x_min":-50,"x_max":710,"o":"m -31 0 q -50 14 -50 0 q -22 33 -50 29 l 6 38 q 48 52 36 42 q 65 92 60 63 l 254 908 q 254 947 261 938 q 219 963 247 957 l 192 968 q 174 983 174 972 q 199 1000 174 1000 l 663 1000 q 692 968 699 1000 l 649 738 q 626 714 644 714 q 610 732 607 714 l 614 781 q 602 892 621 851 q 547 949 583 932 q 461 965 510 965 q 381 949 406 965 q 346 893 356 933 l 269 558 q 285 539 265 539 l 356 539 q 444 604 417 539 l 475 674 q 497 692 482 692 q 510 685 506 692 q 513 668 515 679 l 440 356 q 417 332 433 332 q 400 350 400 332 l 401 418 q 390 482 403 467 q 344 497 376 497 l 275 497 q 250 478 254 497 l 169 129 q 179 57 158 79 q 268 35 200 35 q 351 48 310 35 q 428 99 392 61 q 496 207 465 136 l 529 285 q 551 303 536 303 q 565 279 572 303 l 494 32 q 453 0 486 0 l -31 0 m 385 1104 q 353 1113 360 1094 q 371 1143 347 1126 l 589 1292 q 656 1319 628 1319 q 697 1306 683 1319 q 710 1272 710 1292 q 695 1236 710 1251 q 639 1204 681 1221 l 385 1104 z "},"Ě":{"ha":631,"x_min":-50,"x_max":757,"o":"m -31 0 q -50 14 -50 0 q -22 33 -50 29 l 6 38 q 48 52 36 42 q 65 92 60 63 l 254 908 q 254 947 261 938 q 219 963 247 957 l 192 968 q 174 983 174 972 q 199 1000 174 1000 l 663 1000 q 692 968 699 1000 l 649 738 q 626 714 644 714 q 610 732 607 714 l 614 781 q 602 892 621 851 q 547 949 583 932 q 461 965 510 965 q 381 949 406 965 q 346 893 356 933 l 269 558 q 285 539 265 539 l 356 539 q 444 604 417 539 l 475 674 q 497 692 482 692 q 510 685 506 692 q 513 668 515 679 l 440 356 q 417 332 433 332 q 400 350 400 332 l 401 418 q 390 482 403 467 q 344 497 376 497 l 275 497 q 250 478 254 497 l 169 129 q 179 57 158 79 q 268 35 200 35 q 351 48 310 35 q 428 99 392 61 q 496 207 465 136 l 529 285 q 551 303 536 303 q 565 279 572 303 l 494 32 q 453 0 486 0 l -31 0 m 474 1099 q 443 1114 454 1099 l 321 1283 q 319 1306 313 1296 q 350 1304 329 1318 l 499 1189 l 713 1313 q 746 1313 735 1326 q 739 1283 757 1299 l 539 1114 q 500 1099 519 1099 l 474 1099 z "},"Ê":{"ha":631,"x_min":-50,"x_max":711,"o":"m -31 0 q -50 14 -50 0 q -22 33 -50 29 l 6 38 q 48 52 36 42 q 65 92 60 63 l 254 908 q 254 947 261 938 q 219 963 247 957 l 192 968 q 174 983 174 972 q 199 1000 174 1000 l 663 1000 q 692 968 699 1000 l 649 738 q 626 714 644 714 q 610 732 607 714 l 614 781 q 602 892 621 851 q 547 949 583 932 q 461 965 510 965 q 381 949 406 965 q 346 893 356 933 l 269 558 q 285 539 265 539 l 356 539 q 444 604 417 539 l 475 674 q 497 692 482 692 q 510 685 506 692 q 513 668 515 679 l 440 356 q 417 332 433 332 q 400 350 400 332 l 401 418 q 390 482 403 467 q 344 497 376 497 l 275 497 q 250 478 254 497 l 169 129 q 179 57 158 79 q 268 35 200 35 q 351 48 310 35 q 428 99 392 61 q 496 207 465 136 l 529 285 q 551 303 536 303 q 565 279 572 303 l 494 32 q 453 0 486 0 l -31 0 m 311 1106 q 278 1106 289 1092 q 285 1135 267 1119 l 485 1304 q 524 1319 504 1319 l 550 1319 q 581 1304 569 1319 l 703 1135 q 704 1113 711 1122 q 675 1114 694 1100 l 526 1229 l 311 1106 z "},"Ë":{"ha":631,"x_min":-50,"x_max":711,"o":"m -31 0 q -50 14 -50 0 q -22 33 -50 29 l 6 38 q 48 52 36 42 q 65 92 60 63 l 254 908 q 254 947 261 938 q 219 963 247 957 l 192 968 q 174 983 174 972 q 199 1000 174 1000 l 663 1000 q 692 968 699 1000 l 649 738 q 626 714 644 714 q 610 732 607 714 l 614 781 q 602 892 621 851 q 547 949 583 932 q 461 965 510 965 q 381 949 406 965 q 346 893 356 933 l 269 558 q 285 539 265 539 l 356 539 q 444 604 417 539 l 475 674 q 497 692 482 692 q 510 685 506 692 q 513 668 515 679 l 440 356 q 417 332 433 332 q 400 350 400 332 l 401 418 q 390 482 403 467 q 344 497 376 497 l 275 497 q 250 478 254 497 l 169 129 q 179 57 158 79 q 268 35 200 35 q 351 48 310 35 q 428 99 392 61 q 496 207 465 136 l 529 285 q 551 303 536 303 q 565 279 572 303 l 494 32 q 453 0 486 0 l -31 0 m 372 1132 q 328 1151 344 1132 q 311 1196 311 1169 q 333 1251 311 1231 q 385 1272 356 1272 q 429 1254 413 1272 q 446 1208 446 1236 q 424 1153 446 1174 q 372 1132 401 1132 m 638 1132 q 593 1151 610 1132 q 576 1196 576 1169 q 599 1251 576 1231 q 650 1272 621 1272 q 694 1254 678 1272 q 711 1208 711 1236 q 689 1153 711 1174 q 638 1132 667 1132 z "},"Ė":{"ha":631,"x_min":-50,"x_max":699,"o":"m -31 0 q -50 14 -50 0 q -22 33 -50 29 l 6 38 q 48 52 36 42 q 65 92 60 63 l 254 908 q 254 947 261 938 q 219 963 247 957 l 192 968 q 174 983 174 972 q 199 1000 174 1000 l 663 1000 q 692 968 699 1000 l 649 738 q 626 714 644 714 q 610 732 607 714 l 614 781 q 602 892 621 851 q 547 949 583 932 q 461 965 510 965 q 381 949 406 965 q 346 893 356 933 l 269 558 q 285 539 265 539 l 356 539 q 444 604 417 539 l 475 674 q 497 692 482 692 q 510 685 506 692 q 513 668 515 679 l 440 356 q 417 332 433 332 q 400 350 400 332 l 401 418 q 390 482 403 467 q 344 497 376 497 l 275 497 q 250 478 254 497 l 169 129 q 179 57 158 79 q 268 35 200 35 q 351 48 310 35 q 428 99 392 61 q 496 207 465 136 l 529 285 q 551 303 536 303 q 565 279 572 303 l 494 32 q 453 0 486 0 l -31 0 m 503 1132 q 459 1151 476 1132 q 442 1196 442 1169 q 465 1256 442 1233 q 517 1278 488 1278 q 563 1260 544 1278 q 582 1215 582 1243 q 558 1154 582 1176 q 503 1132 535 1132 z "},"È":{"ha":631,"x_min":-50,"x_max":699,"o":"m -31 0 q -50 14 -50 0 q -22 33 -50 29 l 6 38 q 48 52 36 42 q 65 92 60 63 l 254 908 q 254 947 261 938 q 219 963 247 957 l 192 968 q 174 983 174 972 q 199 1000 174 1000 l 663 1000 q 692 968 699 1000 l 649 738 q 626 714 644 714 q 610 732 607 714 l 614 781 q 602 892 621 851 q 547 949 583 932 q 461 965 510 965 q 381 949 406 965 q 346 893 356 933 l 269 558 q 285 539 265 539 l 356 539 q 444 604 417 539 l 475 674 q 497 692 482 692 q 510 685 506 692 q 513 668 515 679 l 440 356 q 417 332 433 332 q 400 350 400 332 l 401 418 q 390 482 403 467 q 344 497 376 497 l 275 497 q 250 478 254 497 l 169 129 q 179 57 158 79 q 268 35 200 35 q 351 48 310 35 q 428 99 392 61 q 496 207 465 136 l 529 285 q 551 303 536 303 q 565 279 572 303 l 494 32 q 453 0 486 0 l -31 0 m 589 1103 l 393 1210 q 338 1274 338 1239 q 353 1306 338 1293 q 390 1319 368 1319 q 423 1313 410 1319 q 454 1290 436 1307 l 617 1136 q 628 1115 628 1125 q 617 1098 628 1103 q 589 1103 606 1093 z "},"Ē":{"ha":631,"x_min":-50,"x_max":718,"o":"m -31 0 q -50 14 -50 0 q -22 33 -50 29 l 6 38 q 48 52 36 42 q 65 92 60 63 l 254 908 q 254 947 261 938 q 219 963 247 957 l 192 968 q 174 983 174 972 q 199 1000 174 1000 l 663 1000 q 692 968 699 1000 l 649 738 q 626 714 644 714 q 610 732 607 714 l 614 781 q 602 892 621 851 q 547 949 583 932 q 461 965 510 965 q 381 949 406 965 q 346 893 356 933 l 269 558 q 285 539 265 539 l 356 539 q 444 604 417 539 l 475 674 q 497 692 482 692 q 510 685 506 692 q 513 668 515 679 l 440 356 q 417 332 433 332 q 400 350 400 332 l 401 418 q 390 482 403 467 q 344 497 376 497 l 275 497 q 250 478 254 497 l 169 129 q 179 57 158 79 q 268 35 200 35 q 351 48 310 35 q 428 99 392 61 q 496 207 465 136 l 529 285 q 551 303 536 303 q 565 279 572 303 l 494 32 q 453 0 486 0 l -31 0 m 321 1175 q 307 1192 304 1175 l 311 1213 q 332 1229 314 1229 l 703 1229 q 715 1213 718 1229 l 711 1192 q 690 1175 708 1175 l 321 1175 z "},"Ę":{"ha":631,"x_min":-50,"x_max":699,"o":"m -31 0 q -50 14 -50 0 q -22 33 -50 29 l 6 38 q 48 52 36 42 q 65 92 60 63 l 254 908 q 254 947 261 938 q 219 963 247 957 l 192 968 q 174 983 174 972 q 199 1000 174 1000 l 663 1000 q 692 968 699 1000 l 649 738 q 626 714 644 714 q 610 732 607 714 l 614 781 q 602 892 621 851 q 547 949 583 932 q 461 965 510 965 q 381 949 406 965 q 346 893 356 933 l 269 558 q 285 539 265 539 l 356 539 q 444 604 417 539 l 475 674 q 497 692 482 692 q 510 685 506 692 q 513 668 515 679 l 440 356 q 417 332 433 332 q 400 350 400 332 l 401 418 q 390 482 403 467 q 344 497 376 497 l 275 497 q 250 478 254 497 l 169 129 q 179 57 158 79 q 268 35 200 35 q 351 48 310 35 q 428 99 392 61 q 496 207 465 136 l 529 285 q 551 303 536 303 q 565 279 572 303 l 494 32 q 453 0 486 0 l -31 0 m 306 -300 q 244 -281 272 -300 q 217 -219 217 -262 q 238 -149 217 -185 q 294 -82 260 -114 q 367 -25 328 -50 q 442 14 407 0 l 453 0 q 372 -55 411 -21 q 308 -129 333 -89 q 283 -210 283 -169 q 297 -247 283 -236 q 329 -258 311 -258 q 390 -229 360 -258 q 406 -219 397 -222 q 419 -225 414 -217 q 419 -239 422 -232 q 408 -253 415 -246 q 362 -287 386 -275 q 306 -300 338 -300 z "},"F":{"ha":571,"x_min":-50,"x_max":681,"o":"m -31 0 q -50 14 -50 0 q -22 33 -50 29 l 6 38 q 48 52 36 42 q 65 92 60 63 l 254 908 q 254 947 261 938 q 219 963 247 957 l 192 968 q 174 983 174 972 q 199 1000 174 1000 l 646 1000 q 674 968 681 1000 l 632 738 q 610 714 628 714 q 593 732 590 714 l 596 781 q 565 921 603 876 q 469 965 528 965 q 382 946 410 965 q 344 886 354 926 l 269 558 q 285 539 265 539 l 336 539 q 425 604 396 539 l 457 672 q 465 685 461 681 q 478 690 469 690 q 490 684 485 690 q 493 667 496 678 l 421 357 q 399 333 414 333 q 382 351 382 333 l 382 418 q 369 482 382 467 q 325 497 357 497 l 275 497 q 250 478 254 497 l 161 99 q 161 58 154 69 q 196 42 168 46 l 269 32 q 286 17 286 31 q 263 0 286 0 l -31 0 z "},"G":{"ha":714,"x_min":72,"x_max":742,"o":"m 328 -12 q 140 81 208 -12 q 72 351 72 175 q 91 514 72 425 q 148 691 110 603 q 243 852 186 779 q 378 969 300 925 q 553 1014 456 1014 q 657 1003 614 1014 q 729 976 700 993 q 738 947 742 969 l 696 736 q 674 713 692 713 q 657 731 657 713 l 656 771 q 626 934 651 890 q 546 978 600 978 q 430 943 482 978 q 335 850 378 908 q 262 721 293 792 q 210 576 231 650 q 180 438 190 503 q 169 326 169 372 q 215 99 169 175 q 332 24 260 24 q 411 49 376 24 q 461 143 446 75 l 531 447 q 533 487 538 475 q 496 501 528 499 l 447 507 q 429 522 429 508 q 454 539 429 539 l 706 539 q 724 525 724 539 q 703 507 724 510 l 682 504 q 642 488 651 500 q 626 446 633 475 l 546 97 q 531 68 543 82 q 494 39 519 54 q 419 3 460 18 q 328 -12 379 -12 z "},"Ğ":{"ha":714,"x_min":72,"x_max":815,"o":"m 328 -12 q 140 81 208 -12 q 72 351 72 175 q 91 514 72 425 q 148 691 110 603 q 243 852 186 779 q 378 969 300 925 q 553 1014 456 1014 q 657 1003 614 1014 q 729 976 700 993 q 738 947 742 969 l 696 736 q 674 713 692 713 q 657 731 657 713 l 656 771 q 626 934 651 890 q 546 978 600 978 q 430 943 482 978 q 335 850 378 908 q 262 721 293 792 q 210 576 231 650 q 180 438 190 503 q 169 326 169 372 q 215 99 169 175 q 332 24 260 24 q 411 49 376 24 q 461 143 446 75 l 531 447 q 533 487 538 475 q 496 501 528 499 l 447 507 q 429 522 429 508 q 454 539 429 539 l 706 539 q 724 525 724 539 q 703 507 724 510 l 682 504 q 642 488 651 500 q 626 446 633 475 l 546 97 q 531 68 543 82 q 494 39 519 54 q 419 3 460 18 q 328 -12 379 -12 m 578 1096 q 458 1145 507 1096 q 414 1281 410 1194 q 435 1306 417 1306 q 450 1289 450 1306 q 490 1202 451 1229 q 589 1175 528 1175 q 699 1202 650 1175 q 778 1289 747 1229 q 799 1306 786 1306 q 811 1299 807 1306 q 811 1281 815 1292 q 719 1145 781 1194 q 578 1096 657 1096 z "},"Ģ":{"ha":714,"x_min":72,"x_max":742,"o":"m 328 -12 q 140 81 208 -12 q 72 351 72 175 q 91 514 72 425 q 148 691 110 603 q 243 852 186 779 q 378 969 300 925 q 553 1014 456 1014 q 657 1003 614 1014 q 729 976 700 993 q 738 947 742 969 l 696 736 q 674 713 692 713 q 657 731 657 713 l 656 771 q 626 934 651 890 q 546 978 600 978 q 430 943 482 978 q 335 850 378 908 q 262 721 293 792 q 210 576 231 650 q 180 438 190 503 q 169 326 169 372 q 215 99 169 175 q 332 24 260 24 q 411 49 376 24 q 461 143 446 75 l 531 447 q 533 487 538 475 q 496 501 528 499 l 447 507 q 429 522 429 508 q 454 539 429 539 l 706 539 q 724 525 724 539 q 703 507 724 510 l 682 504 q 642 488 651 500 q 626 446 633 475 l 546 97 q 531 68 543 82 q 494 39 519 54 q 419 3 460 18 q 328 -12 379 -12 m 281 -93 q 330 -115 311 -93 q 349 -174 349 -137 q 302 -302 349 -240 q 178 -408 256 -364 q 161 -414 169 -412 q 149 -410 153 -415 q 148 -396 143 -403 q 160 -383 153 -389 q 234 -320 211 -349 q 257 -261 257 -292 q 246 -228 257 -239 q 224 -203 235 -217 q 213 -162 213 -190 q 233 -112 213 -132 q 281 -93 254 -93 z "},"Ġ":{"ha":714,"x_min":72,"x_max":742,"o":"m 328 -12 q 140 81 208 -12 q 72 351 72 175 q 91 514 72 425 q 148 691 110 603 q 243 852 186 779 q 378 969 300 925 q 553 1014 456 1014 q 657 1003 614 1014 q 729 976 700 993 q 738 947 742 969 l 696 736 q 674 713 692 713 q 657 731 657 713 l 656 771 q 626 934 651 890 q 546 978 600 978 q 430 943 482 978 q 335 850 378 908 q 262 721 293 792 q 210 576 231 650 q 180 438 190 503 q 169 326 169 372 q 215 99 169 175 q 332 24 260 24 q 411 49 376 24 q 461 143 446 75 l 531 447 q 533 487 538 475 q 496 501 528 499 l 447 507 q 429 522 429 508 q 454 539 429 539 l 706 539 q 724 525 724 539 q 703 507 724 510 l 682 504 q 642 488 651 500 q 626 446 633 475 l 546 97 q 531 68 543 82 q 494 39 519 54 q 419 3 460 18 q 328 -12 379 -12 m 586 1132 q 542 1151 560 1132 q 525 1196 525 1169 q 548 1256 525 1233 q 600 1278 571 1278 q 647 1260 628 1278 q 665 1215 665 1243 q 642 1154 665 1176 q 586 1132 618 1132 z "},"H":{"ha":757,"x_min":-50,"x_max":875,"o":"m -31 0 q -50 14 -50 0 q -22 33 -50 29 l 6 38 q 48 52 36 42 q 65 92 60 63 l 254 908 q 254 947 261 938 q 219 963 247 957 l 192 968 q 174 983 174 972 q 199 1000 174 1000 l 449 1000 q 468 985 468 1000 q 443 967 468 969 l 410 963 q 368 947 379 958 q 350 907 357 936 l 269 558 q 285 539 265 539 l 560 539 q 583 558 579 539 l 664 907 q 664 947 671 936 q 629 963 657 958 l 599 967 q 579 983 579 968 q 606 1000 579 1000 l 856 1000 q 875 986 875 1000 q 847 967 875 971 l 819 963 q 778 948 789 958 q 760 908 767 938 l 571 92 q 572 53 565 63 q 606 38 578 43 l 633 32 q 651 17 651 28 q 626 0 651 0 l 376 0 q 357 15 357 0 q 382 33 357 31 l 415 38 q 458 53 446 42 q 475 93 469 64 l 564 478 q 550 497 568 497 l 275 497 q 250 478 254 497 l 161 93 q 162 53 156 64 q 196 38 168 42 l 226 33 q 246 17 246 32 q 219 0 246 0 l -31 0 z "},"Ħ":{"ha":757,"x_min":-50,"x_max":875,"o":"m -31 0 q -50 14 -50 0 q -22 33 -50 29 l 6 38 q 48 52 36 42 q 65 92 60 63 l 215 739 l 131 739 q 119 753 117 739 l 122 764 q 139 778 125 778 l 224 778 l 254 908 q 254 947 261 938 q 219 963 247 957 l 192 968 q 174 983 174 972 q 199 1000 174 1000 l 449 1000 q 468 985 468 1000 q 443 967 468 969 l 410 963 q 368 947 379 958 q 350 907 357 936 l 321 778 l 635 778 l 664 907 q 664 947 671 936 q 629 963 657 958 l 599 967 q 579 983 579 968 q 606 1000 579 1000 l 856 1000 q 875 986 875 1000 q 847 967 875 971 l 819 963 q 778 948 789 958 q 760 908 767 938 l 729 778 l 813 778 q 824 764 826 778 l 821 753 q 804 739 818 739 l 721 739 l 571 92 q 572 53 565 63 q 606 38 578 43 l 633 32 q 651 17 651 28 q 626 0 651 0 l 376 0 q 357 15 357 0 q 382 33 357 31 l 415 38 q 458 53 446 42 q 475 93 469 64 l 564 478 q 550 497 568 497 l 275 497 q 250 478 254 497 l 161 93 q 162 53 156 64 q 196 38 168 42 l 226 33 q 246 17 246 32 q 219 0 246 0 l -31 0 m 285 539 l 560 539 q 583 558 579 539 l 625 739 l 311 739 l 269 558 q 285 539 265 539 z "},"I":{"ha":347,"x_min":-50,"x_max":465,"o":"m -31 0 q -50 14 -50 0 q -22 33 -50 29 l 6 38 q 48 52 36 42 q 65 92 60 63 l 254 908 q 254 947 261 938 q 219 963 247 957 l 192 968 q 174 983 174 972 q 199 1000 174 1000 l 446 1000 q 465 986 465 1000 q 438 967 465 971 l 410 963 q 368 948 379 958 q 350 908 357 938 l 161 92 q 162 53 156 63 q 196 38 168 43 l 224 32 q 242 17 242 28 q 217 0 242 0 l -31 0 z "},"Ĳ":{"ha":696,"x_min":-50,"x_max":813,"o":"m -31 0 q -50 14 -50 0 q -22 33 -50 29 l 6 38 q 48 52 36 42 q 65 92 60 63 l 254 908 q 254 947 261 938 q 219 963 247 957 l 192 968 q 174 983 174 972 q 199 1000 174 1000 l 446 1000 q 465 986 465 1000 q 438 967 465 971 l 410 963 q 368 948 379 958 q 350 908 357 938 l 161 92 q 162 53 156 63 q 196 38 168 43 l 224 32 q 242 17 242 28 q 217 0 242 0 l -31 0 m 224 -299 q 160 -278 185 -299 q 136 -224 136 -257 q 153 -174 136 -196 q 199 -151 169 -151 q 233 -165 224 -151 q 247 -197 243 -179 q 256 -229 250 -215 q 281 -243 263 -243 q 328 -212 307 -243 q 363 -126 350 -182 l 601 908 q 601 947 608 938 q 567 963 594 957 l 539 968 q 521 983 521 972 q 546 1000 521 1000 l 793 1000 q 813 986 813 1000 q 785 967 813 971 l 757 963 q 715 948 726 958 q 697 908 704 938 l 501 61 q 388 -202 463 -106 q 224 -299 314 -299 z "},"Í":{"ha":347,"x_min":-50,"x_max":568,"o":"m -31 0 q -50 14 -50 0 q -22 33 -50 29 l 6 38 q 48 52 36 42 q 65 92 60 63 l 254 908 q 254 947 261 938 q 219 963 247 957 l 192 968 q 174 983 174 972 q 199 1000 174 1000 l 446 1000 q 465 986 465 1000 q 438 967 465 971 l 410 963 q 368 948 379 958 q 350 908 357 938 l 161 92 q 162 53 156 63 q 196 38 168 43 l 224 32 q 242 17 242 28 q 217 0 242 0 l -31 0 m 243 1104 q 211 1113 218 1094 q 229 1143 206 1126 l 447 1292 q 514 1319 486 1319 q 555 1306 542 1319 q 568 1272 568 1292 q 553 1236 568 1251 q 497 1204 539 1221 l 243 1104 z "},"Î":{"ha":347,"x_min":-50,"x_max":569,"o":"m -31 0 q -50 14 -50 0 q -22 33 -50 29 l 6 38 q 48 52 36 42 q 65 92 60 63 l 254 908 q 254 947 261 938 q 219 963 247 957 l 192 968 q 174 983 174 972 q 199 1000 174 1000 l 446 1000 q 465 986 465 1000 q 438 967 465 971 l 410 963 q 368 948 379 958 q 350 908 357 938 l 161 92 q 162 53 156 63 q 196 38 168 43 l 224 32 q 242 17 242 28 q 217 0 242 0 l -31 0 m 169 1106 q 136 1106 147 1092 q 143 1135 125 1119 l 343 1304 q 382 1319 363 1319 l 408 1319 q 439 1304 428 1319 l 561 1135 q 563 1113 569 1122 q 533 1114 553 1100 l 385 1229 l 169 1106 z "},"Ï":{"ha":347,"x_min":-50,"x_max":569,"o":"m -31 0 q -50 14 -50 0 q -22 33 -50 29 l 6 38 q 48 52 36 42 q 65 92 60 63 l 254 908 q 254 947 261 938 q 219 963 247 957 l 192 968 q 174 983 174 972 q 199 1000 174 1000 l 446 1000 q 465 986 465 1000 q 438 967 465 971 l 410 963 q 368 948 379 958 q 350 908 357 938 l 161 92 q 162 53 156 63 q 196 38 168 43 l 224 32 q 242 17 242 28 q 217 0 242 0 l -31 0 m 231 1132 q 186 1151 203 1132 q 169 1196 169 1169 q 192 1251 169 1231 q 243 1272 214 1272 q 288 1254 271 1272 q 304 1208 304 1236 q 282 1153 304 1174 q 231 1132 260 1132 m 496 1132 q 451 1151 468 1132 q 435 1196 435 1169 q 457 1251 435 1231 q 508 1272 479 1272 q 553 1254 536 1272 q 569 1208 569 1236 q 547 1153 569 1174 q 496 1132 525 1132 z "},"İ":{"ha":347,"x_min":-50,"x_max":465,"o":"m -31 0 q -50 14 -50 0 q -22 33 -50 29 l 6 38 q 48 52 36 42 q 65 92 60 63 l 254 908 q 254 947 261 938 q 219 963 247 957 l 192 968 q 174 983 174 972 q 199 1000 174 1000 l 446 1000 q 465 986 465 1000 q 438 967 465 971 l 410 963 q 368 948 379 958 q 350 908 357 938 l 161 92 q 162 53 156 63 q 196 38 168 43 l 224 32 q 242 17 242 28 q 217 0 242 0 l -31 0 m 361 1132 q 317 1151 335 1132 q 300 1196 300 1169 q 323 1256 300 1233 q 375 1278 346 1278 q 422 1260 403 1278 q 440 1215 440 1243 q 417 1154 440 1176 q 361 1132 393 1132 z "},"Ì":{"ha":347,"x_min":-50,"x_max":486,"o":"m -31 0 q -50 14 -50 0 q -22 33 -50 29 l 6 38 q 48 52 36 42 q 65 92 60 63 l 254 908 q 254 947 261 938 q 219 963 247 957 l 192 968 q 174 983 174 972 q 199 1000 174 1000 l 446 1000 q 465 986 465 1000 q 438 967 465 971 l 410 963 q 368 948 379 958 q 350 908 357 938 l 161 92 q 162 53 156 63 q 196 38 168 43 l 224 32 q 242 17 242 28 q 217 0 242 0 l -31 0 m 447 1103 l 251 1210 q 196 1274 196 1239 q 211 1306 196 1293 q 249 1319 226 1319 q 281 1313 268 1319 q 313 1290 294 1307 l 475 1136 q 486 1115 486 1125 q 475 1098 486 1103 q 447 1103 464 1093 z "},"Ī":{"ha":347,"x_min":-50,"x_max":576,"o":"m -31 0 q -50 14 -50 0 q -22 33 -50 29 l 6 38 q 48 52 36 42 q 65 92 60 63 l 254 908 q 254 947 261 938 q 219 963 247 957 l 192 968 q 174 983 174 972 q 199 1000 174 1000 l 446 1000 q 465 986 465 1000 q 438 967 465 971 l 410 963 q 368 948 379 958 q 350 908 357 938 l 161 92 q 162 53 156 63 q 196 38 168 43 l 224 32 q 242 17 242 28 q 217 0 242 0 l -31 0 m 179 1175 q 165 1192 163 1175 l 169 1213 q 190 1229 172 1229 l 561 1229 q 574 1213 576 1229 l 569 1192 q 549 1175 567 1175 l 179 1175 z "},"Į":{"ha":347,"x_min":-97,"x_max":465,"o":"m -31 0 q -50 14 -50 0 q -22 33 -50 29 l 6 38 q 48 52 36 42 q 65 92 60 63 l 254 908 q 254 947 261 938 q 219 963 247 957 l 192 968 q 174 983 174 972 q 199 1000 174 1000 l 446 1000 q 465 986 465 1000 q 438 967 465 971 l 410 963 q 368 948 379 958 q 350 908 357 938 l 161 92 q 162 53 156 63 q 196 38 168 43 l 224 32 q 242 17 242 28 q 217 0 242 0 l -31 0 m -8 -300 q -69 -281 -42 -300 q -97 -219 -97 -262 q -76 -149 -97 -185 q -20 -82 -54 -114 q 53 -25 14 -50 q 128 14 93 0 l 139 0 q 58 -55 97 -21 q -6 -129 19 -89 q -31 -210 -31 -169 q -17 -247 -31 -236 q 15 -258 -3 -258 q 76 -229 46 -258 q 92 -219 83 -222 q 106 -225 100 -217 q 105 -239 108 -232 q 94 -253 101 -246 q 48 -287 72 -275 q -8 -300 24 -300 z "},"J":{"ha":349,"x_min":-211,"x_max":465,"o":"m -124 -299 q -187 -278 -162 -299 q -211 -224 -211 -257 q -194 -174 -211 -196 q -149 -151 -178 -151 q -114 -165 -124 -151 q -101 -197 -104 -179 q -91 -229 -97 -215 q -67 -243 -85 -243 q -19 -212 -40 -243 q 15 -126 3 -182 l 254 908 q 254 947 261 938 q 219 963 247 957 l 192 968 q 174 983 174 972 q 199 1000 174 1000 l 446 1000 q 465 986 465 1000 q 438 967 465 971 l 410 963 q 368 948 379 958 q 350 908 357 938 l 154 61 q 41 -202 115 -106 q -124 -299 -33 -299 z "},"K":{"ha":693,"x_min":-50,"x_max":839,"o":"m -31 0 q -50 14 -50 0 q -22 33 -50 29 l 6 38 q 48 52 36 42 q 65 92 60 63 l 254 908 q 254 947 261 938 q 219 963 247 957 l 192 968 q 174 983 174 972 q 199 1000 174 1000 l 447 1000 q 468 985 468 1000 q 446 967 468 969 l 410 963 q 368 948 379 960 q 350 907 357 936 l 263 529 q 266 514 260 518 q 281 519 272 510 l 596 882 q 606 963 656 953 l 579 968 q 560 985 560 972 q 582 1000 560 1000 l 819 1000 q 839 986 839 1000 q 817 968 839 969 l 789 965 q 714 940 746 961 q 635 865 682 919 l 417 617 q 407 572 400 594 l 556 82 q 572 50 563 60 q 596 38 581 40 l 625 32 q 642 17 642 28 q 618 0 642 0 l 386 0 q 367 14 367 0 q 389 32 367 29 l 414 35 q 451 103 468 42 l 339 490 q 328 503 336 501 q 313 496 319 504 l 260 436 q 238 404 246 421 q 224 367 229 388 l 161 93 q 162 53 156 64 q 196 38 168 42 l 229 32 q 244 17 244 31 q 219 0 244 0 l -31 0 z "},"Ķ":{"ha":693,"x_min":-50,"x_max":839,"o":"m -31 0 q -50 14 -50 0 q -22 33 -50 29 l 6 38 q 48 52 36 42 q 65 92 60 63 l 254 908 q 254 947 261 938 q 219 963 247 957 l 192 968 q 174 983 174 972 q 199 1000 174 1000 l 447 1000 q 468 985 468 1000 q 446 967 468 969 l 410 963 q 368 948 379 960 q 350 907 357 936 l 263 529 q 266 514 260 518 q 281 519 272 510 l 596 882 q 606 963 656 953 l 579 968 q 560 985 560 972 q 582 1000 560 1000 l 819 1000 q 839 986 839 1000 q 817 968 839 969 l 789 965 q 714 940 746 961 q 635 865 682 919 l 417 617 q 407 572 400 594 l 556 82 q 572 50 563 60 q 596 38 581 40 l 625 32 q 642 17 642 28 q 618 0 642 0 l 386 0 q 367 14 367 0 q 389 32 367 29 l 414 35 q 451 103 468 42 l 339 490 q 328 503 336 501 q 313 496 319 504 l 260 436 q 238 404 246 421 q 224 367 229 388 l 161 93 q 162 53 156 64 q 196 38 168 42 l 229 32 q 244 17 244 31 q 219 0 244 0 l -31 0 m 271 -93 q 320 -115 301 -93 q 339 -174 339 -137 q 292 -302 339 -240 q 168 -408 246 -364 q 151 -414 160 -412 q 139 -410 143 -415 q 138 -396 133 -403 q 150 -383 143 -389 q 224 -320 201 -349 q 247 -261 247 -292 q 236 -228 247 -239 q 214 -203 225 -217 q 203 -162 203 -190 q 224 -112 203 -132 q 271 -93 244 -93 z "},"L":{"ha":575,"x_min":-50,"x_max":540,"o":"m -31 0 q -50 14 -50 0 q -22 33 -50 29 l 6 38 q 48 52 36 42 q 65 92 60 63 l 254 908 q 254 947 261 938 q 219 963 247 957 l 192 968 q 174 983 174 972 q 199 1000 174 1000 l 450 1000 q 467 983 471 1000 q 449 968 464 971 l 410 963 q 368 947 379 958 q 350 907 357 936 l 169 129 q 183 57 158 79 q 256 35 208 35 q 364 75 308 35 q 456 201 419 115 l 497 299 q 519 317 504 317 q 533 293 540 317 l 456 32 q 414 0 447 0 l -31 0 z "},"Ĺ":{"ha":575,"x_min":-50,"x_max":563,"o":"m -31 0 q -50 14 -50 0 q -22 33 -50 29 l 6 38 q 48 52 36 42 q 65 92 60 63 l 254 908 q 254 947 261 938 q 219 963 247 957 l 192 968 q 174 983 174 972 q 199 1000 174 1000 l 450 1000 q 467 983 471 1000 q 449 968 464 971 l 410 963 q 368 947 379 958 q 350 907 357 936 l 169 129 q 183 57 158 79 q 256 35 208 35 q 364 75 308 35 q 456 201 419 115 l 497 299 q 519 317 504 317 q 533 293 540 317 l 456 32 q 414 0 447 0 l -31 0 m 238 1104 q 206 1113 213 1094 q 224 1143 200 1126 l 442 1292 q 508 1319 481 1319 q 549 1306 536 1319 q 563 1272 563 1292 q 548 1236 563 1251 q 492 1204 533 1221 l 238 1104 z "},"Ľ":{"ha":575,"x_min":-50,"x_max":660,"o":"m -31 0 q -50 14 -50 0 q -22 33 -50 29 l 6 38 q 48 52 36 42 q 65 92 60 63 l 254 908 q 254 947 261 938 q 219 963 247 957 l 192 968 q 174 983 174 972 q 199 1000 174 1000 l 450 1000 q 467 983 471 1000 q 449 968 464 971 l 410 963 q 368 947 379 958 q 350 907 357 936 l 169 129 q 183 57 158 79 q 256 35 208 35 q 364 75 308 35 q 456 201 419 115 l 497 299 q 519 317 504 317 q 533 293 540 317 l 456 32 q 414 0 447 0 l -31 0 m 539 704 q 513 690 531 688 q 500 715 494 693 l 557 938 q 584 988 565 972 q 625 1000 603 1003 q 655 974 650 997 q 644 919 660 951 l 539 704 z "},"Ļ":{"ha":575,"x_min":-50,"x_max":540,"o":"m -31 0 q -50 14 -50 0 q -22 33 -50 29 l 6 38 q 48 52 36 42 q 65 92 60 63 l 254 908 q 254 947 261 938 q 219 963 247 957 l 192 968 q 174 983 174 972 q 199 1000 174 1000 l 450 1000 q 467 983 471 1000 q 449 968 464 971 l 410 963 q 368 947 379 958 q 350 907 357 936 l 169 129 q 183 57 158 79 q 256 35 208 35 q 364 75 308 35 q 456 201 419 115 l 497 299 q 519 317 504 317 q 533 293 540 317 l 456 32 q 414 0 447 0 l -31 0 m 169 -93 q 219 -115 200 -93 q 238 -174 238 -137 q 191 -302 238 -240 q 67 -408 144 -364 q 50 -414 58 -412 q 38 -410 42 -415 q 37 -396 32 -403 q 49 -383 42 -389 q 123 -320 100 -349 q 146 -261 146 -292 q 135 -228 146 -239 q 113 -203 124 -217 q 101 -162 101 -190 q 122 -112 101 -132 q 169 -93 143 -93 z "},"Ł":{"ha":575,"x_min":-50,"x_max":540,"o":"m -31 0 q -50 14 -50 0 q -22 33 -50 29 l 6 38 q 48 52 36 42 q 65 92 60 63 l 147 447 l 53 393 q 35 397 40 388 l 29 407 q 38 426 22 418 l 158 494 l 254 908 q 254 947 261 938 q 219 963 247 957 l 192 968 q 174 983 174 972 q 199 1000 174 1000 l 450 1000 q 467 983 471 1000 q 449 968 464 971 l 410 963 q 368 947 379 958 q 350 907 357 936 l 267 547 l 399 622 q 417 618 413 629 l 422 608 q 414 589 428 596 l 256 500 l 169 129 q 183 57 158 79 q 256 35 208 35 q 364 75 308 35 q 456 201 419 115 l 497 299 q 519 317 504 317 q 533 293 540 317 l 456 32 q 414 0 447 0 l -31 0 z "},"M":{"ha":924,"x_min":-60,"x_max":1022,"o":"m 360 14 q 347 18 353 14 q 342 36 342 22 l 328 883 q 322 893 328 893 q 313 885 315 893 l 108 119 q 108 60 99 81 q 150 35 117 40 l 167 32 q 183 17 183 31 q 157 0 183 0 l -39 0 q -60 14 -60 0 q -37 32 -60 29 l -18 35 q 38 60 19 40 q 65 119 56 81 l 275 908 q 275 947 282 938 q 238 963 268 957 l 214 967 q 192 985 192 971 q 217 1000 192 1000 l 383 1000 q 424 958 424 1000 l 432 268 q 438 258 432 258 q 449 265 444 257 l 785 965 q 838 1000 801 1000 l 1006 1000 q 1022 986 1022 1000 q 999 968 1022 972 l 965 963 q 924 947 935 957 q 906 908 913 938 l 744 92 q 745 53 739 63 q 779 38 751 43 l 803 33 q 821 27 817 32 q 825 17 825 22 q 800 0 825 0 l 553 0 q 533 14 533 0 q 556 32 533 28 l 589 38 q 631 53 619 43 q 649 92 643 63 l 806 879 q 801 891 808 889 q 790 885 794 893 l 385 36 q 373 18 379 22 q 360 14 367 14 z "},"N":{"ha":753,"x_min":-58,"x_max":878,"o":"m 519 -12 q 496 10 501 -12 l 293 838 q 286 844 292 844 q 278 838 281 844 l 113 119 q 112 60 103 81 q 154 35 121 40 l 171 32 q 186 15 189 31 q 161 0 182 0 l -37 0 q -54 15 -58 0 q -33 32 -51 31 l -14 35 q 42 60 24 40 q 69 119 60 81 l 251 908 q 251 947 258 938 q 214 963 244 957 l 183 968 q 169 985 165 972 q 193 1000 172 1000 l 328 1000 q 369 969 363 1000 l 544 250 q 553 240 547 240 q 561 250 560 240 l 707 881 q 707 942 718 925 q 672 964 696 960 l 649 968 q 635 985 631 972 q 658 1000 638 1000 l 857 1000 q 875 985 878 1000 q 853 968 869 969 l 833 965 q 778 942 796 960 q 750 881 761 925 l 551 18 q 519 -12 544 -12 z "},"Ń":{"ha":753,"x_min":-58,"x_max":878,"o":"m 519 -12 q 496 10 501 -12 l 293 838 q 286 844 292 844 q 278 838 281 844 l 113 119 q 112 60 103 81 q 154 35 121 40 l 171 32 q 186 15 189 31 q 161 0 182 0 l -37 0 q -54 15 -58 0 q -33 32 -51 31 l -14 35 q 42 60 24 40 q 69 119 60 81 l 251 908 q 251 947 258 938 q 214 963 244 957 l 183 968 q 169 985 165 972 q 193 1000 172 1000 l 328 1000 q 369 969 363 1000 l 544 250 q 553 240 547 240 q 561 250 560 240 l 707 881 q 707 942 718 925 q 672 964 696 960 l 649 968 q 635 985 631 972 q 658 1000 638 1000 l 857 1000 q 875 985 878 1000 q 853 968 869 969 l 833 965 q 778 942 796 960 q 750 881 761 925 l 551 18 q 519 -12 544 -12 m 446 1104 q 414 1113 421 1094 q 432 1143 408 1126 l 650 1292 q 717 1319 689 1319 q 758 1306 744 1319 q 771 1272 771 1292 q 756 1236 771 1251 q 700 1204 742 1221 l 446 1104 z "},"Ň":{"ha":753,"x_min":-58,"x_max":878,"o":"m 519 -12 q 496 10 501 -12 l 293 838 q 286 844 292 844 q 278 838 281 844 l 113 119 q 112 60 103 81 q 154 35 121 40 l 171 32 q 186 15 189 31 q 161 0 182 0 l -37 0 q -54 15 -58 0 q -33 32 -51 31 l -14 35 q 42 60 24 40 q 69 119 60 81 l 251 908 q 251 947 258 938 q 214 963 244 957 l 183 968 q 169 985 165 972 q 193 1000 172 1000 l 328 1000 q 369 969 363 1000 l 544 250 q 553 240 547 240 q 561 250 560 240 l 707 881 q 707 942 718 925 q 672 964 696 960 l 649 968 q 635 985 631 972 q 658 1000 638 1000 l 857 1000 q 875 985 878 1000 q 853 968 869 969 l 833 965 q 778 942 796 960 q 750 881 761 925 l 551 18 q 519 -12 544 -12 m 535 1099 q 504 1114 515 1099 l 382 1283 q 381 1306 374 1296 q 411 1304 390 1318 l 560 1189 l 774 1313 q 807 1313 796 1326 q 800 1283 818 1299 l 600 1114 q 561 1099 581 1099 l 535 1099 z "},"Ņ":{"ha":753,"x_min":-58,"x_max":878,"o":"m 519 -12 q 496 10 501 -12 l 293 838 q 286 844 292 844 q 278 838 281 844 l 113 119 q 112 60 103 81 q 154 35 121 40 l 171 32 q 186 15 189 31 q 161 0 182 0 l -37 0 q -54 15 -58 0 q -33 32 -51 31 l -14 35 q 42 60 24 40 q 69 119 60 81 l 251 908 q 251 947 258 938 q 214 963 244 957 l 183 968 q 169 985 165 972 q 193 1000 172 1000 l 328 1000 q 369 969 363 1000 l 544 250 q 553 240 547 240 q 561 250 560 240 l 707 881 q 707 942 718 925 q 672 964 696 960 l 649 968 q 635 985 631 972 q 658 1000 638 1000 l 857 1000 q 875 985 878 1000 q 853 968 869 969 l 833 965 q 778 942 796 960 q 750 881 761 925 l 551 18 q 519 -12 544 -12 m 258 -93 q 308 -115 289 -93 q 326 -174 326 -137 q 280 -302 326 -240 q 156 -408 233 -364 q 139 -414 147 -412 q 126 -410 131 -415 q 126 -396 121 -403 q 138 -383 131 -389 q 212 -320 189 -349 q 235 -261 235 -292 q 224 -228 235 -239 q 201 -203 213 -217 q 190 -162 190 -190 q 211 -112 190 -132 q 258 -93 232 -93 z "},"Ñ":{"ha":753,"x_min":-58,"x_max":878,"o":"m 519 -12 q 496 10 501 -12 l 293 838 q 286 844 292 844 q 278 838 281 844 l 113 119 q 112 60 103 81 q 154 35 121 40 l 171 32 q 186 15 189 31 q 161 0 182 0 l -37 0 q -54 15 -58 0 q -33 32 -51 31 l -14 35 q 42 60 24 40 q 69 119 60 81 l 251 908 q 251 947 258 938 q 214 963 244 957 l 183 968 q 169 985 165 972 q 193 1000 172 1000 l 328 1000 q 369 969 363 1000 l 544 250 q 553 240 547 240 q 561 250 560 240 l 707 881 q 707 942 718 925 q 672 964 696 960 l 649 968 q 635 985 631 972 q 658 1000 638 1000 l 857 1000 q 875 985 878 1000 q 853 968 869 969 l 833 965 q 778 942 796 960 q 750 881 761 925 l 551 18 q 519 -12 544 -12 m 654 1121 q 601 1135 624 1121 q 560 1166 579 1149 q 521 1197 542 1183 q 471 1211 500 1211 q 409 1194 433 1211 q 365 1140 385 1176 q 343 1124 357 1124 q 332 1129 336 1124 q 332 1144 328 1135 q 398 1252 361 1215 q 490 1289 435 1289 q 545 1275 522 1289 q 587 1244 568 1261 q 626 1213 606 1226 q 674 1199 646 1199 q 735 1216 711 1199 q 778 1269 758 1233 q 800 1286 786 1286 q 813 1281 808 1286 q 813 1265 817 1275 q 746 1158 782 1194 q 654 1121 710 1121 z "},"Ŋ":{"ha":753,"x_min":-58,"x_max":878,"o":"m 335 -299 q 260 -272 286 -299 q 235 -206 235 -244 q 250 -162 235 -176 q 283 -147 265 -147 q 319 -165 310 -147 q 329 -204 328 -182 q 336 -244 331 -226 q 361 -261 342 -261 q 390 -243 376 -261 q 418 -158 403 -225 l 472 79 q 472 104 475 92 l 293 838 q 286 844 292 844 q 278 838 281 844 l 113 119 q 112 60 103 81 q 154 35 121 40 l 171 32 q 186 15 189 31 q 161 0 182 0 l -37 0 q -54 15 -58 0 q -33 32 -51 31 l -14 35 q 42 60 24 40 q 69 119 60 81 l 251 908 q 251 947 258 938 q 214 963 244 957 l 183 968 q 169 985 165 972 q 193 1000 172 1000 l 328 1000 q 369 969 363 1000 l 544 250 q 553 240 547 240 q 561 250 560 240 l 707 881 q 707 942 718 925 q 672 964 696 960 l 649 968 q 635 985 631 972 q 658 1000 638 1000 l 857 1000 q 875 985 878 1000 q 853 968 869 969 l 833 965 q 778 942 796 960 q 750 881 761 925 l 536 -51 q 456 -233 510 -167 q 335 -299 403 -299 z "},"O":{"ha":750,"x_min":75,"x_max":743,"o":"m 310 -12 q 138 76 201 -12 q 75 338 75 165 q 99 539 75 440 q 164 723 122 638 q 260 874 206 808 q 378 977 315 940 q 508 1014 442 1014 q 680 926 617 1014 q 743 664 743 838 q 719 463 743 561 q 654 278 696 364 q 558 127 613 193 q 440 24 503 61 q 310 -12 376 -12 m 307 24 q 408 65 358 24 q 501 177 457 106 q 578 342 544 249 q 630 542 611 436 q 649 756 649 647 q 511 978 649 978 q 410 937 460 978 q 317 824 361 896 q 240 659 274 753 q 188 460 207 565 q 169 246 169 354 q 307 24 169 24 z "},"Ó":{"ha":750,"x_min":75,"x_max":769,"o":"m 310 -12 q 138 76 201 -12 q 75 338 75 165 q 99 539 75 440 q 164 723 122 638 q 260 874 206 808 q 378 977 315 940 q 508 1014 442 1014 q 680 926 617 1014 q 743 664 743 838 q 719 463 743 561 q 654 278 696 364 q 558 127 613 193 q 440 24 503 61 q 310 -12 376 -12 m 307 24 q 408 65 358 24 q 501 177 457 106 q 578 342 544 249 q 630 542 611 436 q 649 756 649 647 q 511 978 649 978 q 410 937 460 978 q 317 824 361 896 q 240 659 274 753 q 188 460 207 565 q 169 246 169 354 q 307 24 169 24 m 444 1104 q 413 1113 419 1094 q 431 1143 407 1126 l 649 1292 q 715 1319 688 1319 q 756 1306 743 1319 q 769 1272 769 1292 q 755 1236 769 1251 q 699 1204 740 1221 l 444 1104 z "},"Ô":{"ha":750,"x_min":75,"x_max":771,"o":"m 310 -12 q 138 76 201 -12 q 75 338 75 165 q 99 539 75 440 q 164 723 122 638 q 260 874 206 808 q 378 977 315 940 q 508 1014 442 1014 q 680 926 617 1014 q 743 664 743 838 q 719 463 743 561 q 654 278 696 364 q 558 127 613 193 q 440 24 503 61 q 310 -12 376 -12 m 307 24 q 408 65 358 24 q 501 177 457 106 q 578 342 544 249 q 630 542 611 436 q 649 756 649 647 q 511 978 649 978 q 410 937 460 978 q 317 824 361 896 q 240 659 274 753 q 188 460 207 565 q 169 246 169 354 q 307 24 169 24 m 371 1106 q 338 1106 349 1092 q 344 1135 326 1119 l 544 1304 q 583 1319 564 1319 l 610 1319 q 640 1304 629 1319 l 763 1135 q 764 1113 771 1122 q 735 1114 754 1100 l 586 1229 l 371 1106 z "},"Ö":{"ha":750,"x_min":75,"x_max":771,"o":"m 310 -12 q 138 76 201 -12 q 75 338 75 165 q 99 539 75 440 q 164 723 122 638 q 260 874 206 808 q 378 977 315 940 q 508 1014 442 1014 q 680 926 617 1014 q 743 664 743 838 q 719 463 743 561 q 654 278 696 364 q 558 127 613 193 q 440 24 503 61 q 310 -12 376 -12 m 307 24 q 408 65 358 24 q 501 177 457 106 q 578 342 544 249 q 630 542 611 436 q 649 756 649 647 q 511 978 649 978 q 410 937 460 978 q 317 824 361 896 q 240 659 274 753 q 188 460 207 565 q 169 246 169 354 q 307 24 169 24 m 432 1132 q 388 1151 404 1132 q 371 1196 371 1169 q 393 1251 371 1231 q 444 1272 415 1272 q 489 1254 472 1272 q 506 1208 506 1236 q 483 1153 506 1174 q 432 1132 461 1132 m 697 1132 q 653 1151 669 1132 q 636 1196 636 1169 q 658 1251 636 1231 q 710 1272 681 1272 q 754 1254 738 1272 q 771 1208 771 1236 q 749 1153 771 1174 q 697 1132 726 1132 z "},"Ò":{"ha":750,"x_min":75,"x_max":743,"o":"m 310 -12 q 138 76 201 -12 q 75 338 75 165 q 99 539 75 440 q 164 723 122 638 q 260 874 206 808 q 378 977 315 940 q 508 1014 442 1014 q 680 926 617 1014 q 743 664 743 838 q 719 463 743 561 q 654 278 696 364 q 558 127 613 193 q 440 24 503 61 q 310 -12 376 -12 m 307 24 q 408 65 358 24 q 501 177 457 106 q 578 342 544 249 q 630 542 611 436 q 649 756 649 647 q 511 978 649 978 q 410 937 460 978 q 317 824 361 896 q 240 659 274 753 q 188 460 207 565 q 169 246 169 354 q 307 24 169 24 m 649 1103 l 453 1210 q 397 1274 397 1239 q 413 1306 397 1293 q 450 1319 428 1319 q 483 1313 469 1319 q 514 1290 496 1307 l 676 1136 q 688 1115 688 1125 q 676 1098 688 1103 q 649 1103 665 1093 z "},"Ő":{"ha":750,"x_min":75,"x_max":785,"o":"m 310 -12 q 138 76 201 -12 q 75 338 75 165 q 99 539 75 440 q 164 723 122 638 q 260 874 206 808 q 378 977 315 940 q 508 1014 442 1014 q 680 926 617 1014 q 743 664 743 838 q 719 463 743 561 q 654 278 696 364 q 558 127 613 193 q 440 24 503 61 q 310 -12 376 -12 m 307 24 q 408 65 358 24 q 501 177 457 106 q 578 342 544 249 q 630 542 611 436 q 649 756 649 647 q 511 978 649 978 q 410 937 460 978 q 317 824 361 896 q 240 659 274 753 q 188 460 207 565 q 169 246 169 354 q 307 24 169 24 m 388 1110 q 356 1108 369 1094 q 361 1140 346 1118 l 463 1278 q 494 1310 481 1301 q 526 1319 508 1319 q 562 1306 550 1319 q 574 1275 574 1292 q 524 1210 574 1246 l 388 1110 m 599 1110 q 567 1108 581 1094 q 572 1140 557 1118 l 674 1278 q 706 1310 692 1301 q 738 1319 719 1319 q 773 1306 761 1319 q 785 1275 785 1292 q 735 1210 785 1246 l 599 1110 z "},"Ō":{"ha":750,"x_min":75,"x_max":778,"o":"m 310 -12 q 138 76 201 -12 q 75 338 75 165 q 99 539 75 440 q 164 723 122 638 q 260 874 206 808 q 378 977 315 940 q 508 1014 442 1014 q 680 926 617 1014 q 743 664 743 838 q 719 463 743 561 q 654 278 696 364 q 558 127 613 193 q 440 24 503 61 q 310 -12 376 -12 m 307 24 q 408 65 358 24 q 501 177 457 106 q 578 342 544 249 q 630 542 611 436 q 649 756 649 647 q 511 978 649 978 q 410 937 460 978 q 317 824 361 896 q 240 659 274 753 q 188 460 207 565 q 169 246 169 354 q 307 24 169 24 m 381 1175 q 367 1192 364 1175 l 371 1213 q 392 1229 374 1229 l 763 1229 q 775 1213 778 1229 l 771 1192 q 750 1175 768 1175 l 381 1175 z "},"Ø":{"ha":750,"x_min":35,"x_max":783,"o":"m 53 -83 q 44 -67 35 -83 l 135 82 q 90 190 106 126 q 75 338 75 254 q 99 539 75 440 q 164 723 122 638 q 260 874 206 808 q 378 977 315 940 q 508 1014 442 1014 q 658 953 600 1014 l 731 1072 q 747 1083 736 1083 l 765 1083 q 774 1067 783 1083 l 685 918 q 728 811 713 875 q 743 664 743 747 q 719 463 743 561 q 654 278 696 364 q 558 127 613 193 q 440 24 503 61 q 310 -12 376 -12 q 160 49 218 -12 l 88 -72 q 71 -83 82 -83 l 53 -83 m 169 246 q 178 154 169 193 l 626 899 q 511 978 593 978 q 410 937 460 978 q 317 824 361 896 q 240 659 274 753 q 188 460 207 565 q 169 246 169 354 m 307 24 q 408 65 358 24 q 501 177 457 106 q 578 342 544 249 q 630 542 611 436 q 649 756 649 647 q 642 847 649 807 l 193 101 q 307 24 226 24 z "},"Õ":{"ha":750,"x_min":75,"x_max":815,"o":"m 310 -12 q 138 76 201 -12 q 75 338 75 165 q 99 539 75 440 q 164 723 122 638 q 260 874 206 808 q 378 977 315 940 q 508 1014 442 1014 q 680 926 617 1014 q 743 664 743 838 q 719 463 743 561 q 654 278 696 364 q 558 127 613 193 q 440 24 503 61 q 310 -12 376 -12 m 307 24 q 408 65 358 24 q 501 177 457 106 q 578 342 544 249 q 630 542 611 436 q 649 756 649 647 q 511 978 649 978 q 410 937 460 978 q 317 824 361 896 q 240 659 274 753 q 188 460 207 565 q 169 246 169 354 q 307 24 169 24 m 653 1121 q 600 1135 622 1121 q 559 1166 578 1149 q 519 1197 540 1183 q 469 1211 499 1211 q 408 1194 432 1211 q 364 1140 383 1176 q 342 1124 356 1124 q 331 1129 335 1124 q 331 1144 326 1135 q 397 1252 360 1215 q 489 1289 433 1289 q 544 1275 521 1289 q 585 1244 567 1261 q 624 1213 604 1226 q 672 1199 644 1199 q 733 1216 710 1199 q 776 1269 757 1233 q 799 1286 785 1286 q 811 1281 807 1286 q 811 1265 815 1275 q 744 1158 781 1194 q 653 1121 708 1121 z "},"Œ":{"ha":1054,"x_min":72,"x_max":1121,"o":"m 303 -12 q 132 79 192 -12 q 72 325 72 171 q 92 510 72 414 q 149 695 111 606 q 244 856 188 785 q 375 970 301 928 q 539 1013 449 1013 q 615 1006 581 1013 q 696 1000 649 1000 l 1086 1000 q 1114 968 1121 1000 l 1072 738 q 1050 714 1068 714 q 1033 732 1033 714 l 1036 783 q 1009 917 1040 868 q 885 965 978 965 q 804 949 829 965 q 769 893 779 933 l 693 558 q 708 539 689 539 l 778 539 q 867 604 838 539 l 899 674 q 919 692 907 692 q 935 668 940 692 l 863 356 q 839 332 858 332 q 822 350 822 332 l 824 418 q 812 482 825 467 q 767 497 799 497 l 699 497 q 674 478 678 497 l 593 129 q 604 56 582 78 q 692 35 626 35 q 819 70 761 35 q 918 203 876 106 l 953 285 q 975 303 960 303 q 987 297 982 303 q 989 279 992 290 l 918 32 q 876 0 910 0 l 465 0 q 381 -6 418 0 q 303 -12 344 -12 m 317 25 q 437 59 386 25 q 503 161 488 93 l 658 839 q 645 938 672 900 q 536 975 618 975 q 415 938 469 975 q 320 839 361 901 q 250 698 279 776 q 203 538 221 619 q 176 378 185 456 q 167 242 167 301 q 203 83 167 140 q 317 25 240 25 z "},"P":{"ha":651,"x_min":-50,"x_max":707,"o":"m -31 0 q -50 14 -50 0 q -22 33 -50 29 l 6 38 q 48 52 36 42 q 65 92 60 63 l 254 908 q 256 944 260 932 q 219 963 251 957 l 192 968 q 174 983 174 972 q 199 1000 174 1000 l 469 1000 q 646 938 585 1000 q 707 781 707 875 q 662 619 707 693 q 537 499 617 544 q 350 453 457 453 l 268 453 q 239 429 246 453 l 161 97 q 165 56 154 67 q 210 40 175 44 l 276 32 q 289 18 289 31 q 264 0 289 0 l -31 0 m 271 564 q 278 508 263 528 q 346 488 294 488 q 465 517 415 488 q 545 592 514 546 q 591 692 576 639 q 606 794 606 746 q 565 918 606 871 q 447 965 525 965 q 350 910 363 965 l 271 564 z "},"Þ":{"ha":651,"x_min":-50,"x_max":663,"o":"m -31 0 q -50 14 -50 0 q -22 33 -50 29 l 6 38 q 48 52 36 42 q 65 92 60 63 l 254 908 q 254 947 261 938 q 219 963 247 957 l 192 968 q 174 983 174 972 q 199 1000 174 1000 l 479 1000 q 499 986 499 1000 q 471 967 499 971 l 410 958 q 367 943 379 954 q 350 908 356 932 l 331 825 q 349 804 326 804 l 425 804 q 601 742 540 804 q 663 585 663 679 q 617 423 663 497 q 492 303 572 349 q 306 257 413 257 l 224 257 q 194 233 201 257 l 161 92 q 162 58 156 68 q 196 43 168 49 l 257 32 q 275 17 275 28 q 250 0 275 0 l -31 0 m 301 292 q 420 321 371 292 q 501 397 469 350 q 547 497 532 443 q 561 599 561 550 q 521 722 561 675 q 403 769 481 769 q 306 714 318 769 l 226 368 q 234 312 218 332 q 301 292 250 292 z "},"Q":{"ha":751,"x_min":-44,"x_max":743,"o":"m 375 -299 q 299 -281 329 -299 q 249 -237 269 -262 q 212 -185 228 -211 q 180 -140 196 -158 q 142 -122 164 -122 q 99 -136 118 -122 q 65 -168 81 -150 q 31 -200 49 -186 q -11 -214 13 -214 q -44 -182 -44 -214 q -17 -135 -44 -158 q 69 -97 10 -112 l 232 -25 q 245 -11 246 -18 q 231 1 244 -4 q 117 114 158 29 q 75 338 75 199 q 99 539 75 440 q 164 723 122 638 q 260 874 206 808 q 378 977 315 940 q 508 1014 442 1014 q 680 926 617 1014 q 743 664 743 838 q 717 453 743 557 q 647 262 692 350 q 542 109 601 174 q 414 13 482 44 q 361 -9 385 -1 q 307 -32 338 -17 l 224 -71 q 212 -85 211 -76 q 226 -99 213 -93 q 295 -138 264 -114 q 358 -181 326 -162 q 425 -199 389 -199 q 496 -172 465 -199 q 549 -74 526 -144 q 568 -56 554 -56 q 582 -81 586 -56 q 506 -239 563 -179 q 375 -299 450 -299 m 307 24 q 408 65 358 24 q 501 177 457 106 q 578 342 544 249 q 630 542 611 436 q 649 756 649 647 q 511 978 649 978 q 410 937 460 978 q 317 824 361 896 q 240 659 274 753 q 188 460 207 565 q 169 246 169 354 q 307 24 169 24 z "},"R":{"ha":729,"x_min":-50,"x_max":725,"o":"m 558 -12 q 463 29 500 -12 q 428 146 426 71 l 429 300 q 421 414 431 375 q 385 467 411 453 q 307 481 358 481 q 262 469 276 481 q 242 435 247 458 l 161 97 q 163 57 154 68 q 206 40 171 46 l 267 32 q 286 17 286 31 q 264 0 286 0 l -31 0 q -50 14 -50 0 q -22 33 -50 29 l 6 38 q 48 52 36 42 q 65 92 60 63 l 254 908 q 254 947 261 938 q 219 963 247 957 l 192 968 q 174 983 174 972 q 199 1000 174 1000 l 481 1000 q 617 971 563 1000 q 698 893 671 942 q 725 786 725 844 q 688 653 725 713 q 590 552 650 593 q 460 492 529 511 q 451 484 451 490 q 458 474 450 478 q 511 415 497 453 q 525 315 525 378 l 525 174 q 542 69 525 97 q 588 40 558 40 q 607 44 599 40 q 629 57 615 47 q 649 63 640 67 q 658 47 658 58 q 629 8 658 28 q 558 -12 600 -12 m 356 515 q 486 553 425 515 q 585 654 547 590 q 624 797 624 718 q 585 920 624 875 q 453 965 547 965 q 350 910 364 965 l 276 592 q 356 515 258 515 z "},"Ŕ":{"ha":729,"x_min":-50,"x_max":746,"o":"m 558 -12 q 463 29 500 -12 q 428 146 426 71 l 429 300 q 421 414 431 375 q 385 467 411 453 q 307 481 358 481 q 262 469 276 481 q 242 435 247 458 l 161 97 q 163 57 154 68 q 206 40 171 46 l 267 32 q 286 17 286 31 q 264 0 286 0 l -31 0 q -50 14 -50 0 q -22 33 -50 29 l 6 38 q 48 52 36 42 q 65 92 60 63 l 254 908 q 254 947 261 938 q 219 963 247 957 l 192 968 q 174 983 174 972 q 199 1000 174 1000 l 481 1000 q 617 971 563 1000 q 698 893 671 942 q 725 786 725 844 q 688 653 725 713 q 590 552 650 593 q 460 492 529 511 q 451 484 451 490 q 458 474 450 478 q 511 415 497 453 q 525 315 525 378 l 525 174 q 542 69 525 97 q 588 40 558 40 q 607 44 599 40 q 629 57 615 47 q 649 63 640 67 q 658 47 658 58 q 629 8 658 28 q 558 -12 600 -12 m 356 515 q 486 553 425 515 q 585 654 547 590 q 624 797 624 718 q 585 920 624 875 q 453 965 547 965 q 350 910 364 965 l 276 592 q 356 515 258 515 m 421 1104 q 389 1113 396 1094 q 407 1143 383 1126 l 625 1292 q 692 1319 664 1319 q 733 1306 719 1319 q 746 1272 746 1292 q 731 1236 746 1251 q 675 1204 717 1221 l 421 1104 z "},"Ř":{"ha":729,"x_min":-50,"x_max":793,"o":"m 558 -12 q 463 29 500 -12 q 428 146 426 71 l 429 300 q 421 414 431 375 q 385 467 411 453 q 307 481 358 481 q 262 469 276 481 q 242 435 247 458 l 161 97 q 163 57 154 68 q 206 40 171 46 l 267 32 q 286 17 286 31 q 264 0 286 0 l -31 0 q -50 14 -50 0 q -22 33 -50 29 l 6 38 q 48 52 36 42 q 65 92 60 63 l 254 908 q 254 947 261 938 q 219 963 247 957 l 192 968 q 174 983 174 972 q 199 1000 174 1000 l 481 1000 q 617 971 563 1000 q 698 893 671 942 q 725 786 725 844 q 688 653 725 713 q 590 552 650 593 q 460 492 529 511 q 451 484 451 490 q 458 474 450 478 q 511 415 497 453 q 525 315 525 378 l 525 174 q 542 69 525 97 q 588 40 558 40 q 607 44 599 40 q 629 57 615 47 q 649 63 640 67 q 658 47 658 58 q 629 8 658 28 q 558 -12 600 -12 m 356 515 q 486 553 425 515 q 585 654 547 590 q 624 797 624 718 q 585 920 624 875 q 453 965 547 965 q 350 910 364 965 l 276 592 q 356 515 258 515 m 510 1099 q 479 1114 490 1099 l 357 1283 q 356 1306 349 1296 q 386 1304 365 1318 l 535 1189 l 749 1313 q 782 1313 771 1326 q 775 1283 793 1299 l 575 1114 q 536 1099 556 1099 l 510 1099 z "},"Ŗ":{"ha":729,"x_min":-50,"x_max":725,"o":"m 558 -12 q 463 29 500 -12 q 428 146 426 71 l 429 300 q 421 414 431 375 q 385 467 411 453 q 307 481 358 481 q 262 469 276 481 q 242 435 247 458 l 161 97 q 163 57 154 68 q 206 40 171 46 l 267 32 q 286 17 286 31 q 264 0 286 0 l -31 0 q -50 14 -50 0 q -22 33 -50 29 l 6 38 q 48 52 36 42 q 65 92 60 63 l 254 908 q 254 947 261 938 q 219 963 247 957 l 192 968 q 174 983 174 972 q 199 1000 174 1000 l 481 1000 q 617 971 563 1000 q 698 893 671 942 q 725 786 725 844 q 688 653 725 713 q 590 552 650 593 q 460 492 529 511 q 451 484 451 490 q 458 474 450 478 q 511 415 497 453 q 525 315 525 378 l 525 174 q 542 69 525 97 q 588 40 558 40 q 607 44 599 40 q 629 57 615 47 q 649 63 640 67 q 658 47 658 58 q 629 8 658 28 q 558 -12 600 -12 m 356 515 q 486 553 425 515 q 585 654 547 590 q 624 797 624 718 q 585 920 624 875 q 453 965 547 965 q 350 910 364 965 l 276 592 q 356 515 258 515 m 275 -93 q 324 -115 306 -93 q 343 -174 343 -137 q 297 -302 343 -240 q 172 -408 250 -364 q 156 -414 164 -412 q 143 -410 147 -415 q 142 -396 138 -403 q 154 -383 147 -389 q 228 -320 206 -349 q 251 -261 251 -292 q 240 -228 251 -239 q 218 -203 229 -217 q 207 -162 207 -190 q 228 -112 207 -132 q 275 -93 249 -93 z "},"S":{"ha":589,"x_min":4,"x_max":624,"o":"m 240 -12 q 158 -4 201 -12 q 76 19 114 4 q 15 53 38 33 q 6 67 8 60 q 7 88 4 74 l 46 306 q 68 331 50 331 q 85 303 85 331 l 86 249 q 126 81 89 132 q 249 29 164 29 q 378 85 326 29 q 429 236 429 142 q 396 364 429 297 q 303 497 363 431 q 198 642 232 576 q 164 779 164 707 q 192 890 164 836 q 276 978 219 943 q 419 1014 332 1014 q 604 960 540 1014 q 618 914 624 944 l 579 711 q 560 690 575 690 q 542 714 544 690 l 540 743 q 509 915 535 856 q 407 974 483 974 q 318 949 351 974 q 269 887 285 924 q 254 814 254 850 q 265 737 254 774 q 303 659 276 700 q 378 560 331 618 q 482 408 444 481 q 519 268 519 336 q 483 123 519 186 q 383 24 446 60 q 240 -12 321 -12 z "},"Ś":{"ha":589,"x_min":4,"x_max":675,"o":"m 240 -12 q 158 -4 201 -12 q 76 19 114 4 q 15 53 38 33 q 6 67 8 60 q 7 88 4 74 l 46 306 q 68 331 50 331 q 85 303 85 331 l 86 249 q 126 81 89 132 q 249 29 164 29 q 378 85 326 29 q 429 236 429 142 q 396 364 429 297 q 303 497 363 431 q 198 642 232 576 q 164 779 164 707 q 192 890 164 836 q 276 978 219 943 q 419 1014 332 1014 q 604 960 540 1014 q 618 914 624 944 l 579 711 q 560 690 575 690 q 542 714 544 690 l 540 743 q 509 915 535 856 q 407 974 483 974 q 318 949 351 974 q 269 887 285 924 q 254 814 254 850 q 265 737 254 774 q 303 659 276 700 q 378 560 331 618 q 482 408 444 481 q 519 268 519 336 q 483 123 519 186 q 383 24 446 60 q 240 -12 321 -12 m 350 1104 q 318 1113 325 1094 q 336 1143 313 1126 l 554 1292 q 621 1319 593 1319 q 662 1306 649 1319 q 675 1272 675 1292 q 660 1236 675 1251 q 604 1204 646 1221 l 350 1104 z "},"Š":{"ha":589,"x_min":4,"x_max":722,"o":"m 240 -12 q 158 -4 201 -12 q 76 19 114 4 q 15 53 38 33 q 6 67 8 60 q 7 88 4 74 l 46 306 q 68 331 50 331 q 85 303 85 331 l 86 249 q 126 81 89 132 q 249 29 164 29 q 378 85 326 29 q 429 236 429 142 q 396 364 429 297 q 303 497 363 431 q 198 642 232 576 q 164 779 164 707 q 192 890 164 836 q 276 978 219 943 q 419 1014 332 1014 q 604 960 540 1014 q 618 914 624 944 l 579 711 q 560 690 575 690 q 542 714 544 690 l 540 743 q 509 915 535 856 q 407 974 483 974 q 318 949 351 974 q 269 887 285 924 q 254 814 254 850 q 265 737 254 774 q 303 659 276 700 q 378 560 331 618 q 482 408 444 481 q 519 268 519 336 q 483 123 519 186 q 383 24 446 60 q 240 -12 321 -12 m 439 1099 q 408 1114 419 1099 l 286 1283 q 285 1306 278 1296 q 315 1304 294 1318 l 464 1189 l 678 1313 q 711 1313 700 1326 q 704 1283 722 1299 l 504 1114 q 465 1099 485 1099 l 439 1099 z "},"Ş":{"ha":589,"x_min":4,"x_max":624,"o":"m 240 -12 q 158 -4 201 -12 q 76 19 114 4 q 15 53 38 33 q 6 67 8 60 q 7 88 4 74 l 46 306 q 68 331 50 331 q 85 303 85 331 l 86 249 q 126 81 89 132 q 249 29 164 29 q 378 85 326 29 q 429 236 429 142 q 396 364 429 297 q 303 497 363 431 q 198 642 232 576 q 164 779 164 707 q 192 890 164 836 q 276 978 219 943 q 419 1014 332 1014 q 604 960 540 1014 q 618 914 624 944 l 579 711 q 560 690 575 690 q 542 714 544 690 l 540 743 q 509 915 535 856 q 407 974 483 974 q 318 949 351 974 q 269 887 285 924 q 254 814 254 850 q 265 737 254 774 q 303 659 276 700 q 378 560 331 618 q 482 408 444 481 q 519 268 519 336 q 483 123 519 186 q 383 24 446 60 q 240 -12 321 -12 m 258 18 l 225 -60 q 229 -71 221 -68 q 290 -109 268 -83 q 311 -171 311 -135 q 264 -265 311 -231 q 156 -299 217 -299 q 78 -277 107 -299 q 49 -224 49 -256 q 59 -194 49 -206 q 88 -182 69 -182 q 113 -195 108 -182 q 120 -226 118 -208 q 131 -258 122 -244 q 165 -271 139 -271 q 226 -243 206 -271 q 246 -185 246 -215 q 185 -117 246 -129 q 176 -99 171 -114 l 225 18 l 258 18 z "},"Ș":{"ha":589,"x_min":4,"x_max":624,"o":"m 240 -12 q 158 -4 201 -12 q 76 19 114 4 q 15 53 38 33 q 6 67 8 60 q 7 88 4 74 l 46 306 q 68 331 50 331 q 85 303 85 331 l 86 249 q 126 81 89 132 q 249 29 164 29 q 378 85 326 29 q 429 236 429 142 q 396 364 429 297 q 303 497 363 431 q 198 642 232 576 q 164 779 164 707 q 192 890 164 836 q 276 978 219 943 q 419 1014 332 1014 q 604 960 540 1014 q 618 914 624 944 l 579 711 q 560 690 575 690 q 542 714 544 690 l 540 743 q 509 915 535 856 q 407 974 483 974 q 318 949 351 974 q 269 887 285 924 q 254 814 254 850 q 265 737 254 774 q 303 659 276 700 q 378 560 331 618 q 482 408 444 481 q 519 268 519 336 q 483 123 519 186 q 383 24 446 60 q 240 -12 321 -12 m 190 -93 q 240 -115 221 -93 q 258 -174 258 -137 q 212 -302 258 -240 q 88 -408 165 -364 q 71 -414 79 -412 q 58 -410 63 -415 q 58 -396 53 -403 q 69 -383 63 -389 q 144 -320 121 -349 q 167 -261 167 -292 q 156 -228 167 -239 q 133 -203 144 -217 q 122 -162 122 -190 q 143 -112 122 -132 q 190 -93 164 -93 z "},"ẞ":{"ha":747,"x_min":-50,"x_max":799,"o":"m 428 -12 q 319 6 368 -12 q 238 53 271 24 q 228 67 231 60 q 229 88 226 74 l 265 264 q 289 289 269 289 q 307 261 306 289 l 311 207 q 345 76 318 122 q 436 29 372 29 q 543 82 504 29 q 582 208 582 135 q 547 360 582 290 q 456 497 513 429 l 433 524 l 706 796 q 646 924 689 875 q 533 974 603 974 q 395 912 454 974 q 304 710 336 850 l 146 25 q 114 0 140 0 l -31 0 q -50 14 -50 0 q -22 33 -50 29 l 6 38 q 47 52 36 42 q 65 92 58 63 l 204 688 q 269 857 226 783 q 378 972 311 931 q 542 1014 446 1014 q 697 969 635 1014 q 799 829 760 924 l 531 561 q 635 406 597 482 q 672 240 672 329 q 642 115 672 172 q 556 22 611 57 q 428 -12 501 -12 z "},"T":{"ha":640,"x_min":71,"x_max":764,"o":"m 90 0 q 71 14 71 0 q 93 32 71 28 l 151 42 q 193 56 179 46 q 213 96 207 67 l 406 929 q 402 957 410 949 q 368 965 394 965 q 265 927 321 965 q 164 785 208 889 l 142 732 q 118 714 135 714 q 106 738 99 714 l 175 989 q 206 1021 183 1021 q 226 1016 218 1021 q 251 1006 233 1011 q 314 1000 269 1000 l 624 1000 q 690 1006 668 1000 q 722 1016 711 1011 q 740 1021 732 1021 q 757 989 764 1021 l 713 738 q 689 714 708 714 q 674 732 671 714 l 676 767 q 650 917 685 869 q 553 965 615 965 q 516 957 526 965 q 501 929 506 949 l 308 96 q 310 56 301 67 q 346 42 319 46 l 411 32 q 426 17 426 31 q 404 0 426 0 l 90 0 z "},"Ť":{"ha":640,"x_min":71,"x_max":764,"o":"m 90 0 q 71 14 71 0 q 93 32 71 28 l 151 42 q 193 56 179 46 q 213 96 207 67 l 406 929 q 402 957 410 949 q 368 965 394 965 q 265 927 321 965 q 164 785 208 889 l 142 732 q 118 714 135 714 q 106 738 99 714 l 175 989 q 206 1021 183 1021 q 226 1016 218 1021 q 251 1006 233 1011 q 314 1000 269 1000 l 624 1000 q 690 1006 668 1000 q 722 1016 711 1011 q 740 1021 732 1021 q 757 989 764 1021 l 713 738 q 689 714 708 714 q 674 732 671 714 l 676 767 q 650 917 685 869 q 553 965 615 965 q 516 957 526 965 q 501 929 506 949 l 308 96 q 310 56 301 67 q 346 42 319 46 l 411 32 q 426 17 426 31 q 404 0 426 0 l 90 0 m 479 1099 q 449 1114 460 1099 l 326 1283 q 325 1306 318 1296 q 356 1304 335 1318 l 504 1189 l 718 1313 q 751 1313 740 1326 q 744 1283 763 1299 l 544 1114 q 506 1099 525 1099 l 479 1099 z "},"Ț":{"ha":640,"x_min":65,"x_max":764,"o":"m 90 0 q 71 14 71 0 q 93 32 71 28 l 151 42 q 193 56 179 46 q 213 96 207 67 l 406 929 q 402 957 410 949 q 368 965 394 965 q 265 927 321 965 q 164 785 208 889 l 142 732 q 118 714 135 714 q 106 738 99 714 l 175 989 q 206 1021 183 1021 q 226 1016 218 1021 q 251 1006 233 1011 q 314 1000 269 1000 l 624 1000 q 690 1006 668 1000 q 722 1016 711 1011 q 740 1021 732 1021 q 757 989 764 1021 l 713 738 q 689 714 708 714 q 674 732 671 714 l 676 767 q 650 917 685 869 q 553 965 615 965 q 516 957 526 965 q 501 929 506 949 l 308 96 q 310 56 301 67 q 346 42 319 46 l 411 32 q 426 17 426 31 q 404 0 426 0 l 90 0 m 203 -93 q 252 -115 233 -93 q 271 -174 271 -137 q 224 -302 271 -240 q 100 -408 178 -364 q 83 -414 92 -412 q 71 -410 75 -415 q 70 -396 65 -403 q 82 -383 75 -389 q 156 -320 133 -349 q 179 -261 179 -292 q 168 -228 179 -239 q 146 -203 157 -217 q 135 -162 135 -190 q 156 -112 135 -132 q 203 -93 176 -93 z "},"U":{"ha":746,"x_min":89,"x_max":875,"o":"m 313 -12 q 185 23 238 -12 q 110 122 132 58 q 108 267 89 185 l 257 908 q 257 947 264 938 q 222 963 250 957 l 194 968 q 176 983 176 972 q 201 1000 176 1000 l 451 1000 q 471 986 471 1000 q 451 968 471 971 l 413 963 q 372 947 383 958 q 353 907 360 936 l 204 265 q 219 101 179 160 q 342 43 258 43 q 488 101 432 43 q 567 265 543 160 l 708 879 q 681 963 726 957 l 650 967 q 631 983 631 969 q 639 996 631 992 q 657 1000 647 1000 l 857 1000 q 875 986 875 1000 q 853 968 875 972 l 819 963 q 753 881 771 954 l 611 267 q 506 64 582 140 q 313 -12 429 -12 z "},"Ú":{"ha":746,"x_min":89,"x_max":875,"o":"m 313 -12 q 185 23 238 -12 q 110 122 132 58 q 108 267 89 185 l 257 908 q 257 947 264 938 q 222 963 250 957 l 194 968 q 176 983 176 972 q 201 1000 176 1000 l 451 1000 q 471 986 471 1000 q 451 968 471 971 l 413 963 q 372 947 383 958 q 353 907 360 936 l 204 265 q 219 101 179 160 q 342 43 258 43 q 488 101 432 43 q 567 265 543 160 l 708 879 q 681 963 726 957 l 650 967 q 631 983 631 969 q 639 996 631 992 q 657 1000 647 1000 l 857 1000 q 875 986 875 1000 q 853 968 875 972 l 819 963 q 753 881 771 954 l 611 267 q 506 64 582 140 q 313 -12 429 -12 m 471 1104 q 439 1113 446 1094 q 457 1143 433 1126 l 675 1292 q 742 1319 714 1319 q 783 1306 769 1319 q 796 1272 796 1292 q 781 1236 796 1251 q 725 1204 767 1221 l 471 1104 z "},"Ŭ":{"ha":746,"x_min":89,"x_max":875,"o":"m 313 -12 q 185 23 238 -12 q 110 122 132 58 q 108 267 89 185 l 257 908 q 257 947 264 938 q 222 963 250 957 l 194 968 q 176 983 176 972 q 201 1000 176 1000 l 451 1000 q 471 986 471 1000 q 451 968 471 971 l 413 963 q 372 947 383 958 q 353 907 360 936 l 204 265 q 219 101 179 160 q 342 43 258 43 q 488 101 432 43 q 567 265 543 160 l 708 879 q 681 963 726 957 l 650 967 q 631 983 631 969 q 639 996 631 992 q 657 1000 647 1000 l 857 1000 q 875 986 875 1000 q 853 968 875 972 l 819 963 q 753 881 771 954 l 611 267 q 506 64 582 140 q 313 -12 429 -12 m 581 1096 q 461 1145 510 1096 q 417 1281 413 1194 q 438 1306 419 1306 q 453 1289 453 1306 q 492 1202 454 1229 q 592 1175 531 1175 q 701 1202 653 1175 q 781 1289 750 1229 q 801 1306 789 1306 q 814 1299 810 1306 q 814 1281 818 1292 q 722 1145 783 1194 q 581 1096 660 1096 z "},"Û":{"ha":746,"x_min":89,"x_max":875,"o":"m 313 -12 q 185 23 238 -12 q 110 122 132 58 q 108 267 89 185 l 257 908 q 257 947 264 938 q 222 963 250 957 l 194 968 q 176 983 176 972 q 201 1000 176 1000 l 451 1000 q 471 986 471 1000 q 451 968 471 971 l 413 963 q 372 947 383 958 q 353 907 360 936 l 204 265 q 219 101 179 160 q 342 43 258 43 q 488 101 432 43 q 567 265 543 160 l 708 879 q 681 963 726 957 l 650 967 q 631 983 631 969 q 639 996 631 992 q 657 1000 647 1000 l 857 1000 q 875 986 875 1000 q 853 968 875 972 l 819 963 q 753 881 771 954 l 611 267 q 506 64 582 140 q 313 -12 429 -12 m 397 1106 q 364 1106 375 1092 q 371 1135 353 1119 l 571 1304 q 610 1319 590 1319 l 636 1319 q 667 1304 656 1319 l 789 1135 q 790 1113 797 1122 q 761 1114 781 1100 l 613 1229 l 397 1106 z "},"Ü":{"ha":746,"x_min":89,"x_max":875,"o":"m 313 -12 q 185 23 238 -12 q 110 122 132 58 q 108 267 89 185 l 257 908 q 257 947 264 938 q 222 963 250 957 l 194 968 q 176 983 176 972 q 201 1000 176 1000 l 451 1000 q 471 986 471 1000 q 451 968 471 971 l 413 963 q 372 947 383 958 q 353 907 360 936 l 204 265 q 219 101 179 160 q 342 43 258 43 q 488 101 432 43 q 567 265 543 160 l 708 879 q 681 963 726 957 l 650 967 q 631 983 631 969 q 639 996 631 992 q 657 1000 647 1000 l 857 1000 q 875 986 875 1000 q 853 968 875 972 l 819 963 q 753 881 771 954 l 611 267 q 506 64 582 140 q 313 -12 429 -12 m 458 1132 q 414 1151 431 1132 q 397 1196 397 1169 q 419 1251 397 1231 q 471 1272 442 1272 q 515 1254 499 1272 q 532 1208 532 1236 q 510 1153 532 1174 q 458 1132 488 1132 m 724 1132 q 679 1151 696 1132 q 663 1196 663 1169 q 685 1251 663 1231 q 736 1272 707 1272 q 781 1254 764 1272 q 797 1208 797 1236 q 775 1153 797 1174 q 724 1132 753 1132 z "},"Ù":{"ha":746,"x_min":89,"x_max":875,"o":"m 313 -12 q 185 23 238 -12 q 110 122 132 58 q 108 267 89 185 l 257 908 q 257 947 264 938 q 222 963 250 957 l 194 968 q 176 983 176 972 q 201 1000 176 1000 l 451 1000 q 471 986 471 1000 q 451 968 471 971 l 413 963 q 372 947 383 958 q 353 907 360 936 l 204 265 q 219 101 179 160 q 342 43 258 43 q 488 101 432 43 q 567 265 543 160 l 708 879 q 681 963 726 957 l 650 967 q 631 983 631 969 q 639 996 631 992 q 657 1000 647 1000 l 857 1000 q 875 986 875 1000 q 853 968 875 972 l 819 963 q 753 881 771 954 l 611 267 q 506 64 582 140 q 313 -12 429 -12 m 675 1103 l 479 1210 q 424 1274 424 1239 q 439 1306 424 1293 q 476 1319 454 1319 q 509 1313 496 1319 q 540 1290 522 1307 l 703 1136 q 714 1115 714 1125 q 703 1098 714 1103 q 675 1103 692 1093 z "},"Ű":{"ha":746,"x_min":89,"x_max":875,"o":"m 313 -12 q 185 23 238 -12 q 110 122 132 58 q 108 267 89 185 l 257 908 q 257 947 264 938 q 222 963 250 957 l 194 968 q 176 983 176 972 q 201 1000 176 1000 l 451 1000 q 471 986 471 1000 q 451 968 471 971 l 413 963 q 372 947 383 958 q 353 907 360 936 l 204 265 q 219 101 179 160 q 342 43 258 43 q 488 101 432 43 q 567 265 543 160 l 708 879 q 681 963 726 957 l 650 967 q 631 983 631 969 q 639 996 631 992 q 657 1000 647 1000 l 857 1000 q 875 986 875 1000 q 853 968 875 972 l 819 963 q 753 881 771 954 l 611 267 q 506 64 582 140 q 313 -12 429 -12 m 414 1110 q 382 1108 396 1094 q 388 1140 372 1118 l 489 1278 q 521 1310 507 1301 q 553 1319 535 1319 q 588 1306 576 1319 q 600 1275 600 1292 q 550 1210 600 1246 l 414 1110 m 625 1110 q 593 1108 607 1094 q 599 1140 583 1118 l 700 1278 q 732 1310 718 1301 q 764 1319 746 1319 q 799 1306 788 1319 q 811 1275 811 1292 q 761 1210 811 1246 l 625 1110 z "},"Ū":{"ha":746,"x_min":89,"x_max":875,"o":"m 313 -12 q 185 23 238 -12 q 110 122 132 58 q 108 267 89 185 l 257 908 q 257 947 264 938 q 222 963 250 957 l 194 968 q 176 983 176 972 q 201 1000 176 1000 l 451 1000 q 471 986 471 1000 q 451 968 471 971 l 413 963 q 372 947 383 958 q 353 907 360 936 l 204 265 q 219 101 179 160 q 342 43 258 43 q 488 101 432 43 q 567 265 543 160 l 708 879 q 681 963 726 957 l 650 967 q 631 983 631 969 q 639 996 631 992 q 657 1000 647 1000 l 857 1000 q 875 986 875 1000 q 853 968 875 972 l 819 963 q 753 881 771 954 l 611 267 q 506 64 582 140 q 313 -12 429 -12 m 407 1175 q 393 1192 390 1175 l 397 1213 q 418 1229 400 1229 l 789 1229 q 801 1213 804 1229 l 797 1192 q 776 1175 794 1175 l 407 1175 z "},"Ų":{"ha":746,"x_min":89,"x_max":875,"o":"m 313 -12 q 185 23 238 -12 q 110 122 132 58 q 108 267 89 185 l 257 908 q 257 947 264 938 q 222 963 250 957 l 194 968 q 176 983 176 972 q 201 1000 176 1000 l 451 1000 q 471 986 471 1000 q 451 968 471 971 l 413 963 q 372 947 383 958 q 353 907 360 936 l 204 265 q 219 101 179 160 q 342 43 258 43 q 488 101 432 43 q 567 265 543 160 l 708 879 q 681 963 726 957 l 650 967 q 631 983 631 969 q 639 996 631 992 q 657 1000 647 1000 l 857 1000 q 875 986 875 1000 q 853 968 875 972 l 819 963 q 753 881 771 954 l 611 267 q 506 64 582 140 q 313 -12 429 -12 m 250 -300 q 189 -281 217 -300 q 161 -219 161 -262 q 183 -149 161 -185 q 238 -82 204 -114 q 312 -25 272 -50 q 386 14 351 0 l 397 0 q 317 -55 356 -21 q 253 -129 278 -89 q 228 -210 228 -169 q 242 -247 228 -236 q 274 -258 256 -258 q 335 -229 304 -258 q 350 -219 342 -222 q 364 -225 358 -217 q 363 -239 367 -232 q 353 -253 360 -246 q 306 -287 331 -275 q 250 -300 282 -300 z "},"Ů":{"ha":746,"x_min":89,"x_max":875,"o":"m 313 -12 q 185 23 238 -12 q 110 122 132 58 q 108 267 89 185 l 257 908 q 257 947 264 938 q 222 963 250 957 l 194 968 q 176 983 176 972 q 201 1000 176 1000 l 451 1000 q 471 986 471 1000 q 451 968 471 971 l 413 963 q 372 947 383 958 q 353 907 360 936 l 204 265 q 219 101 179 160 q 342 43 258 43 q 488 101 432 43 q 567 265 543 160 l 708 879 q 681 963 726 957 l 650 967 q 631 983 631 969 q 639 996 631 992 q 657 1000 647 1000 l 857 1000 q 875 986 875 1000 q 853 968 875 972 l 819 963 q 753 881 771 954 l 611 267 q 506 64 582 140 q 313 -12 429 -12 m 590 1071 q 488 1111 525 1071 q 450 1207 450 1151 q 473 1290 450 1253 q 533 1348 496 1326 q 613 1369 569 1369 q 715 1329 678 1369 q 751 1233 751 1289 q 728 1151 751 1189 q 669 1092 706 1114 q 590 1071 633 1071 m 593 1108 q 674 1145 640 1108 q 708 1233 708 1182 q 682 1303 708 1275 q 610 1332 656 1332 q 527 1295 561 1332 q 493 1207 493 1258 q 519 1137 493 1165 q 593 1108 546 1108 z "},"V":{"ha":636,"x_min":122,"x_max":806,"o":"m 233 -14 q 222 -10 228 -14 q 217 8 217 -6 l 201 889 q 192 943 200 928 q 157 964 183 958 l 139 968 q 122 985 122 972 q 146 1000 122 1000 l 375 1000 q 393 986 393 1000 q 365 968 393 971 l 338 965 q 305 951 314 964 q 296 907 296 938 l 303 250 q 311 235 303 236 q 325 244 319 233 l 629 878 q 604 965 668 957 l 585 968 q 564 985 564 972 q 588 1000 564 1000 l 789 1000 q 806 986 806 1000 q 783 968 806 974 l 761 964 q 714 937 733 958 q 675 876 694 915 l 260 8 q 247 -10 254 -6 q 233 -14 239 -14 z "},"W":{"ha":907,"x_min":122,"x_max":1076,"o":"m 517 -14 q 506 -10 511 -14 q 501 8 501 -6 l 494 422 q 486 440 494 438 q 471 428 478 442 l 257 8 q 244 -10 250 -6 q 233 -14 239 -14 q 222 -10 228 -14 q 217 8 217 -6 l 201 889 q 192 943 200 928 q 157 964 183 958 l 139 968 q 122 985 122 972 q 129 997 122 993 q 146 1000 136 1000 l 368 1000 q 386 986 386 1000 q 361 968 386 974 l 344 965 q 308 949 321 961 q 294 907 294 938 l 303 242 q 311 228 303 229 q 325 239 319 226 l 439 457 q 479 560 467 511 q 490 671 492 608 l 486 889 q 480 944 485 928 q 460 964 475 961 l 442 968 q 424 983 424 972 q 449 1000 424 1000 l 635 1000 q 653 986 653 1000 q 628 968 653 972 l 611 965 q 587 950 593 963 q 581 907 581 938 l 583 719 q 592 703 583 706 q 606 714 600 701 l 692 878 q 719 947 719 931 q 707 965 719 964 l 693 968 q 675 985 675 972 q 699 1000 675 1000 l 829 1000 q 851 986 851 1000 q 824 968 851 971 l 808 967 q 772 944 789 965 q 732 876 756 924 l 636 692 q 596 588 608 636 q 585 478 583 540 l 588 247 q 596 234 588 235 q 610 244 604 233 l 914 878 q 933 939 933 918 q 908 965 932 960 l 894 968 q 876 985 876 972 q 900 1000 876 1000 l 1057 1000 q 1076 985 1076 1000 q 1049 968 1076 969 l 1033 967 q 999 949 1014 965 q 957 876 985 933 l 540 8 q 528 -10 535 -6 q 517 -14 522 -14 z "},"Ẃ":{"ha":907,"x_min":122,"x_max":1076,"o":"m 517 -14 q 506 -10 511 -14 q 501 8 501 -6 l 494 422 q 486 440 494 438 q 471 428 478 442 l 257 8 q 244 -10 250 -6 q 233 -14 239 -14 q 222 -10 228 -14 q 217 8 217 -6 l 201 889 q 192 943 200 928 q 157 964 183 958 l 139 968 q 122 985 122 972 q 129 997 122 993 q 146 1000 136 1000 l 368 1000 q 386 986 386 1000 q 361 968 386 974 l 344 965 q 308 949 321 961 q 294 907 294 938 l 303 242 q 311 228 303 229 q 325 239 319 226 l 439 457 q 479 560 467 511 q 490 671 492 608 l 486 889 q 480 944 485 928 q 460 964 475 961 l 442 968 q 424 983 424 972 q 449 1000 424 1000 l 635 1000 q 653 986 653 1000 q 628 968 653 972 l 611 965 q 587 950 593 963 q 581 907 581 938 l 583 719 q 592 703 583 706 q 606 714 600 701 l 692 878 q 719 947 719 931 q 707 965 719 964 l 693 968 q 675 985 675 972 q 699 1000 675 1000 l 829 1000 q 851 986 851 1000 q 824 968 851 971 l 808 967 q 772 944 789 965 q 732 876 756 924 l 636 692 q 596 588 608 636 q 585 478 583 540 l 588 247 q 596 234 588 235 q 610 244 604 233 l 914 878 q 933 939 933 918 q 908 965 932 960 l 894 968 q 876 985 876 972 q 900 1000 876 1000 l 1057 1000 q 1076 985 1076 1000 q 1049 968 1076 969 l 1033 967 q 999 949 1014 965 q 957 876 985 933 l 540 8 q 528 -10 535 -6 q 517 -14 522 -14 m 538 1104 q 506 1113 513 1094 q 524 1143 500 1126 l 742 1292 q 808 1319 781 1319 q 849 1306 836 1319 q 863 1272 863 1292 q 848 1236 863 1251 q 792 1204 833 1221 l 538 1104 z "},"Ŵ":{"ha":907,"x_min":122,"x_max":1076,"o":"m 517 -14 q 506 -10 511 -14 q 501 8 501 -6 l 494 422 q 486 440 494 438 q 471 428 478 442 l 257 8 q 244 -10 250 -6 q 233 -14 239 -14 q 222 -10 228 -14 q 217 8 217 -6 l 201 889 q 192 943 200 928 q 157 964 183 958 l 139 968 q 122 985 122 972 q 129 997 122 993 q 146 1000 136 1000 l 368 1000 q 386 986 386 1000 q 361 968 386 974 l 344 965 q 308 949 321 961 q 294 907 294 938 l 303 242 q 311 228 303 229 q 325 239 319 226 l 439 457 q 479 560 467 511 q 490 671 492 608 l 486 889 q 480 944 485 928 q 460 964 475 961 l 442 968 q 424 983 424 972 q 449 1000 424 1000 l 635 1000 q 653 986 653 1000 q 628 968 653 972 l 611 965 q 587 950 593 963 q 581 907 581 938 l 583 719 q 592 703 583 706 q 606 714 600 701 l 692 878 q 719 947 719 931 q 707 965 719 964 l 693 968 q 675 985 675 972 q 699 1000 675 1000 l 829 1000 q 851 986 851 1000 q 824 968 851 971 l 808 967 q 772 944 789 965 q 732 876 756 924 l 636 692 q 596 588 608 636 q 585 478 583 540 l 588 247 q 596 234 588 235 q 610 244 604 233 l 914 878 q 933 939 933 918 q 908 965 932 960 l 894 968 q 876 985 876 972 q 900 1000 876 1000 l 1057 1000 q 1076 985 1076 1000 q 1049 968 1076 969 l 1033 967 q 999 949 1014 965 q 957 876 985 933 l 540 8 q 528 -10 535 -6 q 517 -14 522 -14 m 464 1106 q 431 1106 442 1092 q 438 1135 419 1119 l 638 1304 q 676 1319 657 1319 l 703 1319 q 733 1304 722 1319 l 856 1135 q 857 1113 864 1122 q 828 1114 847 1100 l 679 1229 l 464 1106 z "},"Ẅ":{"ha":907,"x_min":122,"x_max":1076,"o":"m 517 -14 q 506 -10 511 -14 q 501 8 501 -6 l 494 422 q 486 440 494 438 q 471 428 478 442 l 257 8 q 244 -10 250 -6 q 233 -14 239 -14 q 222 -10 228 -14 q 217 8 217 -6 l 201 889 q 192 943 200 928 q 157 964 183 958 l 139 968 q 122 985 122 972 q 129 997 122 993 q 146 1000 136 1000 l 368 1000 q 386 986 386 1000 q 361 968 386 974 l 344 965 q 308 949 321 961 q 294 907 294 938 l 303 242 q 311 228 303 229 q 325 239 319 226 l 439 457 q 479 560 467 511 q 490 671 492 608 l 486 889 q 480 944 485 928 q 460 964 475 961 l 442 968 q 424 983 424 972 q 449 1000 424 1000 l 635 1000 q 653 986 653 1000 q 628 968 653 972 l 611 965 q 587 950 593 963 q 581 907 581 938 l 583 719 q 592 703 583 706 q 606 714 600 701 l 692 878 q 719 947 719 931 q 707 965 719 964 l 693 968 q 675 985 675 972 q 699 1000 675 1000 l 829 1000 q 851 986 851 1000 q 824 968 851 971 l 808 967 q 772 944 789 965 q 732 876 756 924 l 636 692 q 596 588 608 636 q 585 478 583 540 l 588 247 q 596 234 588 235 q 610 244 604 233 l 914 878 q 933 939 933 918 q 908 965 932 960 l 894 968 q 876 985 876 972 q 900 1000 876 1000 l 1057 1000 q 1076 985 1076 1000 q 1049 968 1076 969 l 1033 967 q 999 949 1014 965 q 957 876 985 933 l 540 8 q 528 -10 535 -6 q 517 -14 522 -14 m 525 1132 q 481 1151 497 1132 q 464 1196 464 1169 q 486 1251 464 1231 q 538 1272 508 1272 q 582 1254 565 1272 q 599 1208 599 1236 q 576 1153 599 1174 q 525 1132 554 1132 m 790 1132 q 746 1151 763 1132 q 729 1196 729 1169 q 751 1251 729 1231 q 803 1272 774 1272 q 847 1254 831 1272 q 864 1208 864 1236 q 842 1153 864 1174 q 790 1132 819 1132 z "},"Ẁ":{"ha":907,"x_min":122,"x_max":1076,"o":"m 517 -14 q 506 -10 511 -14 q 501 8 501 -6 l 494 422 q 486 440 494 438 q 471 428 478 442 l 257 8 q 244 -10 250 -6 q 233 -14 239 -14 q 222 -10 228 -14 q 217 8 217 -6 l 201 889 q 192 943 200 928 q 157 964 183 958 l 139 968 q 122 985 122 972 q 129 997 122 993 q 146 1000 136 1000 l 368 1000 q 386 986 386 1000 q 361 968 386 974 l 344 965 q 308 949 321 961 q 294 907 294 938 l 303 242 q 311 228 303 229 q 325 239 319 226 l 439 457 q 479 560 467 511 q 490 671 492 608 l 486 889 q 480 944 485 928 q 460 964 475 961 l 442 968 q 424 983 424 972 q 449 1000 424 1000 l 635 1000 q 653 986 653 1000 q 628 968 653 972 l 611 965 q 587 950 593 963 q 581 907 581 938 l 583 719 q 592 703 583 706 q 606 714 600 701 l 692 878 q 719 947 719 931 q 707 965 719 964 l 693 968 q 675 985 675 972 q 699 1000 675 1000 l 829 1000 q 851 986 851 1000 q 824 968 851 971 l 808 967 q 772 944 789 965 q 732 876 756 924 l 636 692 q 596 588 608 636 q 585 478 583 540 l 588 247 q 596 234 588 235 q 610 244 604 233 l 914 878 q 933 939 933 918 q 908 965 932 960 l 894 968 q 876 985 876 972 q 900 1000 876 1000 l 1057 1000 q 1076 985 1076 1000 q 1049 968 1076 969 l 1033 967 q 999 949 1014 965 q 957 876 985 933 l 540 8 q 528 -10 535 -6 q 517 -14 522 -14 m 742 1103 l 546 1210 q 490 1274 490 1239 q 506 1306 490 1293 q 543 1319 521 1319 q 576 1313 563 1319 q 607 1290 589 1307 l 769 1136 q 781 1115 781 1125 q 769 1098 781 1103 q 742 1103 758 1093 z "},"X":{"ha":757,"x_min":-50,"x_max":864,"o":"m -29 0 q -46 5 -42 0 q -50 15 -50 10 q -25 35 -50 31 l -3 39 q 75 66 44 47 q 132 126 106 85 l 347 457 q 364 490 358 474 q 364 532 369 506 l 283 907 q 264 950 278 939 q 232 964 250 961 l 207 968 q 189 986 185 972 q 215 1000 192 1000 l 456 1000 q 478 986 481 1000 q 450 968 474 972 l 422 964 q 386 947 397 960 q 381 907 375 935 l 447 604 q 453 597 449 599 q 464 603 458 596 l 654 893 q 674 938 674 924 q 650 958 675 953 l 614 967 q 594 986 590 972 q 622 1000 597 1000 l 838 1000 q 858 983 864 1000 q 833 965 856 969 l 811 961 q 747 935 775 954 q 690 874 718 915 l 488 565 q 471 528 475 547 q 474 478 467 510 l 557 93 q 578 50 564 60 q 608 38 593 40 l 635 33 q 653 17 653 32 q 625 0 653 0 l 382 0 q 361 15 361 0 q 388 33 361 29 l 415 38 q 453 54 440 42 q 460 93 465 67 l 389 418 q 382 427 388 426 q 371 421 376 428 l 169 107 q 149 62 150 76 q 174 42 149 47 l 211 33 q 229 17 229 29 q 203 0 229 0 l -29 0 z "},"Y":{"ha":664,"x_min":79,"x_max":835,"o":"m 99 0 q 79 14 79 0 q 100 32 79 29 l 165 42 q 207 56 193 46 q 226 96 221 67 l 301 424 q 305 454 306 440 q 300 483 304 468 l 194 911 q 180 947 189 935 q 149 965 171 960 l 138 968 q 121 985 121 972 q 146 1000 121 1000 l 375 1000 q 393 986 393 1000 q 365 968 393 969 l 338 965 q 301 950 314 964 q 296 907 289 936 l 383 539 q 394 528 386 529 q 408 538 401 528 l 654 878 q 677 937 681 914 q 642 964 674 960 l 613 968 q 593 985 593 971 q 615 1000 593 1000 l 815 1000 q 835 988 835 1000 q 811 968 835 972 l 796 965 q 757 942 776 963 q 704 876 738 922 l 438 511 q 415 474 424 492 q 400 435 406 457 l 322 96 q 324 57 317 67 q 358 42 332 47 l 413 32 q 433 17 433 28 q 408 0 433 0 l 99 0 z "},"Ý":{"ha":664,"x_min":79,"x_max":835,"o":"m 99 0 q 79 14 79 0 q 100 32 79 29 l 165 42 q 207 56 193 46 q 226 96 221 67 l 301 424 q 305 454 306 440 q 300 483 304 468 l 194 911 q 180 947 189 935 q 149 965 171 960 l 138 968 q 121 985 121 972 q 146 1000 121 1000 l 375 1000 q 393 986 393 1000 q 365 968 393 969 l 338 965 q 301 950 314 964 q 296 907 289 936 l 383 539 q 394 528 386 529 q 408 538 401 528 l 654 878 q 677 937 681 914 q 642 964 674 960 l 613 968 q 593 985 593 971 q 615 1000 593 1000 l 815 1000 q 835 988 835 1000 q 811 968 835 972 l 796 965 q 757 942 776 963 q 704 876 738 922 l 438 511 q 415 474 424 492 q 400 435 406 457 l 322 96 q 324 57 317 67 q 358 42 332 47 l 413 32 q 433 17 433 28 q 408 0 433 0 l 99 0 m 415 1104 q 383 1113 390 1094 q 401 1143 378 1126 l 619 1292 q 686 1319 658 1319 q 727 1306 714 1319 q 740 1272 740 1292 q 726 1236 740 1251 q 669 1204 711 1221 l 415 1104 z "},"Ŷ":{"ha":664,"x_min":79,"x_max":835,"o":"m 99 0 q 79 14 79 0 q 100 32 79 29 l 165 42 q 207 56 193 46 q 226 96 221 67 l 301 424 q 305 454 306 440 q 300 483 304 468 l 194 911 q 180 947 189 935 q 149 965 171 960 l 138 968 q 121 985 121 972 q 146 1000 121 1000 l 375 1000 q 393 986 393 1000 q 365 968 393 969 l 338 965 q 301 950 314 964 q 296 907 289 936 l 383 539 q 394 528 386 529 q 408 538 401 528 l 654 878 q 677 937 681 914 q 642 964 674 960 l 613 968 q 593 985 593 971 q 615 1000 593 1000 l 815 1000 q 835 988 835 1000 q 811 968 835 972 l 796 965 q 757 942 776 963 q 704 876 738 922 l 438 511 q 415 474 424 492 q 400 435 406 457 l 322 96 q 324 57 317 67 q 358 42 332 47 l 413 32 q 433 17 433 28 q 408 0 433 0 l 99 0 m 342 1106 q 308 1106 319 1092 q 315 1135 297 1119 l 515 1304 q 554 1319 535 1319 l 581 1319 q 611 1304 600 1319 l 733 1135 q 735 1113 742 1122 q 706 1114 725 1100 l 557 1229 l 342 1106 z "},"Ÿ":{"ha":664,"x_min":79,"x_max":835,"o":"m 99 0 q 79 14 79 0 q 100 32 79 29 l 165 42 q 207 56 193 46 q 226 96 221 67 l 301 424 q 305 454 306 440 q 300 483 304 468 l 194 911 q 180 947 189 935 q 149 965 171 960 l 138 968 q 121 985 121 972 q 146 1000 121 1000 l 375 1000 q 393 986 393 1000 q 365 968 393 969 l 338 965 q 301 950 314 964 q 296 907 289 936 l 383 539 q 394 528 386 529 q 408 538 401 528 l 654 878 q 677 937 681 914 q 642 964 674 960 l 613 968 q 593 985 593 971 q 615 1000 593 1000 l 815 1000 q 835 988 835 1000 q 811 968 835 972 l 796 965 q 757 942 776 963 q 704 876 738 922 l 438 511 q 415 474 424 492 q 400 435 406 457 l 322 96 q 324 57 317 67 q 358 42 332 47 l 413 32 q 433 17 433 28 q 408 0 433 0 l 99 0 m 403 1132 q 358 1151 375 1132 q 342 1196 342 1169 q 364 1251 342 1231 q 415 1272 386 1272 q 460 1254 443 1272 q 476 1208 476 1236 q 454 1153 476 1174 q 403 1132 432 1132 m 668 1132 q 624 1151 640 1132 q 607 1196 607 1169 q 629 1251 607 1231 q 681 1272 651 1272 q 725 1254 708 1272 q 742 1208 742 1236 q 719 1153 742 1174 q 668 1132 697 1132 z "},"Ỳ":{"ha":664,"x_min":79,"x_max":835,"o":"m 99 0 q 79 14 79 0 q 100 32 79 29 l 165 42 q 207 56 193 46 q 226 96 221 67 l 301 424 q 305 454 306 440 q 300 483 304 468 l 194 911 q 180 947 189 935 q 149 965 171 960 l 138 968 q 121 985 121 972 q 146 1000 121 1000 l 375 1000 q 393 986 393 1000 q 365 968 393 969 l 338 965 q 301 950 314 964 q 296 907 289 936 l 383 539 q 394 528 386 529 q 408 538 401 528 l 654 878 q 677 937 681 914 q 642 964 674 960 l 613 968 q 593 985 593 971 q 615 1000 593 1000 l 815 1000 q 835 988 835 1000 q 811 968 835 972 l 796 965 q 757 942 776 963 q 704 876 738 922 l 438 511 q 415 474 424 492 q 400 435 406 457 l 322 96 q 324 57 317 67 q 358 42 332 47 l 413 32 q 433 17 433 28 q 408 0 433 0 l 99 0 m 619 1103 l 424 1210 q 368 1274 368 1239 q 383 1306 368 1293 q 421 1319 399 1319 q 453 1313 440 1319 q 485 1290 467 1307 l 647 1136 q 658 1115 658 1125 q 647 1098 658 1103 q 619 1103 636 1093 z "},"Z":{"ha":593,"x_min":-56,"x_max":700,"o":"m -26 0 q -51 11 -46 0 q -43 40 -56 22 l 564 935 q 568 952 571 946 q 554 958 565 958 l 429 958 q 315 927 367 958 q 215 801 264 896 l 179 732 q 157 714 171 714 q 144 720 149 714 q 143 738 139 726 l 228 996 q 240 1019 233 1011 q 258 1028 246 1028 q 276 1021 269 1028 q 301 1007 283 1014 q 363 1000 319 1000 l 669 1000 q 694 990 689 1000 q 688 960 700 979 l 81 65 q 78 49 74 56 q 93 42 82 42 l 246 42 q 359 68 307 42 q 450 178 411 94 l 507 299 q 529 317 517 317 q 541 310 536 317 q 543 293 546 304 l 465 32 q 424 0 457 0 l -26 0 z "},"Ź":{"ha":593,"x_min":-56,"x_max":700,"o":"m -26 0 q -51 11 -46 0 q -43 40 -56 22 l 564 935 q 568 952 571 946 q 554 958 565 958 l 429 958 q 315 927 367 958 q 215 801 264 896 l 179 732 q 157 714 171 714 q 144 720 149 714 q 143 738 139 726 l 228 996 q 240 1019 233 1011 q 258 1028 246 1028 q 276 1021 269 1028 q 301 1007 283 1014 q 363 1000 319 1000 l 669 1000 q 694 990 689 1000 q 688 960 700 979 l 81 65 q 78 49 74 56 q 93 42 82 42 l 246 42 q 359 68 307 42 q 450 178 411 94 l 507 299 q 529 317 517 317 q 541 310 536 317 q 543 293 546 304 l 465 32 q 424 0 457 0 l -26 0 m 367 1104 q 335 1113 342 1094 q 353 1143 329 1126 l 571 1292 q 638 1319 610 1319 q 678 1306 665 1319 q 692 1272 692 1292 q 677 1236 692 1251 q 621 1204 663 1221 l 367 1104 z "},"Ž":{"ha":593,"x_min":-56,"x_max":739,"o":"m -26 0 q -51 11 -46 0 q -43 40 -56 22 l 564 935 q 568 952 571 946 q 554 958 565 958 l 429 958 q 315 927 367 958 q 215 801 264 896 l 179 732 q 157 714 171 714 q 144 720 149 714 q 143 738 139 726 l 228 996 q 240 1019 233 1011 q 258 1028 246 1028 q 276 1021 269 1028 q 301 1007 283 1014 q 363 1000 319 1000 l 669 1000 q 694 990 689 1000 q 688 960 700 979 l 81 65 q 78 49 74 56 q 93 42 82 42 l 246 42 q 359 68 307 42 q 450 178 411 94 l 507 299 q 529 317 517 317 q 541 310 536 317 q 543 293 546 304 l 465 32 q 424 0 457 0 l -26 0 m 456 1099 q 425 1114 436 1099 l 303 1283 q 301 1306 294 1296 q 332 1304 311 1318 l 481 1189 l 694 1313 q 728 1313 717 1326 q 721 1283 739 1299 l 521 1114 q 482 1099 501 1099 l 456 1099 z "},"Ż":{"ha":593,"x_min":-56,"x_max":700,"o":"m -26 0 q -51 11 -46 0 q -43 40 -56 22 l 564 935 q 568 952 571 946 q 554 958 565 958 l 429 958 q 315 927 367 958 q 215 801 264 896 l 179 732 q 157 714 171 714 q 144 720 149 714 q 143 738 139 726 l 228 996 q 240 1019 233 1011 q 258 1028 246 1028 q 276 1021 269 1028 q 301 1007 283 1014 q 363 1000 319 1000 l 669 1000 q 694 990 689 1000 q 688 960 700 979 l 81 65 q 78 49 74 56 q 93 42 82 42 l 246 42 q 359 68 307 42 q 450 178 411 94 l 507 299 q 529 317 517 317 q 541 310 536 317 q 543 293 546 304 l 465 32 q 424 0 457 0 l -26 0 m 485 1132 q 441 1151 458 1132 q 424 1196 424 1169 q 447 1256 424 1233 q 499 1278 469 1278 q 545 1260 526 1278 q 564 1215 564 1243 q 540 1154 564 1176 q 485 1132 517 1132 z "},"a":{"ha":658,"x_min":18,"x_max":629,"o":"m 124 -12 q 46 31 74 -12 q 18 157 18 74 q 40 316 18 236 q 101 468 63 396 q 190 596 140 540 q 294 684 239 651 q 403 717 349 717 q 453 706 429 717 q 492 674 476 696 q 508 661 500 661 q 525 674 517 661 q 550 702 540 696 q 568 708 560 708 q 582 689 586 708 l 458 157 q 486 67 438 67 q 544 110 518 67 q 596 243 569 153 q 614 258 600 258 q 626 250 624 258 q 626 231 629 242 q 556 44 600 100 q 449 -12 511 -12 q 372 33 394 -12 q 367 158 349 79 l 385 235 q 381 246 388 244 q 371 239 375 247 q 235 43 294 99 q 124 -12 176 -12 m 158 58 q 232 99 192 58 q 312 203 272 139 q 385 340 351 267 q 438 482 418 414 q 458 597 458 550 q 399 682 458 682 q 322 649 363 682 q 245 561 282 617 q 178 435 208 506 q 131 290 149 365 q 113 142 113 214 q 124 76 113 93 q 158 58 136 58 z "},"á":{"ha":658,"x_min":18,"x_max":657,"o":"m 124 -12 q 46 31 74 -12 q 18 157 18 74 q 40 316 18 236 q 101 468 63 396 q 190 596 140 540 q 294 684 239 651 q 403 717 349 717 q 453 706 429 717 q 492 674 476 696 q 508 661 500 661 q 525 674 517 661 q 550 702 540 696 q 568 708 560 708 q 582 689 586 708 l 458 157 q 486 67 438 67 q 544 110 518 67 q 596 243 569 153 q 614 258 600 258 q 626 250 624 258 q 626 231 629 242 q 556 44 600 100 q 449 -12 511 -12 q 372 33 394 -12 q 367 158 349 79 l 385 235 q 381 246 388 244 q 371 239 375 247 q 235 43 294 99 q 124 -12 176 -12 m 158 58 q 232 99 192 58 q 312 203 272 139 q 385 340 351 267 q 438 482 418 414 q 458 597 458 550 q 399 682 458 682 q 322 649 363 682 q 245 561 282 617 q 178 435 208 506 q 131 290 149 365 q 113 142 113 214 q 124 76 113 93 q 158 58 136 58 m 332 813 q 300 821 307 803 q 318 851 294 835 l 536 1000 q 603 1028 575 1028 q 644 1014 631 1028 q 657 981 657 1000 q 642 944 657 960 q 586 913 628 929 l 332 813 z "},"ă":{"ha":658,"x_min":18,"x_max":679,"o":"m 124 -12 q 46 31 74 -12 q 18 157 18 74 q 40 316 18 236 q 101 468 63 396 q 190 596 140 540 q 294 684 239 651 q 403 717 349 717 q 453 706 429 717 q 492 674 476 696 q 508 661 500 661 q 525 674 517 661 q 550 702 540 696 q 568 708 560 708 q 582 689 586 708 l 458 157 q 486 67 438 67 q 544 110 518 67 q 596 243 569 153 q 614 258 600 258 q 626 250 624 258 q 626 231 629 242 q 556 44 600 100 q 449 -12 511 -12 q 372 33 394 -12 q 367 158 349 79 l 385 235 q 381 246 388 244 q 371 239 375 247 q 235 43 294 99 q 124 -12 176 -12 m 158 58 q 232 99 192 58 q 312 203 272 139 q 385 340 351 267 q 438 482 418 414 q 458 597 458 550 q 399 682 458 682 q 322 649 363 682 q 245 561 282 617 q 178 435 208 506 q 131 290 149 365 q 113 142 113 214 q 124 76 113 93 q 158 58 136 58 m 442 804 q 322 853 371 804 q 278 989 274 903 q 299 1014 281 1014 q 314 997 314 1014 q 353 910 315 938 q 453 883 392 883 q 563 910 514 883 q 642 997 611 938 q 663 1014 650 1014 q 675 1007 671 1014 q 675 989 679 1000 q 583 853 644 903 q 442 804 521 804 z "},"ǎ":{"ha":658,"x_min":18,"x_max":704,"o":"m 124 -12 q 46 31 74 -12 q 18 157 18 74 q 40 316 18 236 q 101 468 63 396 q 190 596 140 540 q 294 684 239 651 q 403 717 349 717 q 453 706 429 717 q 492 674 476 696 q 508 661 500 661 q 525 674 517 661 q 550 702 540 696 q 568 708 560 708 q 582 689 586 708 l 458 157 q 486 67 438 67 q 544 110 518 67 q 596 243 569 153 q 614 258 600 258 q 626 250 624 258 q 626 231 629 242 q 556 44 600 100 q 449 -12 511 -12 q 372 33 394 -12 q 367 158 349 79 l 385 235 q 381 246 388 244 q 371 239 375 247 q 235 43 294 99 q 124 -12 176 -12 m 158 58 q 232 99 192 58 q 312 203 272 139 q 385 340 351 267 q 438 482 418 414 q 458 597 458 550 q 399 682 458 682 q 322 649 363 682 q 245 561 282 617 q 178 435 208 506 q 131 290 149 365 q 113 142 113 214 q 124 76 113 93 q 158 58 136 58 m 421 807 q 390 822 401 807 l 268 992 q 267 1014 260 1004 q 297 1013 276 1026 l 446 897 l 660 1021 q 693 1021 682 1035 q 686 992 704 1007 l 486 822 q 447 807 467 807 l 421 807 z "},"â":{"ha":658,"x_min":18,"x_max":658,"o":"m 124 -12 q 46 31 74 -12 q 18 157 18 74 q 40 316 18 236 q 101 468 63 396 q 190 596 140 540 q 294 684 239 651 q 403 717 349 717 q 453 706 429 717 q 492 674 476 696 q 508 661 500 661 q 525 674 517 661 q 550 702 540 696 q 568 708 560 708 q 582 689 586 708 l 458 157 q 486 67 438 67 q 544 110 518 67 q 596 243 569 153 q 614 258 600 258 q 626 250 624 258 q 626 231 629 242 q 556 44 600 100 q 449 -12 511 -12 q 372 33 394 -12 q 367 158 349 79 l 385 235 q 381 246 388 244 q 371 239 375 247 q 235 43 294 99 q 124 -12 176 -12 m 158 58 q 232 99 192 58 q 312 203 272 139 q 385 340 351 267 q 438 482 418 414 q 458 597 458 550 q 399 682 458 682 q 322 649 363 682 q 245 561 282 617 q 178 435 208 506 q 131 290 149 365 q 113 142 113 214 q 124 76 113 93 q 158 58 136 58 m 258 814 q 225 814 236 800 q 232 843 214 828 l 432 1013 q 471 1028 451 1028 l 497 1028 q 528 1013 517 1028 l 650 843 q 651 821 658 831 q 622 822 642 808 l 474 938 l 258 814 z "},"ä":{"ha":658,"x_min":18,"x_max":658,"o":"m 124 -12 q 46 31 74 -12 q 18 157 18 74 q 40 316 18 236 q 101 468 63 396 q 190 596 140 540 q 294 684 239 651 q 403 717 349 717 q 453 706 429 717 q 492 674 476 696 q 508 661 500 661 q 525 674 517 661 q 550 702 540 696 q 568 708 560 708 q 582 689 586 708 l 458 157 q 486 67 438 67 q 544 110 518 67 q 596 243 569 153 q 614 258 600 258 q 626 250 624 258 q 626 231 629 242 q 556 44 600 100 q 449 -12 511 -12 q 372 33 394 -12 q 367 158 349 79 l 385 235 q 381 246 388 244 q 371 239 375 247 q 235 43 294 99 q 124 -12 176 -12 m 158 58 q 232 99 192 58 q 312 203 272 139 q 385 340 351 267 q 438 482 418 414 q 458 597 458 550 q 399 682 458 682 q 322 649 363 682 q 245 561 282 617 q 178 435 208 506 q 131 290 149 365 q 113 142 113 214 q 124 76 113 93 q 158 58 136 58 m 319 840 q 275 859 292 840 q 258 904 258 878 q 281 960 258 939 q 332 981 303 981 q 376 963 360 981 q 393 917 393 944 q 371 861 393 882 q 319 840 349 840 m 585 840 q 540 859 557 840 q 524 904 524 878 q 546 960 524 939 q 597 981 568 981 q 642 963 625 981 q 658 917 658 944 q 636 861 658 882 q 585 840 614 840 z "},"à":{"ha":658,"x_min":18,"x_max":629,"o":"m 124 -12 q 46 31 74 -12 q 18 157 18 74 q 40 316 18 236 q 101 468 63 396 q 190 596 140 540 q 294 684 239 651 q 403 717 349 717 q 453 706 429 717 q 492 674 476 696 q 508 661 500 661 q 525 674 517 661 q 550 702 540 696 q 568 708 560 708 q 582 689 586 708 l 458 157 q 486 67 438 67 q 544 110 518 67 q 596 243 569 153 q 614 258 600 258 q 626 250 624 258 q 626 231 629 242 q 556 44 600 100 q 449 -12 511 -12 q 372 33 394 -12 q 367 158 349 79 l 385 235 q 381 246 388 244 q 371 239 375 247 q 235 43 294 99 q 124 -12 176 -12 m 158 58 q 232 99 192 58 q 312 203 272 139 q 385 340 351 267 q 438 482 418 414 q 458 597 458 550 q 399 682 458 682 q 322 649 363 682 q 245 561 282 617 q 178 435 208 506 q 131 290 149 365 q 113 142 113 214 q 124 76 113 93 q 158 58 136 58 m 536 811 l 340 918 q 285 982 285 947 q 300 1015 285 1001 q 338 1028 315 1028 q 370 1022 357 1028 q 401 999 383 1015 l 564 844 q 575 824 575 833 q 564 806 575 811 q 536 811 553 801 z "},"ā":{"ha":658,"x_min":18,"x_max":665,"o":"m 124 -12 q 46 31 74 -12 q 18 157 18 74 q 40 316 18 236 q 101 468 63 396 q 190 596 140 540 q 294 684 239 651 q 403 717 349 717 q 453 706 429 717 q 492 674 476 696 q 508 661 500 661 q 525 674 517 661 q 550 702 540 696 q 568 708 560 708 q 582 689 586 708 l 458 157 q 486 67 438 67 q 544 110 518 67 q 596 243 569 153 q 614 258 600 258 q 626 250 624 258 q 626 231 629 242 q 556 44 600 100 q 449 -12 511 -12 q 372 33 394 -12 q 367 158 349 79 l 385 235 q 381 246 388 244 q 371 239 375 247 q 235 43 294 99 q 124 -12 176 -12 m 158 58 q 232 99 192 58 q 312 203 272 139 q 385 340 351 267 q 438 482 418 414 q 458 597 458 550 q 399 682 458 682 q 322 649 363 682 q 245 561 282 617 q 178 435 208 506 q 131 290 149 365 q 113 142 113 214 q 124 76 113 93 q 158 58 136 58 m 268 883 q 254 900 251 883 l 258 921 q 279 938 261 938 l 650 938 q 663 921 665 938 l 658 900 q 638 883 656 883 l 268 883 z "},"ą":{"ha":658,"x_min":18,"x_max":629,"o":"m 124 -12 q 46 31 74 -12 q 18 157 18 74 q 40 316 18 236 q 101 468 63 396 q 190 596 140 540 q 294 684 239 651 q 403 717 349 717 q 453 706 429 717 q 492 674 476 696 q 508 661 500 661 q 525 674 517 661 q 550 702 540 696 q 568 708 560 708 q 582 689 586 708 l 458 157 q 486 67 438 67 q 544 110 518 67 q 596 243 569 153 q 614 258 600 258 q 626 250 624 258 q 626 231 629 242 q 556 44 600 100 q 449 -12 511 -12 q 372 33 394 -12 q 367 158 349 79 l 385 235 q 381 246 388 244 q 371 239 375 247 q 235 43 294 99 q 124 -12 176 -12 m 158 58 q 232 99 192 58 q 312 203 272 139 q 385 340 351 267 q 438 482 418 414 q 458 597 458 550 q 399 682 458 682 q 322 649 363 682 q 245 561 282 617 q 178 435 208 506 q 131 290 149 365 q 113 142 113 214 q 124 76 113 93 q 158 58 136 58 m 357 -300 q 296 -281 324 -300 q 268 -219 268 -262 q 290 -149 268 -185 q 345 -82 311 -114 q 419 -25 379 -50 q 493 14 458 0 l 504 0 q 424 -55 463 -21 q 360 -129 385 -89 q 335 -210 335 -169 q 349 -247 335 -236 q 381 -258 363 -258 q 442 -229 411 -258 q 457 -219 449 -222 q 471 -225 465 -217 q 470 -239 474 -232 q 460 -253 467 -246 q 413 -287 438 -275 q 357 -300 389 -300 z "},"å":{"ha":658,"x_min":18,"x_max":629,"o":"m 124 -12 q 46 31 74 -12 q 18 157 18 74 q 40 316 18 236 q 101 468 63 396 q 190 596 140 540 q 294 684 239 651 q 403 717 349 717 q 453 706 429 717 q 492 674 476 696 q 508 661 500 661 q 525 674 517 661 q 550 702 540 696 q 568 708 560 708 q 582 689 586 708 l 458 157 q 486 67 438 67 q 544 110 518 67 q 596 243 569 153 q 614 258 600 258 q 626 250 624 258 q 626 231 629 242 q 556 44 600 100 q 449 -12 511 -12 q 372 33 394 -12 q 367 158 349 79 l 385 235 q 381 246 388 244 q 371 239 375 247 q 235 43 294 99 q 124 -12 176 -12 m 158 58 q 232 99 192 58 q 312 203 272 139 q 385 340 351 267 q 438 482 418 414 q 458 597 458 550 q 399 682 458 682 q 322 649 363 682 q 245 561 282 617 q 178 435 208 506 q 131 290 149 365 q 113 142 113 214 q 124 76 113 93 q 158 58 136 58 m 451 779 q 349 819 386 779 q 311 915 311 860 q 334 998 311 961 q 394 1056 357 1035 q 474 1078 431 1078 q 576 1038 539 1078 q 613 942 613 997 q 590 860 613 897 q 531 801 567 822 q 451 779 494 779 m 454 817 q 535 853 501 817 q 569 942 569 890 q 543 1012 569 983 q 471 1040 517 1040 q 388 1003 422 1040 q 354 915 354 967 q 381 845 354 874 q 454 817 407 817 z "},"ã":{"ha":658,"x_min":18,"x_max":703,"o":"m 124 -12 q 46 31 74 -12 q 18 157 18 74 q 40 316 18 236 q 101 468 63 396 q 190 596 140 540 q 294 684 239 651 q 403 717 349 717 q 453 706 429 717 q 492 674 476 696 q 508 661 500 661 q 525 674 517 661 q 550 702 540 696 q 568 708 560 708 q 582 689 586 708 l 458 157 q 486 67 438 67 q 544 110 518 67 q 596 243 569 153 q 614 258 600 258 q 626 250 624 258 q 626 231 629 242 q 556 44 600 100 q 449 -12 511 -12 q 372 33 394 -12 q 367 158 349 79 l 385 235 q 381 246 388 244 q 371 239 375 247 q 235 43 294 99 q 124 -12 176 -12 m 158 58 q 232 99 192 58 q 312 203 272 139 q 385 340 351 267 q 438 482 418 414 q 458 597 458 550 q 399 682 458 682 q 322 649 363 682 q 245 561 282 617 q 178 435 208 506 q 131 290 149 365 q 113 142 113 214 q 124 76 113 93 q 158 58 136 58 m 540 829 q 488 843 510 829 q 447 874 465 857 q 407 906 428 892 q 357 919 386 919 q 295 902 319 919 q 251 849 271 885 q 229 832 243 832 q 218 838 222 832 q 218 853 214 843 q 284 960 247 924 q 376 997 321 997 q 431 983 408 997 q 473 952 454 969 q 512 921 492 935 q 560 907 532 907 q 621 924 597 907 q 664 978 644 942 q 686 994 672 994 q 699 989 694 994 q 699 974 703 983 q 632 866 668 903 q 540 829 596 829 z "},"æ":{"ha":858,"x_min":18,"x_max":871,"o":"m 126 -12 q 47 31 76 -12 q 18 157 18 74 q 40 316 18 236 q 101 468 63 396 q 190 596 140 540 q 294 684 239 651 q 403 717 349 717 q 453 706 429 717 q 492 674 476 696 q 508 661 500 661 q 525 674 517 661 q 550 702 540 696 q 568 708 560 708 q 582 689 586 708 l 567 622 q 657 691 610 665 q 749 717 704 717 q 842 685 814 717 q 871 601 871 654 q 827 477 871 539 q 705 367 783 415 q 521 294 626 318 q 489 260 490 288 q 488 240 488 250 q 488 219 488 229 q 515 100 488 140 q 589 60 542 60 q 691 108 642 60 q 774 246 740 157 q 790 258 778 258 q 801 251 799 258 q 800 235 803 244 q 692 50 756 113 q 554 -12 629 -12 q 436 45 481 -12 q 392 208 392 103 q 396 271 392 239 q 388 256 392 264 q 378 239 383 247 q 240 43 301 99 q 126 -12 179 -12 m 158 58 q 232 99 192 58 q 312 203 272 139 q 385 340 351 267 q 438 482 418 414 q 458 597 458 550 q 399 682 458 682 q 322 649 363 682 q 245 561 282 617 q 178 435 208 506 q 131 290 149 365 q 113 142 113 214 q 124 76 113 93 q 158 58 136 58 m 503 347 q 506 331 500 338 q 522 328 513 325 q 667 399 608 351 q 755 507 725 447 q 785 624 785 567 q 739 682 785 682 q 651 635 699 682 q 564 511 604 588 q 503 347 524 435 z "},"b":{"ha":599,"x_min":39,"x_max":581,"o":"m 189 -12 q 105 13 142 -12 q 53 91 68 39 q 57 221 39 143 l 213 889 q 213 924 219 914 q 188 935 207 933 l 146 939 q 128 957 125 940 q 147 972 131 969 q 236 992 197 981 q 299 1024 275 1004 q 319 1032 310 1032 q 332 1011 336 1032 l 206 465 q 210 454 204 456 q 219 461 215 453 q 356 662 296 607 q 469 717 417 717 q 551 674 521 717 q 581 547 581 631 q 558 388 581 468 q 495 236 535 308 q 405 108 456 164 q 299 20 354 53 q 189 -12 243 -12 m 193 22 q 269 55 229 22 q 348 142 310 88 q 417 266 386 197 q 465 408 447 335 q 483 549 483 481 q 472 623 483 601 q 433 644 461 644 q 364 607 403 644 q 285 508 325 569 q 210 374 244 446 q 154 231 175 301 q 133 107 133 161 q 193 22 133 22 z "},"c":{"ha":488,"x_min":21,"x_max":490,"o":"m 197 -12 q 71 51 121 -12 q 21 213 21 114 q 51 395 21 306 q 131 558 81 485 q 244 674 182 631 q 368 717 306 717 q 481 681 435 717 q 489 672 488 675 q 488 657 490 668 l 450 475 q 432 456 446 456 q 414 476 417 456 l 407 575 q 388 658 403 639 q 346 678 374 678 q 267 640 307 678 q 192 537 226 601 q 138 394 158 472 q 118 235 118 315 q 232 60 118 60 q 330 110 286 60 q 411 265 374 160 q 431 279 415 279 q 440 273 439 279 q 438 249 442 267 q 388 114 424 172 q 302 22 351 56 q 197 -12 253 -12 z "},"ć":{"ha":488,"x_min":21,"x_max":614,"o":"m 197 -12 q 71 51 121 -12 q 21 213 21 114 q 51 395 21 306 q 131 558 81 485 q 244 674 182 631 q 368 717 306 717 q 481 681 435 717 q 489 672 488 675 q 488 657 490 668 l 450 475 q 432 456 446 456 q 414 476 417 456 l 407 575 q 388 658 403 639 q 346 678 374 678 q 267 640 307 678 q 192 537 226 601 q 138 394 158 472 q 118 235 118 315 q 232 60 118 60 q 330 110 286 60 q 411 265 374 160 q 431 279 415 279 q 440 273 439 279 q 438 249 442 267 q 388 114 424 172 q 302 22 351 56 q 197 -12 253 -12 m 289 813 q 257 821 264 803 q 275 851 251 835 l 493 1000 q 560 1028 532 1028 q 601 1014 588 1028 q 614 981 614 1000 q 599 944 614 960 q 543 913 585 929 l 289 813 z "},"č":{"ha":488,"x_min":21,"x_max":661,"o":"m 197 -12 q 71 51 121 -12 q 21 213 21 114 q 51 395 21 306 q 131 558 81 485 q 244 674 182 631 q 368 717 306 717 q 481 681 435 717 q 489 672 488 675 q 488 657 490 668 l 450 475 q 432 456 446 456 q 414 476 417 456 l 407 575 q 388 658 403 639 q 346 678 374 678 q 267 640 307 678 q 192 537 226 601 q 138 394 158 472 q 118 235 118 315 q 232 60 118 60 q 330 110 286 60 q 411 265 374 160 q 431 279 415 279 q 440 273 439 279 q 438 249 442 267 q 388 114 424 172 q 302 22 351 56 q 197 -12 253 -12 m 378 807 q 347 822 358 807 l 225 992 q 224 1014 217 1004 q 254 1013 233 1026 l 403 897 l 617 1021 q 650 1021 639 1035 q 643 992 661 1007 l 443 822 q 404 807 424 807 l 378 807 z "},"ç":{"ha":488,"x_min":4,"x_max":490,"o":"m 197 -12 q 71 51 121 -12 q 21 213 21 114 q 51 395 21 306 q 131 558 81 485 q 244 674 182 631 q 368 717 306 717 q 481 681 435 717 q 489 672 488 675 q 488 657 490 668 l 450 475 q 432 456 446 456 q 414 476 417 456 l 407 575 q 388 658 403 639 q 346 678 374 678 q 267 640 307 678 q 192 537 226 601 q 138 394 158 472 q 118 235 118 315 q 232 60 118 60 q 330 110 286 60 q 411 265 374 160 q 431 279 415 279 q 440 273 439 279 q 438 249 442 267 q 388 114 424 172 q 302 22 351 56 q 197 -12 253 -12 m 214 18 l 181 -60 q 185 -71 176 -68 q 245 -109 224 -83 q 267 -171 267 -135 q 219 -265 267 -231 q 111 -299 172 -299 q 33 -277 63 -299 q 4 -224 4 -256 q 15 -194 4 -206 q 43 -182 25 -182 q 69 -195 64 -182 q 76 -226 74 -208 q 86 -258 78 -244 q 121 -271 94 -271 q 181 -243 161 -271 q 201 -185 201 -215 q 140 -117 201 -129 q 132 -99 126 -114 l 181 18 l 214 18 z "},"ċ":{"ha":488,"x_min":21,"x_max":490,"o":"m 197 -12 q 71 51 121 -12 q 21 213 21 114 q 51 395 21 306 q 131 558 81 485 q 244 674 182 631 q 368 717 306 717 q 481 681 435 717 q 489 672 488 675 q 488 657 490 668 l 450 475 q 432 456 446 456 q 414 476 417 456 l 407 575 q 388 658 403 639 q 346 678 374 678 q 267 640 307 678 q 192 537 226 601 q 138 394 158 472 q 118 235 118 315 q 232 60 118 60 q 330 110 286 60 q 411 265 374 160 q 431 279 415 279 q 440 273 439 279 q 438 249 442 267 q 388 114 424 172 q 302 22 351 56 q 197 -12 253 -12 m 407 840 q 363 859 381 840 q 346 904 346 878 q 369 964 346 942 q 421 986 392 986 q 467 969 449 986 q 486 924 486 951 q 463 863 486 885 q 407 840 439 840 z "},"d":{"ha":658,"x_min":18,"x_max":660,"o":"m 125 -12 q 46 31 74 -12 q 18 157 18 74 q 40 316 18 236 q 101 468 63 396 q 190 596 140 540 q 294 684 239 651 q 403 717 349 717 q 468 697 440 717 q 492 706 488 685 l 536 889 q 537 924 543 914 q 511 935 531 933 l 469 939 q 451 957 449 940 q 471 972 454 969 q 560 992 521 981 q 622 1024 599 1004 q 643 1032 633 1032 q 656 1011 660 1032 l 458 157 q 486 67 438 67 q 544 110 518 67 q 596 243 569 153 q 614 258 600 258 q 626 250 624 258 q 626 231 629 242 q 553 44 600 100 q 444 -12 507 -12 q 367 33 390 -12 q 363 158 344 79 l 378 222 q 374 233 381 232 q 364 226 368 235 q 238 42 297 96 q 125 -12 178 -12 m 158 58 q 232 99 192 58 q 312 203 272 139 q 385 340 351 267 q 438 482 418 414 q 458 597 458 550 q 399 682 458 682 q 322 649 363 682 q 245 561 282 617 q 178 435 208 506 q 131 290 149 365 q 113 142 113 214 q 126 76 113 93 q 158 58 139 58 z "},"ð":{"ha":564,"x_min":26,"x_max":529,"o":"m 221 -12 q 118 22 161 -12 q 51 115 75 56 q 26 247 26 174 q 47 374 26 307 q 104 499 67 440 q 194 594 142 557 q 311 631 247 631 q 424 585 381 631 q 436 581 431 579 q 442 590 442 582 q 388 846 442 739 q 222 1010 333 953 q 211 1025 211 1017 q 219 1042 211 1036 q 240 1042 226 1047 q 394 923 329 1006 q 494 730 458 840 q 529 499 529 619 q 517 369 529 439 q 480 231 504 299 q 419 109 456 164 q 333 21 382 54 q 221 -12 283 -12 m 224 24 q 318 65 279 24 q 381 169 357 106 q 417 301 406 232 q 428 424 428 369 q 400 544 428 493 q 313 596 372 596 q 237 566 269 596 q 181 489 204 536 q 142 388 157 442 q 119 283 126 333 q 113 196 113 232 q 140 72 113 119 q 224 24 167 24 z "},"ď":{"ha":742,"x_min":18,"x_max":843,"o":"m 125 -12 q 46 31 74 -12 q 18 157 18 74 q 40 316 18 236 q 101 468 63 396 q 190 596 140 540 q 294 684 239 651 q 403 717 349 717 q 468 697 440 717 q 492 706 488 685 l 536 889 q 537 924 543 914 q 511 935 531 933 l 469 939 q 451 957 449 940 q 471 972 454 969 q 560 992 521 981 q 622 1024 599 1004 q 643 1032 633 1032 q 656 1011 660 1032 l 458 157 q 486 67 438 67 q 544 110 518 67 q 596 243 569 153 q 614 258 600 258 q 626 250 624 258 q 626 231 629 242 q 553 44 600 100 q 444 -12 507 -12 q 367 33 390 -12 q 363 158 344 79 l 378 222 q 374 233 381 232 q 364 226 368 235 q 238 42 297 96 q 125 -12 178 -12 m 158 58 q 232 99 192 58 q 312 203 272 139 q 385 340 351 267 q 438 482 418 414 q 458 597 458 550 q 399 682 458 682 q 322 649 363 682 q 245 561 282 617 q 178 435 208 506 q 131 290 149 365 q 113 142 113 214 q 126 76 113 93 q 158 58 139 58 m 722 732 q 696 718 714 715 q 683 743 678 721 l 740 965 q 767 1015 749 1000 q 808 1028 786 1031 q 838 1002 833 1025 q 828 947 843 979 l 722 732 z "},"đ":{"ha":658,"x_min":18,"x_max":710,"o":"m 125 -12 q 46 31 74 -12 q 18 157 18 74 q 40 316 18 236 q 101 468 63 396 q 190 596 140 540 q 294 684 239 651 q 403 717 349 717 q 468 697 440 717 q 492 706 488 685 l 515 803 l 304 803 q 294 817 290 803 l 297 828 q 314 842 300 842 l 525 842 l 536 889 q 537 924 543 914 q 511 935 531 933 l 469 939 q 451 957 449 940 q 471 972 454 969 q 560 992 521 981 q 622 1024 599 1004 q 643 1032 633 1032 q 656 1011 660 1032 l 617 842 l 696 842 q 707 828 710 842 l 704 817 q 686 803 700 803 l 607 803 l 458 157 q 486 67 438 67 q 544 110 518 67 q 596 243 569 153 q 614 258 600 258 q 626 250 624 258 q 626 231 629 242 q 553 44 600 100 q 444 -12 507 -12 q 367 33 390 -12 q 363 158 344 79 l 378 222 q 374 233 381 232 q 364 226 368 235 q 238 42 297 96 q 125 -12 178 -12 m 158 58 q 232 99 192 58 q 312 203 272 139 q 385 340 351 267 q 438 482 418 414 q 458 597 458 550 q 399 682 458 682 q 322 649 363 682 q 245 561 282 617 q 178 435 208 506 q 131 290 149 365 q 113 142 113 214 q 126 76 113 93 q 158 58 139 58 z "},"e":{"ha":483,"x_min":17,"x_max":496,"o":"m 179 -12 q 61 45 106 -12 q 17 208 17 103 q 49 390 17 300 q 135 554 82 481 q 251 672 188 628 q 374 717 314 717 q 467 685 439 717 q 496 601 496 654 q 452 477 496 539 q 330 367 408 415 q 146 294 251 318 q 114 260 115 288 q 113 240 113 250 q 113 219 113 229 q 140 100 113 140 q 214 60 167 60 q 316 108 267 60 q 399 246 365 157 q 415 258 403 258 q 426 251 424 258 q 425 235 428 244 q 317 50 381 113 q 179 -12 254 -12 m 128 347 q 131 331 125 338 q 147 328 138 325 q 292 399 233 351 q 380 507 350 447 q 410 624 410 567 q 364 682 410 682 q 276 635 324 682 q 189 511 229 588 q 128 347 149 435 z "},"é":{"ha":483,"x_min":17,"x_max":625,"o":"m 179 -12 q 61 45 106 -12 q 17 208 17 103 q 49 390 17 300 q 135 554 82 481 q 251 672 188 628 q 374 717 314 717 q 467 685 439 717 q 496 601 496 654 q 452 477 496 539 q 330 367 408 415 q 146 294 251 318 q 114 260 115 288 q 113 240 113 250 q 113 219 113 229 q 140 100 113 140 q 214 60 167 60 q 316 108 267 60 q 399 246 365 157 q 415 258 403 258 q 426 251 424 258 q 425 235 428 244 q 317 50 381 113 q 179 -12 254 -12 m 128 347 q 131 331 125 338 q 147 328 138 325 q 292 399 233 351 q 380 507 350 447 q 410 624 410 567 q 364 682 410 682 q 276 635 324 682 q 189 511 229 588 q 128 347 149 435 m 300 813 q 268 821 275 803 q 286 851 263 835 l 504 1000 q 571 1028 543 1028 q 612 1014 599 1028 q 625 981 625 1000 q 610 944 625 960 q 554 913 596 929 l 300 813 z "},"ě":{"ha":483,"x_min":17,"x_max":672,"o":"m 179 -12 q 61 45 106 -12 q 17 208 17 103 q 49 390 17 300 q 135 554 82 481 q 251 672 188 628 q 374 717 314 717 q 467 685 439 717 q 496 601 496 654 q 452 477 496 539 q 330 367 408 415 q 146 294 251 318 q 114 260 115 288 q 113 240 113 250 q 113 219 113 229 q 140 100 113 140 q 214 60 167 60 q 316 108 267 60 q 399 246 365 157 q 415 258 403 258 q 426 251 424 258 q 425 235 428 244 q 317 50 381 113 q 179 -12 254 -12 m 128 347 q 131 331 125 338 q 147 328 138 325 q 292 399 233 351 q 380 507 350 447 q 410 624 410 567 q 364 682 410 682 q 276 635 324 682 q 189 511 229 588 q 128 347 149 435 m 389 807 q 358 822 369 807 l 236 992 q 235 1014 228 1004 q 265 1013 244 1026 l 414 897 l 628 1021 q 661 1021 650 1035 q 654 992 672 1007 l 454 822 q 415 807 435 807 l 389 807 z "},"ê":{"ha":483,"x_min":17,"x_max":626,"o":"m 179 -12 q 61 45 106 -12 q 17 208 17 103 q 49 390 17 300 q 135 554 82 481 q 251 672 188 628 q 374 717 314 717 q 467 685 439 717 q 496 601 496 654 q 452 477 496 539 q 330 367 408 415 q 146 294 251 318 q 114 260 115 288 q 113 240 113 250 q 113 219 113 229 q 140 100 113 140 q 214 60 167 60 q 316 108 267 60 q 399 246 365 157 q 415 258 403 258 q 426 251 424 258 q 425 235 428 244 q 317 50 381 113 q 179 -12 254 -12 m 128 347 q 131 331 125 338 q 147 328 138 325 q 292 399 233 351 q 380 507 350 447 q 410 624 410 567 q 364 682 410 682 q 276 635 324 682 q 189 511 229 588 q 128 347 149 435 m 226 814 q 193 814 204 800 q 200 843 182 828 l 400 1013 q 439 1028 419 1028 l 465 1028 q 496 1013 485 1028 l 618 843 q 619 821 626 831 q 590 822 610 808 l 442 938 l 226 814 z "},"ë":{"ha":483,"x_min":17,"x_max":626,"o":"m 179 -12 q 61 45 106 -12 q 17 208 17 103 q 49 390 17 300 q 135 554 82 481 q 251 672 188 628 q 374 717 314 717 q 467 685 439 717 q 496 601 496 654 q 452 477 496 539 q 330 367 408 415 q 146 294 251 318 q 114 260 115 288 q 113 240 113 250 q 113 219 113 229 q 140 100 113 140 q 214 60 167 60 q 316 108 267 60 q 399 246 365 157 q 415 258 403 258 q 426 251 424 258 q 425 235 428 244 q 317 50 381 113 q 179 -12 254 -12 m 128 347 q 131 331 125 338 q 147 328 138 325 q 292 399 233 351 q 380 507 350 447 q 410 624 410 567 q 364 682 410 682 q 276 635 324 682 q 189 511 229 588 q 128 347 149 435 m 288 840 q 243 859 260 840 q 226 904 226 878 q 249 960 226 939 q 300 981 271 981 q 344 963 328 981 q 361 917 361 944 q 339 861 361 882 q 288 840 317 840 m 553 840 q 508 859 525 840 q 492 904 492 878 q 514 960 492 939 q 565 981 536 981 q 610 963 593 981 q 626 917 626 944 q 604 861 626 882 q 553 840 582 840 z "},"ė":{"ha":483,"x_min":17,"x_max":497,"o":"m 179 -12 q 61 45 106 -12 q 17 208 17 103 q 49 390 17 300 q 135 554 82 481 q 251 672 188 628 q 374 717 314 717 q 467 685 439 717 q 496 601 496 654 q 452 477 496 539 q 330 367 408 415 q 146 294 251 318 q 114 260 115 288 q 113 240 113 250 q 113 219 113 229 q 140 100 113 140 q 214 60 167 60 q 316 108 267 60 q 399 246 365 157 q 415 258 403 258 q 426 251 424 258 q 425 235 428 244 q 317 50 381 113 q 179 -12 254 -12 m 128 347 q 131 331 125 338 q 147 328 138 325 q 292 399 233 351 q 380 507 350 447 q 410 624 410 567 q 364 682 410 682 q 276 635 324 682 q 189 511 229 588 q 128 347 149 435 m 418 840 q 374 859 392 840 q 357 904 357 878 q 380 964 357 942 q 432 986 403 986 q 478 969 460 986 q 497 924 497 951 q 474 863 497 885 q 418 840 450 840 z "},"è":{"ha":483,"x_min":17,"x_max":543,"o":"m 179 -12 q 61 45 106 -12 q 17 208 17 103 q 49 390 17 300 q 135 554 82 481 q 251 672 188 628 q 374 717 314 717 q 467 685 439 717 q 496 601 496 654 q 452 477 496 539 q 330 367 408 415 q 146 294 251 318 q 114 260 115 288 q 113 240 113 250 q 113 219 113 229 q 140 100 113 140 q 214 60 167 60 q 316 108 267 60 q 399 246 365 157 q 415 258 403 258 q 426 251 424 258 q 425 235 428 244 q 317 50 381 113 q 179 -12 254 -12 m 128 347 q 131 331 125 338 q 147 328 138 325 q 292 399 233 351 q 380 507 350 447 q 410 624 410 567 q 364 682 410 682 q 276 635 324 682 q 189 511 229 588 q 128 347 149 435 m 504 811 l 308 918 q 253 982 253 947 q 268 1015 253 1001 q 306 1028 283 1028 q 338 1022 325 1028 q 369 999 351 1015 l 532 844 q 543 824 543 833 q 532 806 543 811 q 504 811 521 801 z "},"ē":{"ha":483,"x_min":17,"x_max":633,"o":"m 179 -12 q 61 45 106 -12 q 17 208 17 103 q 49 390 17 300 q 135 554 82 481 q 251 672 188 628 q 374 717 314 717 q 467 685 439 717 q 496 601 496 654 q 452 477 496 539 q 330 367 408 415 q 146 294 251 318 q 114 260 115 288 q 113 240 113 250 q 113 219 113 229 q 140 100 113 140 q 214 60 167 60 q 316 108 267 60 q 399 246 365 157 q 415 258 403 258 q 426 251 424 258 q 425 235 428 244 q 317 50 381 113 q 179 -12 254 -12 m 128 347 q 131 331 125 338 q 147 328 138 325 q 292 399 233 351 q 380 507 350 447 q 410 624 410 567 q 364 682 410 682 q 276 635 324 682 q 189 511 229 588 q 128 347 149 435 m 236 883 q 222 900 219 883 l 226 921 q 247 938 229 938 l 618 938 q 631 921 633 938 l 626 900 q 606 883 624 883 l 236 883 z "},"ę":{"ha":483,"x_min":7,"x_max":496,"o":"m 179 -12 q 61 45 106 -12 q 17 208 17 103 q 49 390 17 300 q 135 554 82 481 q 251 672 188 628 q 374 717 314 717 q 467 685 439 717 q 496 601 496 654 q 452 477 496 539 q 330 367 408 415 q 146 294 251 318 q 114 260 115 288 q 113 240 113 250 q 113 219 113 229 q 140 100 113 140 q 214 60 167 60 q 316 108 267 60 q 399 246 365 157 q 415 258 403 258 q 426 251 424 258 q 425 235 428 244 q 317 50 381 113 q 179 -12 254 -12 m 128 347 q 131 331 125 338 q 147 328 138 325 q 292 399 233 351 q 380 507 350 447 q 410 624 410 567 q 364 682 410 682 q 276 635 324 682 q 189 511 229 588 q 128 347 149 435 m 96 -300 q 35 -281 63 -300 q 7 -219 7 -262 q 28 -149 7 -185 q 84 -82 50 -114 q 158 -25 118 -50 q 232 14 197 0 l 243 0 q 163 -55 201 -21 q 99 -129 124 -89 q 74 -210 74 -169 q 88 -247 74 -236 q 119 -258 101 -258 q 181 -229 150 -258 q 196 -219 188 -222 q 210 -225 204 -217 q 209 -239 213 -232 q 199 -253 206 -246 q 152 -287 176 -275 q 96 -300 128 -300 z "},"f":{"ha":379,"x_min":26,"x_max":561,"o":"m 44 0 q 31 18 26 0 l 171 618 q 138 669 183 669 l 108 669 q 86 689 86 669 q 111 708 86 708 q 176 719 154 708 q 204 764 197 731 q 258 905 222 843 q 343 1003 293 967 q 453 1039 393 1039 q 531 1016 501 1039 q 561 953 561 993 q 545 903 561 922 q 506 885 529 885 q 467 901 476 885 q 456 940 458 918 q 447 979 454 963 q 415 996 440 996 q 359 965 383 996 q 315 847 335 933 l 288 726 q 303 708 283 708 l 414 708 q 435 689 440 708 q 410 669 431 669 l 289 669 q 271 656 275 669 l 122 15 q 103 0 118 0 l 44 0 z "},"g":{"ha":557,"x_min":-94,"x_max":642,"o":"m 129 -300 q -37 -260 19 -300 q -94 -164 -94 -219 q -56 -69 -94 -115 q 85 38 -18 -22 q 102 56 100 46 q 89 76 104 67 q 42 135 50 101 q 60 182 35 168 l 165 243 q 180 260 179 250 q 165 279 181 271 q 109 342 128 301 q 90 432 90 383 q 127 572 90 507 q 226 676 164 636 q 364 717 288 717 q 418 708 396 717 q 443 719 435 703 q 503 801 467 771 q 581 831 540 831 q 626 815 610 831 q 642 774 642 800 q 626 731 642 747 q 588 714 611 714 q 560 721 569 714 q 544 735 551 728 q 522 742 538 742 q 474 707 492 742 q 471 684 468 694 q 482 663 474 674 q 518 543 518 615 q 490 419 518 478 q 412 319 461 360 q 299 264 363 278 q 253 251 274 258 q 203 224 233 243 l 147 190 q 136 159 126 178 q 190 124 146 140 l 310 79 q 417 11 388 51 q 447 -83 447 -29 q 403 -199 447 -150 q 288 -274 360 -247 q 129 -300 215 -300 m 183 407 q 202 315 183 343 q 256 286 221 286 q 338 327 300 286 q 400 433 376 368 q 424 567 424 497 q 406 662 424 636 q 351 688 388 688 q 269 647 308 688 q 207 542 231 606 q 183 407 183 478 m 144 -265 q 246 -247 199 -265 q 323 -196 293 -229 q 353 -117 353 -162 q 330 -41 353 -71 q 240 14 307 -11 l 214 24 q 164 31 189 33 q 117 17 139 28 q 15 -61 42 -25 q -11 -140 -11 -97 q 26 -228 -11 -192 q 144 -265 64 -265 z "},"ğ":{"ha":557,"x_min":-94,"x_max":642,"o":"m 129 -300 q -37 -260 19 -300 q -94 -164 -94 -219 q -56 -69 -94 -115 q 85 38 -18 -22 q 102 56 100 46 q 89 76 104 67 q 42 135 50 101 q 60 182 35 168 l 165 243 q 180 260 179 250 q 165 279 181 271 q 109 342 128 301 q 90 432 90 383 q 127 572 90 507 q 226 676 164 636 q 364 717 288 717 q 418 708 396 717 q 443 719 435 703 q 503 801 467 771 q 581 831 540 831 q 626 815 610 831 q 642 774 642 800 q 626 731 642 747 q 588 714 611 714 q 560 721 569 714 q 544 735 551 728 q 522 742 538 742 q 474 707 492 742 q 471 684 468 694 q 482 663 474 674 q 518 543 518 615 q 490 419 518 478 q 412 319 461 360 q 299 264 363 278 q 253 251 274 258 q 203 224 233 243 l 147 190 q 136 159 126 178 q 190 124 146 140 l 310 79 q 417 11 388 51 q 447 -83 447 -29 q 403 -199 447 -150 q 288 -274 360 -247 q 129 -300 215 -300 m 183 407 q 202 315 183 343 q 256 286 221 286 q 338 327 300 286 q 400 433 376 368 q 424 567 424 497 q 406 662 424 636 q 351 688 388 688 q 269 647 308 688 q 207 542 231 606 q 183 407 183 478 m 144 -265 q 246 -247 199 -265 q 323 -196 293 -229 q 353 -117 353 -162 q 330 -41 353 -71 q 240 14 307 -11 l 214 24 q 164 31 189 33 q 117 17 139 28 q 15 -61 42 -25 q -11 -140 -11 -97 q 26 -228 -11 -192 q 144 -265 64 -265 m 392 804 q 272 853 321 804 q 228 989 224 903 q 249 1014 231 1014 q 264 997 264 1014 q 303 910 265 938 q 403 883 342 883 q 513 910 464 883 q 592 997 561 938 q 613 1014 600 1014 q 625 1007 621 1014 q 625 989 629 1000 q 533 853 594 903 q 392 804 471 804 z "},"ģ":{"ha":557,"x_min":-94,"x_max":642,"o":"m 129 -300 q -37 -260 19 -300 q -94 -164 -94 -219 q -56 -69 -94 -115 q 85 38 -18 -22 q 102 56 100 46 q 89 76 104 67 q 42 135 50 101 q 60 182 35 168 l 165 243 q 180 260 179 250 q 165 279 181 271 q 109 342 128 301 q 90 432 90 383 q 127 572 90 507 q 226 676 164 636 q 364 717 288 717 q 418 708 396 717 q 443 719 435 703 q 503 801 467 771 q 581 831 540 831 q 626 815 610 831 q 642 774 642 800 q 626 731 642 747 q 588 714 611 714 q 560 721 569 714 q 544 735 551 728 q 522 742 538 742 q 474 707 492 742 q 471 684 468 694 q 482 663 474 674 q 518 543 518 615 q 490 419 518 478 q 412 319 461 360 q 299 264 363 278 q 253 251 274 258 q 203 224 233 243 l 147 190 q 136 159 126 178 q 190 124 146 140 l 310 79 q 417 11 388 51 q 447 -83 447 -29 q 403 -199 447 -150 q 288 -274 360 -247 q 129 -300 215 -300 m 183 407 q 202 315 183 343 q 256 286 221 286 q 338 327 300 286 q 400 433 376 368 q 424 567 424 497 q 406 662 424 636 q 351 688 388 688 q 269 647 308 688 q 207 542 231 606 q 183 407 183 478 m 144 -265 q 246 -247 199 -265 q 323 -196 293 -229 q 353 -117 353 -162 q 330 -41 353 -71 q 240 14 307 -11 l 214 24 q 164 31 189 33 q 117 17 139 28 q 15 -61 42 -25 q -11 -140 -11 -97 q 26 -228 -11 -192 q 144 -265 64 -265 m 396 800 q 347 822 365 800 q 328 881 328 844 q 374 1010 328 947 q 499 1115 421 1072 q 515 1122 507 1119 q 528 1117 524 1124 q 528 1103 533 1110 q 517 1090 524 1096 q 442 1028 465 1056 q 419 968 419 1000 q 431 935 419 946 q 453 911 442 924 q 464 869 464 899 q 444 819 464 839 q 396 800 424 800 z "},"ġ":{"ha":557,"x_min":-94,"x_max":642,"o":"m 129 -300 q -37 -260 19 -300 q -94 -164 -94 -219 q -56 -69 -94 -115 q 85 38 -18 -22 q 102 56 100 46 q 89 76 104 67 q 42 135 50 101 q 60 182 35 168 l 165 243 q 180 260 179 250 q 165 279 181 271 q 109 342 128 301 q 90 432 90 383 q 127 572 90 507 q 226 676 164 636 q 364 717 288 717 q 418 708 396 717 q 443 719 435 703 q 503 801 467 771 q 581 831 540 831 q 626 815 610 831 q 642 774 642 800 q 626 731 642 747 q 588 714 611 714 q 560 721 569 714 q 544 735 551 728 q 522 742 538 742 q 474 707 492 742 q 471 684 468 694 q 482 663 474 674 q 518 543 518 615 q 490 419 518 478 q 412 319 461 360 q 299 264 363 278 q 253 251 274 258 q 203 224 233 243 l 147 190 q 136 159 126 178 q 190 124 146 140 l 310 79 q 417 11 388 51 q 447 -83 447 -29 q 403 -199 447 -150 q 288 -274 360 -247 q 129 -300 215 -300 m 183 407 q 202 315 183 343 q 256 286 221 286 q 338 327 300 286 q 400 433 376 368 q 424 567 424 497 q 406 662 424 636 q 351 688 388 688 q 269 647 308 688 q 207 542 231 606 q 183 407 183 478 m 144 -265 q 246 -247 199 -265 q 323 -196 293 -229 q 353 -117 353 -162 q 330 -41 353 -71 q 240 14 307 -11 l 214 24 q 164 31 189 33 q 117 17 139 28 q 15 -61 42 -25 q -11 -140 -11 -97 q 26 -228 -11 -192 q 144 -265 64 -265 m 400 840 q 356 859 374 840 q 339 904 339 878 q 362 964 339 942 q 414 986 385 986 q 460 969 442 986 q 479 924 479 951 q 456 863 479 885 q 400 840 432 840 z "},"h":{"ha":661,"x_min":6,"x_max":632,"o":"m 447 -12 q 372 29 397 -12 q 369 158 347 71 l 476 561 q 481 636 492 615 q 451 657 471 657 q 383 619 421 657 q 303 515 344 581 q 224 366 263 449 q 154 192 186 283 q 103 15 122 101 q 83 0 99 0 l 25 0 q 10 18 6 0 l 213 889 q 213 924 219 914 q 188 935 207 933 l 146 939 q 128 957 125 940 q 147 972 131 969 q 236 992 197 981 q 299 1024 275 1004 q 319 1032 310 1032 q 332 1011 336 1032 l 196 421 q 200 410 194 411 q 210 417 206 408 q 315 596 265 531 q 409 689 365 661 q 489 717 453 717 q 564 675 540 717 q 564 547 588 633 l 458 144 q 457 86 449 106 q 488 67 465 67 q 542 103 515 67 q 599 243 568 140 q 617 258 603 258 q 630 250 628 258 q 629 231 632 242 q 572 83 603 136 q 510 8 542 29 q 447 -12 479 -12 z "},"ħ":{"ha":661,"x_min":6,"x_max":632,"o":"m 447 -12 q 372 29 397 -12 q 369 158 347 71 l 476 561 q 481 636 492 615 q 451 657 471 657 q 383 619 421 657 q 303 515 344 581 q 224 366 263 449 q 154 192 186 283 q 103 15 122 101 q 83 0 99 0 l 25 0 q 10 18 6 0 l 193 803 l 114 803 q 104 817 100 803 l 107 828 q 124 842 110 842 l 201 842 l 213 889 q 213 924 219 914 q 188 935 207 933 l 146 939 q 128 957 125 940 q 147 972 131 969 q 236 992 197 981 q 299 1024 275 1004 q 319 1032 310 1032 q 332 1011 336 1032 l 293 842 l 506 842 q 517 828 519 842 l 514 817 q 496 803 510 803 l 283 803 l 196 421 q 200 410 194 411 q 210 417 206 408 q 315 596 265 531 q 409 689 365 661 q 489 717 453 717 q 564 675 540 717 q 564 547 588 633 l 458 144 q 457 86 449 106 q 488 67 465 67 q 542 103 515 67 q 599 243 568 140 q 617 258 603 258 q 630 250 628 258 q 629 231 632 242 q 572 83 603 136 q 510 8 542 29 q 447 -12 479 -12 z "},"i":{"ha":400,"x_min":19,"x_max":379,"o":"m 283 840 q 240 859 257 840 q 222 904 222 878 q 245 964 222 942 q 297 986 268 986 q 344 969 325 986 q 363 924 363 951 q 339 863 363 885 q 283 840 315 840 m 169 -14 q 104 20 124 -14 q 103 132 85 54 l 206 572 q 208 620 213 603 q 182 638 203 638 q 127 601 157 638 q 60 461 97 564 q 40 443 54 443 q 29 468 19 443 q 94 618 60 564 q 163 694 128 672 q 226 717 197 717 q 294 683 275 717 q 296 571 314 649 l 193 131 q 191 83 186 100 q 217 65 196 65 q 272 102 242 65 q 339 242 301 139 q 358 260 344 260 q 369 235 379 260 q 305 85 340 140 q 235 8 269 31 q 169 -14 200 -14 z "},"ı":{"ha":400,"x_min":19,"x_max":379,"o":"m 169 -14 q 104 20 124 -14 q 103 132 85 54 l 206 572 q 208 620 213 603 q 182 638 203 638 q 127 601 157 638 q 60 461 97 564 q 40 443 54 443 q 29 468 19 443 q 94 618 60 564 q 163 694 128 672 q 226 717 197 717 q 294 683 275 717 q 296 571 314 649 l 193 131 q 191 83 186 100 q 217 65 196 65 q 272 102 242 65 q 339 242 301 139 q 358 260 344 260 q 369 235 379 260 q 305 85 340 140 q 235 8 269 31 q 169 -14 200 -14 z "},"í":{"ha":400,"x_min":19,"x_max":528,"o":"m 169 -14 q 104 20 124 -14 q 103 132 85 54 l 206 572 q 208 620 213 603 q 182 638 203 638 q 127 601 157 638 q 60 461 97 564 q 40 443 54 443 q 29 468 19 443 q 94 618 60 564 q 163 694 128 672 q 226 717 197 717 q 294 683 275 717 q 296 571 314 649 l 193 131 q 191 83 186 100 q 217 65 196 65 q 272 102 242 65 q 339 242 301 139 q 358 260 344 260 q 369 235 379 260 q 305 85 340 140 q 235 8 269 31 q 169 -14 200 -14 m 203 813 q 171 821 178 803 q 189 851 165 835 l 407 1000 q 474 1028 446 1028 q 515 1014 501 1028 q 528 981 528 1000 q 513 944 528 960 q 457 913 499 929 l 203 813 z "},"î":{"ha":400,"x_min":19,"x_max":529,"o":"m 169 -14 q 104 20 124 -14 q 103 132 85 54 l 206 572 q 208 620 213 603 q 182 638 203 638 q 127 601 157 638 q 60 461 97 564 q 40 443 54 443 q 29 468 19 443 q 94 618 60 564 q 163 694 128 672 q 226 717 197 717 q 294 683 275 717 q 296 571 314 649 l 193 131 q 191 83 186 100 q 217 65 196 65 q 272 102 242 65 q 339 242 301 139 q 358 260 344 260 q 369 235 379 260 q 305 85 340 140 q 235 8 269 31 q 169 -14 200 -14 m 129 814 q 96 814 107 800 q 103 843 85 828 l 303 1013 q 342 1028 322 1028 l 368 1028 q 399 1013 388 1028 l 521 843 q 522 821 529 831 q 493 822 513 808 l 344 938 l 129 814 z "},"ï":{"ha":400,"x_min":19,"x_max":529,"o":"m 169 -14 q 104 20 124 -14 q 103 132 85 54 l 206 572 q 208 620 213 603 q 182 638 203 638 q 127 601 157 638 q 60 461 97 564 q 40 443 54 443 q 29 468 19 443 q 94 618 60 564 q 163 694 128 672 q 226 717 197 717 q 294 683 275 717 q 296 571 314 649 l 193 131 q 191 83 186 100 q 217 65 196 65 q 272 102 242 65 q 339 242 301 139 q 358 260 344 260 q 369 235 379 260 q 305 85 340 140 q 235 8 269 31 q 169 -14 200 -14 m 190 840 q 146 859 163 840 q 129 904 129 878 q 151 960 129 939 q 203 981 174 981 q 247 963 231 981 q 264 917 264 944 q 242 861 264 882 q 190 840 219 840 m 456 840 q 411 859 428 840 q 394 904 394 878 q 417 960 394 939 q 468 981 439 981 q 513 963 496 981 q 529 917 529 944 q 507 861 529 882 q 456 840 485 840 z "},"ì":{"ha":400,"x_min":19,"x_max":446,"o":"m 169 -14 q 104 20 124 -14 q 103 132 85 54 l 206 572 q 208 620 213 603 q 182 638 203 638 q 127 601 157 638 q 60 461 97 564 q 40 443 54 443 q 29 468 19 443 q 94 618 60 564 q 163 694 128 672 q 226 717 197 717 q 294 683 275 717 q 296 571 314 649 l 193 131 q 191 83 186 100 q 217 65 196 65 q 272 102 242 65 q 339 242 301 139 q 358 260 344 260 q 369 235 379 260 q 305 85 340 140 q 235 8 269 31 q 169 -14 200 -14 m 407 811 l 211 918 q 156 982 156 947 q 171 1015 156 1001 q 208 1028 186 1028 q 241 1022 228 1028 q 272 999 254 1015 l 435 844 q 446 824 446 833 q 435 806 446 811 q 407 811 424 801 z "},"ĳ":{"ha":769,"x_min":19,"x_max":763,"o":"m 283 840 q 240 859 257 840 q 222 904 222 878 q 245 964 222 942 q 297 986 268 986 q 344 969 325 986 q 363 924 363 951 q 339 863 363 885 q 283 840 315 840 m 169 -14 q 104 20 124 -14 q 103 132 85 54 l 206 572 q 208 620 213 603 q 182 638 203 638 q 127 601 157 638 q 60 461 97 564 q 40 443 54 443 q 29 468 19 443 q 94 618 60 564 q 163 694 128 672 q 226 717 197 717 q 294 683 275 717 q 296 571 314 649 l 193 131 q 191 83 186 100 q 217 65 196 65 q 272 102 242 65 q 339 242 301 139 q 358 260 344 260 q 369 235 379 260 q 305 85 340 140 q 235 8 269 31 q 169 -14 200 -14 m 683 840 q 640 859 657 840 q 622 904 622 878 q 645 964 622 942 q 697 986 668 986 q 744 969 725 986 q 763 924 763 951 q 739 863 763 885 q 683 840 715 840 m 351 -299 q 277 -272 303 -299 q 251 -206 251 -244 q 267 -162 251 -176 q 300 -147 282 -147 q 335 -165 326 -147 q 346 -204 344 -182 q 353 -244 347 -226 q 378 -261 358 -261 q 406 -243 393 -261 q 435 -158 419 -225 l 606 572 q 608 620 613 603 q 582 638 603 638 q 527 601 557 638 q 460 461 497 564 q 440 443 454 443 q 429 468 419 443 q 494 618 460 564 q 563 694 528 672 q 626 717 597 717 q 695 683 675 717 q 697 571 715 649 l 553 -51 q 473 -233 526 -167 q 351 -299 419 -299 z "},"ī":{"ha":400,"x_min":19,"x_max":536,"o":"m 169 -14 q 104 20 124 -14 q 103 132 85 54 l 206 572 q 208 620 213 603 q 182 638 203 638 q 127 601 157 638 q 60 461 97 564 q 40 443 54 443 q 29 468 19 443 q 94 618 60 564 q 163 694 128 672 q 226 717 197 717 q 294 683 275 717 q 296 571 314 649 l 193 131 q 191 83 186 100 q 217 65 196 65 q 272 102 242 65 q 339 242 301 139 q 358 260 344 260 q 369 235 379 260 q 305 85 340 140 q 235 8 269 31 q 169 -14 200 -14 m 139 883 q 125 900 122 883 l 129 921 q 150 938 132 938 l 521 938 q 533 921 536 938 l 529 900 q 508 883 526 883 l 139 883 z "},"į":{"ha":400,"x_min":-15,"x_max":400,"o":"m 169 -14 q 104 20 124 -14 q 103 132 85 54 l 206 572 q 208 620 213 603 q 182 638 203 638 q 127 601 157 638 q 60 461 97 564 q 40 443 54 443 q 29 468 19 443 q 94 618 60 564 q 163 694 128 672 q 226 717 197 717 q 294 683 275 717 q 296 571 314 649 l 193 131 q 191 83 186 100 q 217 65 196 65 q 272 102 242 65 q 339 242 301 139 q 358 260 344 260 q 369 235 379 260 q 305 85 340 140 q 235 8 269 31 q 169 -14 200 -14 m 321 840 q 277 859 294 840 q 260 904 260 878 q 283 964 260 942 q 335 986 306 986 q 381 969 363 986 q 400 924 400 951 q 376 863 400 885 q 321 840 353 840 m 74 -300 q 13 -281 40 -300 q -15 -219 -15 -262 q 6 -149 -15 -185 q 62 -82 28 -114 q 135 -25 96 -50 q 210 14 175 0 l 221 0 q 140 -55 179 -21 q 76 -129 101 -89 q 51 -210 51 -169 q 65 -247 51 -236 q 97 -258 79 -258 q 158 -229 128 -258 q 174 -219 165 -222 q 188 -225 182 -217 q 187 -239 190 -232 q 176 -253 183 -246 q 130 -287 154 -275 q 74 -300 106 -300 z "},"j":{"ha":369,"x_min":-149,"x_max":363,"o":"m 283 840 q 240 859 257 840 q 222 904 222 878 q 245 964 222 942 q 297 986 268 986 q 344 969 325 986 q 363 924 363 951 q 339 863 363 885 q 283 840 315 840 m -49 -299 q -123 -272 -97 -299 q -149 -206 -149 -244 q -133 -162 -149 -176 q -100 -147 -118 -147 q -65 -165 -74 -147 q -54 -204 -56 -182 q -47 -244 -53 -226 q -22 -261 -42 -261 q 6 -243 -7 -261 q 35 -158 19 -225 l 206 572 q 208 620 213 603 q 182 638 203 638 q 127 601 157 638 q 60 461 97 564 q 40 443 54 443 q 29 468 19 443 q 94 618 60 564 q 163 694 128 672 q 226 717 197 717 q 295 683 275 717 q 297 571 315 649 l 153 -51 q 73 -233 126 -167 q -49 -299 19 -299 z "},"ȷ":{"ha":369,"x_min":-149,"x_max":315,"o":"m -49 -299 q -123 -272 -97 -299 q -149 -206 -149 -244 q -133 -162 -149 -176 q -100 -147 -118 -147 q -65 -165 -74 -147 q -54 -204 -56 -182 q -47 -244 -53 -226 q -22 -261 -42 -261 q 6 -243 -7 -261 q 35 -158 19 -225 l 206 572 q 208 620 213 603 q 182 638 203 638 q 127 601 157 638 q 60 461 97 564 q 40 443 54 443 q 29 468 19 443 q 94 618 60 564 q 163 694 128 672 q 226 717 197 717 q 295 683 275 717 q 297 571 315 649 l 153 -51 q 73 -233 126 -167 q -49 -299 19 -299 z "},"k":{"ha":621,"x_min":6,"x_max":590,"o":"m 442 -12 q 326 103 371 -12 l 250 304 q 215 338 236 338 q 179 303 194 338 q 149 220 165 272 q 119 107 133 168 l 99 15 q 79 0 94 0 l 25 0 q 10 18 6 0 l 213 889 q 213 923 218 913 q 188 935 207 933 l 146 939 q 128 957 125 942 q 147 972 131 969 q 243 994 207 982 q 299 1024 279 1007 q 318 1032 310 1032 q 332 1011 336 1032 l 203 461 q 207 450 201 451 q 217 457 213 449 l 263 539 q 488 717 363 717 q 563 692 535 717 q 590 624 590 667 q 524 488 590 556 q 351 376 458 419 q 332 332 318 364 l 413 126 q 440 77 426 92 q 475 63 454 63 q 524 102 507 63 q 553 240 540 142 q 569 258 556 258 q 583 231 585 258 q 540 51 576 114 q 442 -12 503 -12 m 229 400 q 228 381 224 388 q 246 378 233 375 q 432 474 361 407 q 503 621 503 540 q 463 674 503 674 q 353 601 415 674 q 229 400 290 528 z "},"ķ":{"ha":621,"x_min":6,"x_max":590,"o":"m 442 -12 q 326 103 371 -12 l 250 304 q 215 338 236 338 q 179 303 194 338 q 149 220 165 272 q 119 107 133 168 l 99 15 q 79 0 94 0 l 25 0 q 10 18 6 0 l 213 889 q 213 923 218 913 q 188 935 207 933 l 146 939 q 128 957 125 942 q 147 972 131 969 q 243 994 207 982 q 299 1024 279 1007 q 318 1032 310 1032 q 332 1011 336 1032 l 203 461 q 207 450 201 451 q 217 457 213 449 l 263 539 q 488 717 363 717 q 563 692 535 717 q 590 624 590 667 q 524 488 590 556 q 351 376 458 419 q 332 332 318 364 l 413 126 q 440 77 426 92 q 475 63 454 63 q 524 102 507 63 q 553 240 540 142 q 569 258 556 258 q 583 231 585 258 q 540 51 576 114 q 442 -12 503 -12 m 229 400 q 228 381 224 388 q 246 378 233 375 q 432 474 361 407 q 503 621 503 540 q 463 674 503 674 q 353 601 415 674 q 229 400 290 528 m 193 -93 q 242 -115 224 -93 q 261 -174 261 -137 q 215 -302 261 -240 q 90 -408 168 -364 q 74 -414 82 -412 q 61 -410 65 -415 q 60 -396 56 -403 q 72 -383 65 -389 q 147 -320 124 -349 q 169 -261 169 -292 q 158 -228 169 -239 q 136 -203 147 -217 q 125 -162 125 -190 q 146 -112 125 -132 q 193 -93 167 -93 z "},"l":{"ha":333,"x_min":18,"x_max":336,"o":"m 103 -14 q 38 20 57 -14 q 36 132 18 54 l 213 889 q 213 924 219 914 q 188 935 207 933 l 146 939 q 128 957 125 940 q 147 972 131 969 q 236 992 197 981 q 299 1024 275 1004 q 319 1032 310 1032 q 332 1011 336 1032 l 126 131 q 124 83 119 100 q 150 65 129 65 q 205 102 175 65 q 272 242 235 139 q 292 260 278 260 q 303 235 313 260 q 238 85 274 140 q 168 8 203 31 q 103 -14 133 -14 z "},"ĺ":{"ha":333,"x_min":18,"x_max":481,"o":"m 103 -14 q 38 20 57 -14 q 36 132 18 54 l 213 889 q 213 924 219 914 q 188 935 207 933 l 146 939 q 128 957 125 940 q 147 972 131 969 q 236 992 197 981 q 299 1024 275 1004 q 319 1032 310 1032 q 332 1011 336 1032 l 126 131 q 124 83 119 100 q 150 65 129 65 q 205 102 175 65 q 272 242 235 139 q 292 260 278 260 q 303 235 313 260 q 238 85 274 140 q 168 8 203 31 q 103 -14 133 -14 m 156 1090 q 124 1099 131 1081 q 142 1129 118 1113 l 360 1278 q 426 1306 399 1306 q 467 1292 454 1306 q 481 1258 481 1278 q 466 1222 481 1238 q 410 1190 451 1207 l 156 1090 z "},"ľ":{"ha":417,"x_min":18,"x_max":518,"o":"m 103 -14 q 38 20 57 -14 q 36 132 18 54 l 213 889 q 213 924 219 914 q 188 935 207 933 l 146 939 q 128 957 125 940 q 147 972 131 969 q 236 992 197 981 q 299 1024 275 1004 q 319 1032 310 1032 q 332 1011 336 1032 l 126 131 q 124 83 119 100 q 150 65 129 65 q 205 102 175 65 q 272 242 235 139 q 292 260 278 260 q 303 235 313 260 q 238 85 274 140 q 168 8 203 31 q 103 -14 133 -14 m 397 732 q 371 718 389 715 q 358 743 353 721 l 415 965 q 442 1015 424 1000 q 483 1028 461 1031 q 513 1002 508 1025 q 503 947 518 979 l 397 732 z "},"ļ":{"ha":333,"x_min":-89,"x_max":336,"o":"m 103 -14 q 38 20 57 -14 q 36 132 18 54 l 213 889 q 213 924 219 914 q 188 935 207 933 l 146 939 q 128 957 125 940 q 147 972 131 969 q 236 992 197 981 q 299 1024 275 1004 q 319 1032 310 1032 q 332 1011 336 1032 l 126 131 q 124 83 119 100 q 150 65 129 65 q 205 102 175 65 q 272 242 235 139 q 292 260 278 260 q 303 235 313 260 q 238 85 274 140 q 168 8 203 31 q 103 -14 133 -14 m 49 -93 q 98 -115 79 -93 q 117 -174 117 -137 q 70 -302 117 -240 q -54 -408 24 -364 q -71 -414 -62 -412 q -83 -410 -79 -415 q -84 -396 -89 -403 q -72 -383 -79 -389 q 2 -320 -21 -349 q 25 -261 25 -292 q 14 -228 25 -239 q -8 -203 3 -217 q -19 -162 -19 -190 q 1 -112 -19 -132 q 49 -93 22 -93 z "},"ł":{"ha":376,"x_min":22,"x_max":428,"o":"m 146 -14 q 81 20 100 -14 q 79 132 61 54 l 153 450 l 53 393 q 35 397 40 388 l 29 407 q 38 426 22 418 l 164 497 l 256 889 q 256 924 263 914 q 231 935 250 933 l 189 939 q 171 957 168 940 q 190 972 174 969 q 279 992 240 981 q 342 1024 318 1004 q 363 1032 353 1032 q 375 1011 379 1032 l 267 547 l 399 622 q 417 618 413 629 l 422 608 q 414 589 428 596 l 256 500 l 169 131 q 167 83 163 100 q 193 65 172 65 q 248 102 218 65 q 315 242 278 139 q 335 260 321 260 q 346 235 356 260 q 281 85 317 140 q 211 8 246 31 q 146 -14 176 -14 z "},"m":{"ha":1035,"x_min":19,"x_max":1006,"o":"m 821 -12 q 746 29 771 -12 q 743 158 721 71 l 850 561 q 855 636 865 615 q 825 657 844 657 q 761 619 797 657 q 685 515 725 581 q 608 367 646 450 q 539 193 571 283 q 486 15 507 103 q 467 0 482 0 l 413 0 q 397 18 393 0 l 525 561 q 528 636 538 615 q 500 657 519 657 q 438 619 474 657 q 363 515 401 581 q 286 367 324 450 q 217 193 249 283 q 165 15 185 103 q 146 0 161 0 l 89 0 q 74 18 69 0 l 206 572 q 208 620 213 603 q 182 638 203 638 q 127 601 157 638 q 60 461 97 564 q 40 443 54 443 q 29 468 19 443 q 94 618 60 564 q 163 694 128 672 q 226 717 197 717 q 292 683 272 717 q 293 571 311 649 l 258 421 q 263 410 257 411 q 272 417 268 408 q 418 650 353 583 q 538 717 483 717 q 610 675 589 717 q 613 547 632 633 l 583 421 q 588 410 582 411 q 597 417 593 408 q 697 595 650 529 q 785 689 743 661 q 863 717 826 717 q 938 675 914 717 q 938 547 961 633 l 832 144 q 831 86 822 106 q 861 67 839 67 q 916 103 889 67 q 972 243 943 140 q 990 258 976 258 q 1003 250 1001 258 q 1003 231 1006 242 q 946 83 976 136 q 884 8 915 29 q 821 -12 853 -12 z "},"n":{"ha":724,"x_min":19,"x_max":694,"o":"m 74 18 l 206 572 q 208 620 213 603 q 182 638 203 638 q 127 601 157 638 q 60 461 97 564 q 40 443 54 443 q 29 468 19 443 q 94 618 60 564 q 163 694 128 672 q 226 717 197 717 q 292 683 272 717 q 293 571 311 649 l 258 421 q 263 410 257 411 q 272 417 268 408 q 376 595 326 529 q 471 689 426 661 q 551 717 515 717 q 626 675 603 717 q 626 547 650 633 l 521 144 q 519 86 511 106 q 550 67 528 67 q 605 103 578 67 q 661 243 632 140 q 679 258 665 258 q 692 250 690 258 q 692 231 694 242 q 635 83 665 136 q 573 8 604 29 q 510 -12 542 -12 q 435 29 460 -12 q 432 158 410 71 l 539 561 q 544 636 554 615 q 514 657 533 657 q 444 619 483 657 q 365 515 406 581 q 286 365 325 449 q 216 192 247 282 q 165 15 185 101 q 146 0 161 0 l 89 0 q 74 18 69 0 z "},"ń":{"ha":724,"x_min":19,"x_max":694,"o":"m 74 18 l 206 572 q 208 620 213 603 q 182 638 203 638 q 127 601 157 638 q 60 461 97 564 q 40 443 54 443 q 29 468 19 443 q 94 618 60 564 q 163 694 128 672 q 226 717 197 717 q 292 683 272 717 q 293 571 311 649 l 258 421 q 263 410 257 411 q 272 417 268 408 q 376 595 326 529 q 471 689 426 661 q 551 717 515 717 q 626 675 603 717 q 626 547 650 633 l 521 144 q 519 86 511 106 q 550 67 528 67 q 605 103 578 67 q 661 243 632 140 q 679 258 665 258 q 692 250 690 258 q 692 231 694 242 q 635 83 665 136 q 573 8 604 29 q 510 -12 542 -12 q 435 29 460 -12 q 432 158 410 71 l 539 561 q 544 636 554 615 q 514 657 533 657 q 444 619 483 657 q 365 515 406 581 q 286 365 325 449 q 216 192 247 282 q 165 15 185 101 q 146 0 161 0 l 89 0 q 74 18 69 0 m 365 813 q 333 821 340 803 q 351 851 328 835 l 569 1000 q 636 1028 608 1028 q 677 1014 664 1028 q 690 981 690 1000 q 676 944 690 960 q 619 913 661 929 l 365 813 z "},"ň":{"ha":724,"x_min":19,"x_max":738,"o":"m 74 18 l 206 572 q 208 620 213 603 q 182 638 203 638 q 127 601 157 638 q 60 461 97 564 q 40 443 54 443 q 29 468 19 443 q 94 618 60 564 q 163 694 128 672 q 226 717 197 717 q 292 683 272 717 q 293 571 311 649 l 258 421 q 263 410 257 411 q 272 417 268 408 q 376 595 326 529 q 471 689 426 661 q 551 717 515 717 q 626 675 603 717 q 626 547 650 633 l 521 144 q 519 86 511 106 q 550 67 528 67 q 605 103 578 67 q 661 243 632 140 q 679 258 665 258 q 692 250 690 258 q 692 231 694 242 q 635 83 665 136 q 573 8 604 29 q 510 -12 542 -12 q 435 29 460 -12 q 432 158 410 71 l 539 561 q 544 636 554 615 q 514 657 533 657 q 444 619 483 657 q 365 515 406 581 q 286 365 325 449 q 216 192 247 282 q 165 15 185 101 q 146 0 161 0 l 89 0 q 74 18 69 0 m 454 807 q 424 822 435 807 l 301 992 q 300 1014 293 1004 q 331 1013 310 1026 l 479 897 l 693 1021 q 726 1021 715 1035 q 719 992 738 1007 l 519 822 q 481 807 500 807 l 454 807 z "},"ņ":{"ha":724,"x_min":19,"x_max":694,"o":"m 74 18 l 206 572 q 208 620 213 603 q 182 638 203 638 q 127 601 157 638 q 60 461 97 564 q 40 443 54 443 q 29 468 19 443 q 94 618 60 564 q 163 694 128 672 q 226 717 197 717 q 292 683 272 717 q 293 571 311 649 l 258 421 q 263 410 257 411 q 272 417 268 408 q 376 595 326 529 q 471 689 426 661 q 551 717 515 717 q 626 675 603 717 q 626 547 650 633 l 521 144 q 519 86 511 106 q 550 67 528 67 q 605 103 578 67 q 661 243 632 140 q 679 258 665 258 q 692 250 690 258 q 692 231 694 242 q 635 83 665 136 q 573 8 604 29 q 510 -12 542 -12 q 435 29 460 -12 q 432 158 410 71 l 539 561 q 544 636 554 615 q 514 657 533 657 q 444 619 483 657 q 365 515 406 581 q 286 365 325 449 q 216 192 247 282 q 165 15 185 101 q 146 0 161 0 l 89 0 q 74 18 69 0 m 244 -93 q 294 -115 275 -93 q 313 -174 313 -137 q 266 -302 313 -240 q 142 -408 219 -364 q 125 -414 133 -412 q 113 -410 117 -415 q 112 -396 107 -403 q 124 -383 117 -389 q 198 -320 175 -349 q 221 -261 221 -292 q 210 -228 221 -239 q 188 -203 199 -217 q 176 -162 176 -190 q 197 -112 176 -132 q 244 -93 218 -93 z "},"ñ":{"ha":724,"x_min":19,"x_max":736,"o":"m 74 18 l 206 572 q 208 620 213 603 q 182 638 203 638 q 127 601 157 638 q 60 461 97 564 q 40 443 54 443 q 29 468 19 443 q 94 618 60 564 q 163 694 128 672 q 226 717 197 717 q 292 683 272 717 q 293 571 311 649 l 258 421 q 263 410 257 411 q 272 417 268 408 q 376 595 326 529 q 471 689 426 661 q 551 717 515 717 q 626 675 603 717 q 626 547 650 633 l 521 144 q 519 86 511 106 q 550 67 528 67 q 605 103 578 67 q 661 243 632 140 q 679 258 665 258 q 692 250 690 258 q 692 231 694 242 q 635 83 665 136 q 573 8 604 29 q 510 -12 542 -12 q 435 29 460 -12 q 432 158 410 71 l 539 561 q 544 636 554 615 q 514 657 533 657 q 444 619 483 657 q 365 515 406 581 q 286 365 325 449 q 216 192 247 282 q 165 15 185 101 q 146 0 161 0 l 89 0 q 74 18 69 0 m 574 829 q 521 843 543 829 q 480 874 499 857 q 440 906 461 892 q 390 919 419 919 q 328 902 353 919 q 285 849 304 885 q 263 832 276 832 q 251 838 256 832 q 251 853 247 843 q 317 960 281 924 q 410 997 354 997 q 465 983 442 997 q 506 952 488 969 q 545 921 525 935 q 593 907 565 907 q 654 924 631 907 q 697 978 678 942 q 719 994 706 994 q 732 989 728 994 q 732 974 736 983 q 665 866 701 903 q 574 829 629 829 z "},"ŋ":{"ha":690,"x_min":19,"x_max":649,"o":"m 268 -299 q 194 -272 219 -299 q 168 -206 168 -244 q 183 -162 168 -176 q 217 -147 199 -147 q 252 -165 243 -147 q 263 -204 261 -182 q 269 -244 264 -226 q 294 -261 275 -261 q 322 -243 310 -261 q 353 -158 335 -225 l 539 561 q 543 636 553 615 q 514 657 533 657 q 444 619 483 657 q 365 515 406 581 q 286 365 325 449 q 216 192 247 282 q 165 15 185 101 q 146 0 161 0 l 89 0 q 74 18 69 0 l 206 572 q 208 620 213 603 q 182 638 203 638 q 127 601 157 638 q 60 461 97 564 q 40 443 54 443 q 29 468 19 443 q 94 618 60 564 q 163 694 128 672 q 226 717 197 717 q 292 683 272 717 q 293 571 311 649 l 258 421 q 263 410 257 411 q 272 417 268 408 q 376 595 326 529 q 471 689 426 661 q 551 717 515 717 q 626 675 603 717 q 626 547 649 633 l 469 -51 q 388 -232 439 -165 q 268 -299 336 -299 z "},"o":{"ha":575,"x_min":28,"x_max":546,"o":"m 214 -12 q 78 59 128 -12 q 28 253 28 131 q 57 426 28 343 q 134 575 86 510 q 241 678 182 640 q 360 717 300 717 q 496 646 446 717 q 546 451 546 575 q 517 278 546 361 q 440 129 488 194 q 333 26 392 64 q 214 -12 274 -12 m 211 21 q 298 64 256 21 q 375 178 340 107 q 431 335 410 249 q 451 510 451 422 q 361 683 451 683 q 275 641 318 683 q 198 528 232 599 q 143 370 164 457 q 122 196 122 283 q 211 21 122 21 z "},"ó":{"ha":575,"x_min":28,"x_max":615,"o":"m 214 -12 q 78 59 128 -12 q 28 253 28 131 q 57 426 28 343 q 134 575 86 510 q 241 678 182 640 q 360 717 300 717 q 496 646 446 717 q 546 451 546 575 q 517 278 546 361 q 440 129 488 194 q 333 26 392 64 q 214 -12 274 -12 m 211 21 q 298 64 256 21 q 375 178 340 107 q 431 335 410 249 q 451 510 451 422 q 361 683 451 683 q 275 641 318 683 q 198 528 232 599 q 143 370 164 457 q 122 196 122 283 q 211 21 122 21 m 290 813 q 258 821 265 803 q 276 851 253 835 l 494 1000 q 561 1028 533 1028 q 602 1014 589 1028 q 615 981 615 1000 q 601 944 615 960 q 544 913 586 929 l 290 813 z "},"ô":{"ha":575,"x_min":28,"x_max":617,"o":"m 214 -12 q 78 59 128 -12 q 28 253 28 131 q 57 426 28 343 q 134 575 86 510 q 241 678 182 640 q 360 717 300 717 q 496 646 446 717 q 546 451 546 575 q 517 278 546 361 q 440 129 488 194 q 333 26 392 64 q 214 -12 274 -12 m 211 21 q 298 64 256 21 q 375 178 340 107 q 431 335 410 249 q 451 510 451 422 q 361 683 451 683 q 275 641 318 683 q 198 528 232 599 q 143 370 164 457 q 122 196 122 283 q 211 21 122 21 m 217 814 q 183 814 194 800 q 190 843 172 828 l 390 1013 q 429 1028 410 1028 l 456 1028 q 486 1013 475 1028 l 608 843 q 610 821 617 831 q 581 822 600 808 l 432 938 l 217 814 z "},"ö":{"ha":575,"x_min":28,"x_max":617,"o":"m 214 -12 q 78 59 128 -12 q 28 253 28 131 q 57 426 28 343 q 134 575 86 510 q 241 678 182 640 q 360 717 300 717 q 496 646 446 717 q 546 451 546 575 q 517 278 546 361 q 440 129 488 194 q 333 26 392 64 q 214 -12 274 -12 m 211 21 q 298 64 256 21 q 375 178 340 107 q 431 335 410 249 q 451 510 451 422 q 361 683 451 683 q 275 641 318 683 q 198 528 232 599 q 143 370 164 457 q 122 196 122 283 q 211 21 122 21 m 278 840 q 233 859 250 840 q 217 904 217 878 q 239 960 217 939 q 290 981 261 981 q 335 963 318 981 q 351 917 351 944 q 329 861 351 882 q 278 840 307 840 m 543 840 q 499 859 515 840 q 482 904 482 878 q 504 960 482 939 q 556 981 526 981 q 600 963 583 981 q 617 917 617 944 q 594 861 617 882 q 543 840 572 840 z "},"ò":{"ha":575,"x_min":28,"x_max":546,"o":"m 214 -12 q 78 59 128 -12 q 28 253 28 131 q 57 426 28 343 q 134 575 86 510 q 241 678 182 640 q 360 717 300 717 q 496 646 446 717 q 546 451 546 575 q 517 278 546 361 q 440 129 488 194 q 333 26 392 64 q 214 -12 274 -12 m 211 21 q 298 64 256 21 q 375 178 340 107 q 431 335 410 249 q 451 510 451 422 q 361 683 451 683 q 275 641 318 683 q 198 528 232 599 q 143 370 164 457 q 122 196 122 283 q 211 21 122 21 m 494 811 l 299 918 q 243 982 243 947 q 258 1015 243 1001 q 296 1028 274 1028 q 328 1022 315 1028 q 360 999 342 1015 l 522 844 q 533 824 533 833 q 522 806 533 811 q 494 811 511 801 z "},"ő":{"ha":575,"x_min":28,"x_max":631,"o":"m 214 -12 q 78 59 128 -12 q 28 253 28 131 q 57 426 28 343 q 134 575 86 510 q 241 678 182 640 q 360 717 300 717 q 496 646 446 717 q 546 451 546 575 q 517 278 546 361 q 440 129 488 194 q 333 26 392 64 q 214 -12 274 -12 m 211 21 q 298 64 256 21 q 375 178 340 107 q 431 335 410 249 q 451 510 451 422 q 361 683 451 683 q 275 641 318 683 q 198 528 232 599 q 143 370 164 457 q 122 196 122 283 q 211 21 122 21 m 233 818 q 201 817 215 803 q 207 849 192 826 l 308 986 q 340 1019 326 1010 q 372 1028 354 1028 q 408 1014 396 1028 q 419 983 419 1000 q 369 918 419 954 l 233 818 m 444 818 q 413 817 426 803 q 418 849 403 826 l 519 986 q 551 1019 538 1010 q 583 1028 565 1028 q 619 1014 607 1028 q 631 983 631 1000 q 581 918 631 954 l 444 818 z "},"ō":{"ha":575,"x_min":28,"x_max":624,"o":"m 214 -12 q 78 59 128 -12 q 28 253 28 131 q 57 426 28 343 q 134 575 86 510 q 241 678 182 640 q 360 717 300 717 q 496 646 446 717 q 546 451 546 575 q 517 278 546 361 q 440 129 488 194 q 333 26 392 64 q 214 -12 274 -12 m 211 21 q 298 64 256 21 q 375 178 340 107 q 431 335 410 249 q 451 510 451 422 q 361 683 451 683 q 275 641 318 683 q 198 528 232 599 q 143 370 164 457 q 122 196 122 283 q 211 21 122 21 m 226 883 q 213 900 210 883 l 217 921 q 238 938 219 938 l 608 938 q 621 921 624 938 l 617 900 q 596 883 614 883 l 226 883 z "},"ø":{"ha":575,"x_min":6,"x_max":556,"o":"m 24 -69 q 15 -53 6 -69 l 81 56 q 28 253 28 126 q 57 426 28 343 q 134 575 86 510 q 241 678 182 640 q 360 717 300 717 q 458 685 417 717 l 508 767 q 525 778 514 778 l 538 778 q 546 761 556 778 l 485 660 q 546 451 546 589 q 517 278 546 361 q 440 129 488 194 q 333 26 392 64 q 214 -12 274 -12 q 104 28 150 -12 l 53 -58 q 36 -69 47 -69 l 24 -69 m 122 196 q 126 132 122 160 l 431 638 q 361 683 408 683 q 275 641 318 683 q 198 528 232 599 q 143 370 164 457 q 122 196 122 283 m 211 21 q 298 64 256 21 q 375 178 340 107 q 431 335 410 249 q 451 510 451 422 q 444 593 451 558 l 138 82 q 211 21 160 21 z "},"õ":{"ha":575,"x_min":28,"x_max":661,"o":"m 214 -12 q 78 59 128 -12 q 28 253 28 131 q 57 426 28 343 q 134 575 86 510 q 241 678 182 640 q 360 717 300 717 q 496 646 446 717 q 546 451 546 575 q 517 278 546 361 q 440 129 488 194 q 333 26 392 64 q 214 -12 274 -12 m 211 21 q 298 64 256 21 q 375 178 340 107 q 431 335 410 249 q 451 510 451 422 q 361 683 451 683 q 275 641 318 683 q 198 528 232 599 q 143 370 164 457 q 122 196 122 283 q 211 21 122 21 m 499 829 q 446 843 468 829 q 405 874 424 857 q 365 906 386 892 q 315 919 344 919 q 253 902 278 919 q 210 849 229 885 q 188 832 201 832 q 176 838 181 832 q 176 853 172 843 q 242 960 206 924 q 335 997 279 997 q 390 983 367 997 q 431 952 413 969 q 470 921 450 935 q 518 907 490 907 q 579 924 556 907 q 622 978 603 942 q 644 994 631 994 q 657 989 653 994 q 657 974 661 983 q 590 866 626 903 q 499 829 554 829 z "},"œ":{"ha":882,"x_min":28,"x_max":894,"o":"m 214 -12 q 78 59 128 -12 q 28 253 28 131 q 57 426 28 343 q 134 575 86 510 q 241 678 182 640 q 360 717 300 717 q 470 671 429 717 q 525 543 511 625 q 644 668 578 619 q 772 717 710 717 q 866 685 838 717 q 894 601 894 654 q 851 477 894 539 q 728 367 807 415 q 544 294 650 318 q 513 260 514 288 q 511 240 511 250 q 511 219 511 229 q 538 100 511 140 q 613 60 565 60 q 715 108 665 60 q 797 246 764 157 q 814 258 801 258 q 824 251 822 258 q 824 235 826 244 q 716 50 779 113 q 578 -12 653 -12 q 481 22 521 -12 q 425 118 442 56 q 326 23 382 58 q 214 -12 271 -12 m 211 21 q 298 64 256 21 q 375 178 340 107 q 431 335 410 249 q 451 510 451 422 q 361 683 451 683 q 275 641 318 683 q 198 528 232 599 q 143 370 164 457 q 122 196 122 283 q 211 21 122 21 m 526 347 q 530 331 524 338 q 546 328 536 325 q 690 399 632 351 q 778 507 749 447 q 808 624 808 567 q 763 682 808 682 q 675 635 722 682 q 588 511 628 588 q 526 347 547 435 z "},"p":{"ha":625,"x_min":-124,"x_max":597,"o":"m -106 -285 q -124 -269 -124 -285 q -101 -253 -124 -256 l -82 -250 q -41 -234 -54 -246 q -21 -192 -28 -222 l 164 606 q 160 623 167 617 q 143 622 154 629 q 117 608 129 615 q 92 592 104 600 q 71 587 79 583 q 63 600 63 590 q 76 619 63 610 q 157 665 115 646 q 186 701 181 676 l 204 781 q 240 810 211 810 l 265 810 q 290 800 282 810 q 294 772 299 790 l 285 732 q 303 713 281 708 q 364 717 335 717 q 532 658 467 717 q 597 479 597 600 q 563 297 597 385 q 471 139 528 208 q 346 28 414 69 q 210 -12 278 -12 q 139 3 172 -12 q 114 -8 118 13 l 72 -192 q 73 -232 65 -222 q 107 -246 81 -242 l 143 -251 q 168 -268 168 -256 q 144 -285 168 -285 l -106 -285 m 153 160 q 213 22 128 22 q 311 63 261 22 q 404 173 361 104 q 474 328 447 242 q 500 504 500 414 q 460 638 500 597 q 342 679 419 679 q 263 632 272 679 l 153 160 z "},"þ":{"ha":608,"x_min":-140,"x_max":581,"o":"m -122 -285 q -140 -269 -140 -285 q -118 -253 -140 -256 l -99 -250 q -58 -234 -71 -246 q -37 -192 -44 -222 l 147 606 q 144 623 150 617 q 126 622 138 629 q 100 608 113 615 q 75 592 88 600 q 54 587 63 583 q 46 600 46 590 q 60 619 46 610 q 140 665 99 646 q 169 701 164 676 l 213 889 q 213 924 219 914 q 188 935 207 933 l 146 939 q 128 957 125 940 q 147 972 131 969 q 238 992 197 981 q 303 1024 279 1004 q 324 1032 314 1032 q 336 1011 340 1032 l 268 732 q 286 713 264 708 q 347 717 318 717 q 515 658 450 717 q 581 479 581 600 q 546 297 581 385 q 454 139 511 208 q 329 28 397 69 q 193 -12 261 -12 q 122 3 156 -12 q 97 -8 101 13 l 56 -192 q 56 -232 49 -222 q 90 -246 64 -242 l 126 -251 q 151 -268 151 -256 q 128 -285 151 -285 l -122 -285 m 196 22 q 294 63 244 22 q 388 173 344 104 q 457 328 431 242 q 483 504 483 414 q 443 638 483 597 q 325 679 403 679 q 246 632 256 679 l 136 160 q 196 22 111 22 z "},"q":{"ha":590,"x_min":18,"x_max":586,"o":"m 186 -285 q 168 -269 168 -285 q 190 -253 168 -256 l 225 -250 q 265 -235 253 -247 q 285 -192 278 -222 l 383 233 q 380 244 386 243 q 369 238 374 246 q 280 88 322 142 q 199 10 238 33 q 125 -12 161 -12 q 46 31 74 -12 q 18 157 18 74 q 40 316 18 236 q 101 468 63 396 q 190 596 140 540 q 294 684 239 651 q 403 717 349 717 q 453 706 429 717 q 492 674 476 696 q 508 661 500 661 q 525 674 517 661 q 550 702 540 696 q 568 708 560 708 q 582 689 586 708 l 378 -192 q 378 -233 371 -222 q 411 -247 386 -243 l 435 -251 q 460 -268 460 -256 q 436 -285 460 -285 l 186 -285 m 158 58 q 232 99 192 58 q 312 203 272 139 q 385 340 351 267 q 438 482 418 414 q 458 597 458 550 q 399 682 458 682 q 322 649 363 682 q 245 561 282 617 q 178 435 208 506 q 131 290 149 365 q 113 142 113 214 q 126 76 113 93 q 158 58 139 58 z "},"r":{"ha":511,"x_min":19,"x_max":561,"o":"m 89 0 q 74 18 69 0 l 206 572 q 208 620 213 603 q 182 638 203 638 q 127 601 157 638 q 60 461 97 564 q 40 443 54 443 q 29 468 19 443 q 94 618 60 564 q 163 694 128 672 q 226 717 197 717 q 292 683 272 717 q 293 571 311 649 l 278 506 q 282 494 276 496 q 292 501 288 493 q 388 669 344 622 q 486 717 431 717 q 542 697 524 717 q 561 642 561 676 q 544 586 561 607 q 501 565 528 565 q 469 576 479 565 q 455 602 460 588 q 444 628 450 617 q 426 639 439 639 q 372 586 406 639 q 301 444 339 533 q 227 243 263 354 q 165 15 192 132 q 146 0 161 0 l 89 0 z "},"ŕ":{"ha":511,"x_min":19,"x_max":583,"o":"m 89 0 q 74 18 69 0 l 206 572 q 208 620 213 603 q 182 638 203 638 q 127 601 157 638 q 60 461 97 564 q 40 443 54 443 q 29 468 19 443 q 94 618 60 564 q 163 694 128 672 q 226 717 197 717 q 292 683 272 717 q 293 571 311 649 l 278 506 q 282 494 276 496 q 292 501 288 493 q 388 669 344 622 q 486 717 431 717 q 542 697 524 717 q 561 642 561 676 q 544 586 561 607 q 501 565 528 565 q 469 576 479 565 q 455 602 460 588 q 444 628 450 617 q 426 639 439 639 q 372 586 406 639 q 301 444 339 533 q 227 243 263 354 q 165 15 192 132 q 146 0 161 0 l 89 0 m 258 813 q 226 821 233 803 q 244 851 221 835 l 463 1000 q 529 1028 501 1028 q 570 1014 557 1028 q 583 981 583 1000 q 569 944 583 960 q 513 913 554 929 l 258 813 z "},"ř":{"ha":511,"x_min":19,"x_max":631,"o":"m 89 0 q 74 18 69 0 l 206 572 q 208 620 213 603 q 182 638 203 638 q 127 601 157 638 q 60 461 97 564 q 40 443 54 443 q 29 468 19 443 q 94 618 60 564 q 163 694 128 672 q 226 717 197 717 q 292 683 272 717 q 293 571 311 649 l 278 506 q 282 494 276 496 q 292 501 288 493 q 388 669 344 622 q 486 717 431 717 q 542 697 524 717 q 561 642 561 676 q 544 586 561 607 q 501 565 528 565 q 469 576 479 565 q 455 602 460 588 q 444 628 450 617 q 426 639 439 639 q 372 586 406 639 q 301 444 339 533 q 227 243 263 354 q 165 15 192 132 q 146 0 161 0 l 89 0 m 347 807 q 317 822 328 807 l 194 992 q 193 1014 186 1004 q 224 1013 203 1026 l 372 897 l 586 1021 q 619 1021 608 1035 q 613 992 631 1007 l 413 822 q 374 807 393 807 l 347 807 z "},"ŗ":{"ha":511,"x_min":-54,"x_max":561,"o":"m 89 0 q 74 18 69 0 l 206 572 q 208 620 213 603 q 182 638 203 638 q 127 601 157 638 q 60 461 97 564 q 40 443 54 443 q 29 468 19 443 q 94 618 60 564 q 163 694 128 672 q 226 717 197 717 q 292 683 272 717 q 293 571 311 649 l 278 506 q 282 494 276 496 q 292 501 288 493 q 388 669 344 622 q 486 717 431 717 q 542 697 524 717 q 561 642 561 676 q 544 586 561 607 q 501 565 528 565 q 469 576 479 565 q 455 602 460 588 q 444 628 450 617 q 426 639 439 639 q 372 586 406 639 q 301 444 339 533 q 227 243 263 354 q 165 15 192 132 q 146 0 161 0 l 89 0 m 83 -93 q 133 -115 114 -93 q 151 -174 151 -137 q 105 -302 151 -240 q -19 -408 58 -364 q -36 -414 -28 -412 q -49 -410 -44 -415 q -49 -396 -54 -403 q -37 -383 -44 -389 q 37 -320 14 -349 q 60 -261 60 -292 q 49 -228 60 -239 q 26 -203 38 -217 q 15 -162 15 -190 q 36 -112 15 -132 q 83 -93 57 -93 z "},"s":{"ha":419,"x_min":-22,"x_max":426,"o":"m 161 -12 q 65 1 115 -12 q -12 36 14 15 q -21 61 -22 44 l 10 243 q 26 261 13 261 q 42 242 42 261 l 44 175 q 83 59 47 96 q 169 22 118 22 q 246 51 214 22 q 278 135 278 79 q 268 194 278 167 q 238 252 258 221 q 181 328 217 283 q 110 433 133 389 q 88 524 88 476 q 142 664 88 611 q 282 717 197 717 q 355 706 319 717 q 414 672 390 694 q 422 647 426 663 l 383 461 q 367 443 379 443 q 351 463 354 443 l 347 529 q 326 649 342 613 q 260 685 310 685 q 188 654 215 685 q 160 581 160 624 q 185 497 160 535 q 253 400 210 458 q 330 281 310 325 q 350 190 350 236 q 324 86 350 132 q 256 14 299 40 q 161 -12 213 -12 z "},"ś":{"ha":419,"x_min":-22,"x_max":533,"o":"m 161 -12 q 65 1 115 -12 q -12 36 14 15 q -21 61 -22 44 l 10 243 q 26 261 13 261 q 42 242 42 261 l 44 175 q 83 59 47 96 q 169 22 118 22 q 246 51 214 22 q 278 135 278 79 q 268 194 278 167 q 238 252 258 221 q 181 328 217 283 q 110 433 133 389 q 88 524 88 476 q 142 664 88 611 q 282 717 197 717 q 355 706 319 717 q 414 672 390 694 q 422 647 426 663 l 383 461 q 367 443 379 443 q 351 463 354 443 l 347 529 q 326 649 342 613 q 260 685 310 685 q 188 654 215 685 q 160 581 160 624 q 185 497 160 535 q 253 400 210 458 q 330 281 310 325 q 350 190 350 236 q 324 86 350 132 q 256 14 299 40 q 161 -12 213 -12 m 208 813 q 176 821 183 803 q 194 851 171 835 l 413 1000 q 479 1028 451 1028 q 520 1014 507 1028 q 533 981 533 1000 q 519 944 533 960 q 463 913 504 929 l 208 813 z "},"š":{"ha":419,"x_min":-22,"x_max":581,"o":"m 161 -12 q 65 1 115 -12 q -12 36 14 15 q -21 61 -22 44 l 10 243 q 26 261 13 261 q 42 242 42 261 l 44 175 q 83 59 47 96 q 169 22 118 22 q 246 51 214 22 q 278 135 278 79 q 268 194 278 167 q 238 252 258 221 q 181 328 217 283 q 110 433 133 389 q 88 524 88 476 q 142 664 88 611 q 282 717 197 717 q 355 706 319 717 q 414 672 390 694 q 422 647 426 663 l 383 461 q 367 443 379 443 q 351 463 354 443 l 347 529 q 326 649 342 613 q 260 685 310 685 q 188 654 215 685 q 160 581 160 624 q 185 497 160 535 q 253 400 210 458 q 330 281 310 325 q 350 190 350 236 q 324 86 350 132 q 256 14 299 40 q 161 -12 213 -12 m 297 807 q 267 822 278 807 l 144 992 q 143 1014 136 1004 q 174 1013 153 1026 l 322 897 l 536 1021 q 569 1021 558 1035 q 563 992 581 1007 l 363 822 q 324 807 343 807 l 297 807 z "},"ş":{"ha":419,"x_min":-54,"x_max":426,"o":"m 161 -12 q 65 1 115 -12 q -12 36 14 15 q -21 61 -22 44 l 10 243 q 26 261 13 261 q 42 242 42 261 l 44 175 q 83 59 47 96 q 169 22 118 22 q 246 51 214 22 q 278 135 278 79 q 268 194 278 167 q 238 252 258 221 q 181 328 217 283 q 110 433 133 389 q 88 524 88 476 q 142 664 88 611 q 282 717 197 717 q 355 706 319 717 q 414 672 390 694 q 422 647 426 663 l 383 461 q 367 443 379 443 q 351 463 354 443 l 347 529 q 326 649 342 613 q 260 685 310 685 q 188 654 215 685 q 160 581 160 624 q 185 497 160 535 q 253 400 210 458 q 330 281 310 325 q 350 190 350 236 q 324 86 350 132 q 256 14 299 40 q 161 -12 213 -12 m 156 18 l 122 -60 q 126 -71 118 -68 q 187 -109 165 -83 q 208 -171 208 -135 q 161 -265 208 -231 q 53 -299 114 -299 q -25 -277 4 -299 q -54 -224 -54 -256 q -44 -194 -54 -206 q -15 -182 -33 -182 q 10 -195 6 -182 q 17 -226 15 -208 q 28 -258 19 -244 q 63 -271 36 -271 q 123 -243 103 -271 q 143 -185 143 -215 q 82 -117 143 -129 q 74 -99 68 -114 l 122 18 l 156 18 z "},"ș":{"ha":419,"x_min":-50,"x_max":426,"o":"m 161 -12 q 65 1 115 -12 q -12 36 14 15 q -21 61 -22 44 l 10 243 q 26 261 13 261 q 42 242 42 261 l 44 175 q 83 59 47 96 q 169 22 118 22 q 246 51 214 22 q 278 135 278 79 q 268 194 278 167 q 238 252 258 221 q 181 328 217 283 q 110 433 133 389 q 88 524 88 476 q 142 664 88 611 q 282 717 197 717 q 355 706 319 717 q 414 672 390 694 q 422 647 426 663 l 383 461 q 367 443 379 443 q 351 463 354 443 l 347 529 q 326 649 342 613 q 260 685 310 685 q 188 654 215 685 q 160 581 160 624 q 185 497 160 535 q 253 400 210 458 q 330 281 310 325 q 350 190 350 236 q 324 86 350 132 q 256 14 299 40 q 161 -12 213 -12 m 88 -93 q 137 -115 118 -93 q 156 -174 156 -137 q 109 -302 156 -240 q -15 -408 63 -364 q -32 -414 -24 -412 q -44 -410 -40 -415 q -45 -396 -50 -403 q -33 -383 -40 -389 q 41 -320 18 -349 q 64 -261 64 -292 q 53 -228 64 -239 q 31 -203 42 -217 q 19 -162 19 -190 q 40 -112 19 -132 q 88 -93 61 -93 z "},"ß":{"ha":592,"x_min":-74,"x_max":656,"o":"m 351 -12 q 278 -1 319 -12 q 206 33 236 11 q 199 58 194 43 l 229 214 q 250 235 233 235 q 267 210 267 235 q 286 66 268 108 q 360 24 304 24 q 441 57 413 24 q 469 157 469 90 q 450 242 469 210 q 392 314 431 275 q 299 488 299 406 q 326 587 299 546 q 394 660 354 628 q 475 724 435 692 q 543 796 515 756 q 571 892 571 836 q 483 985 571 985 q 376 941 424 985 q 306 803 328 897 l 128 28 q 93 0 121 0 l -53 0 q -69 15 -74 0 q -49 32 -67 31 l -12 35 q 28 51 17 38 q 47 93 40 64 l 171 624 q 144 675 182 669 l 115 681 q 101 693 101 683 q 126 708 101 708 q 179 724 157 708 q 211 779 201 740 q 266 905 229 849 q 359 994 303 961 q 490 1028 415 1028 q 610 990 565 1028 q 656 892 656 953 q 626 807 656 843 q 555 740 597 771 q 470 679 513 710 q 399 614 428 649 q 369 533 369 579 q 387 470 369 504 q 457 383 404 436 q 526 291 504 336 q 549 193 549 246 q 527 101 549 149 q 462 20 506 53 q 351 -12 418 -12 z "},"t":{"ha":378,"x_min":42,"x_max":407,"o":"m 142 -12 q 68 25 94 -12 q 60 146 42 63 l 175 649 q 158 669 179 669 l 106 669 q 86 688 86 669 q 93 703 86 697 q 110 708 100 708 l 160 708 q 197 738 192 708 l 231 886 q 250 901 235 901 l 307 901 q 322 883 326 901 l 288 729 q 304 708 283 708 l 383 708 q 407 690 407 708 q 378 669 407 669 l 303 669 q 265 640 272 669 l 149 132 q 151 84 142 101 q 182 67 160 67 q 241 103 214 67 q 299 240 268 139 q 317 258 304 258 q 329 250 326 258 q 325 219 332 242 q 267 75 299 125 q 204 6 236 25 q 142 -12 172 -12 z "},"ť":{"ha":378,"x_min":42,"x_max":561,"o":"m 142 -12 q 68 25 94 -12 q 60 146 42 63 l 175 649 q 158 669 179 669 l 106 669 q 86 688 86 669 q 93 703 86 697 q 110 708 100 708 l 160 708 q 197 738 192 708 l 231 886 q 250 901 235 901 l 307 901 q 322 883 326 901 l 288 729 q 304 708 283 708 l 383 708 q 407 690 407 708 q 378 669 407 669 l 303 669 q 265 640 272 669 l 149 132 q 151 84 142 101 q 182 67 160 67 q 241 103 214 67 q 299 240 268 139 q 317 258 304 258 q 329 250 326 258 q 325 219 332 242 q 267 75 299 125 q 204 6 236 25 q 142 -12 172 -12 m 440 760 q 414 746 432 743 q 401 771 396 749 l 458 993 q 485 1043 467 1028 q 526 1056 504 1058 q 556 1030 551 1053 q 546 975 561 1007 l 440 760 z "},"ț":{"ha":378,"x_min":-37,"x_max":407,"o":"m 142 -12 q 68 25 94 -12 q 60 146 42 63 l 175 649 q 158 669 179 669 l 106 669 q 86 688 86 669 q 93 703 86 697 q 110 708 100 708 l 160 708 q 197 738 192 708 l 231 886 q 250 901 235 901 l 307 901 q 322 883 326 901 l 288 729 q 304 708 283 708 l 383 708 q 407 690 407 708 q 378 669 407 669 l 303 669 q 265 640 272 669 l 149 132 q 151 84 142 101 q 182 67 160 67 q 241 103 214 67 q 299 240 268 139 q 317 258 304 258 q 329 250 326 258 q 325 219 332 242 q 267 75 299 125 q 204 6 236 25 q 142 -12 172 -12 m 100 -93 q 149 -115 131 -93 q 168 -174 168 -137 q 122 -302 168 -240 q -3 -408 75 -364 q -19 -414 -11 -412 q -32 -410 -28 -415 q -33 -396 -37 -403 q -21 -383 -28 -389 q 53 -320 31 -349 q 76 -261 76 -292 q 65 -228 76 -239 q 43 -203 54 -217 q 32 -162 32 -190 q 53 -112 32 -132 q 100 -93 74 -93 z "},"u":{"ha":706,"x_min":24,"x_max":679,"o":"m 160 -12 q 90 34 108 -12 q 92 157 71 81 l 201 560 q 207 622 213 600 q 182 644 201 644 q 117 596 150 644 q 61 461 85 547 q 43 446 57 446 q 31 474 24 446 q 115 653 63 590 q 229 717 167 717 q 296 671 279 717 q 290 546 313 625 l 179 143 q 197 47 153 47 q 261 85 225 47 q 337 188 297 122 q 415 336 376 253 q 486 511 454 419 q 539 693 518 603 q 558 708 543 708 l 614 708 q 629 690 633 708 l 499 132 q 522 67 483 67 q 644 243 581 67 q 664 261 650 261 q 676 254 672 261 q 675 236 679 247 q 586 53 638 118 q 478 -12 535 -12 q 411 133 378 -12 l 447 288 q 444 299 450 297 q 433 292 438 300 q 285 56 353 125 q 160 -12 217 -12 z "},"ú":{"ha":706,"x_min":24,"x_max":679,"o":"m 160 -12 q 90 34 108 -12 q 92 157 71 81 l 201 560 q 207 622 213 600 q 182 644 201 644 q 117 596 150 644 q 61 461 85 547 q 43 446 57 446 q 31 474 24 446 q 115 653 63 590 q 229 717 167 717 q 296 671 279 717 q 290 546 313 625 l 179 143 q 197 47 153 47 q 261 85 225 47 q 337 188 297 122 q 415 336 376 253 q 486 511 454 419 q 539 693 518 603 q 558 708 543 708 l 614 708 q 629 690 633 708 l 499 132 q 522 67 483 67 q 644 243 581 67 q 664 261 650 261 q 676 254 672 261 q 675 236 679 247 q 586 53 638 118 q 478 -12 535 -12 q 411 133 378 -12 l 447 288 q 444 299 450 297 q 433 292 438 300 q 285 56 353 125 q 160 -12 217 -12 m 328 813 q 296 821 303 803 q 314 851 290 835 l 532 1000 q 599 1028 571 1028 q 640 1014 626 1028 q 653 981 653 1000 q 638 944 653 960 q 582 913 624 929 l 328 813 z "},"ŭ":{"ha":706,"x_min":24,"x_max":679,"o":"m 160 -12 q 90 34 108 -12 q 92 157 71 81 l 201 560 q 207 622 213 600 q 182 644 201 644 q 117 596 150 644 q 61 461 85 547 q 43 446 57 446 q 31 474 24 446 q 115 653 63 590 q 229 717 167 717 q 296 671 279 717 q 290 546 313 625 l 179 143 q 197 47 153 47 q 261 85 225 47 q 337 188 297 122 q 415 336 376 253 q 486 511 454 419 q 539 693 518 603 q 558 708 543 708 l 614 708 q 629 690 633 708 l 499 132 q 522 67 483 67 q 644 243 581 67 q 664 261 650 261 q 676 254 672 261 q 675 236 679 247 q 586 53 638 118 q 478 -12 535 -12 q 411 133 378 -12 l 447 288 q 444 299 450 297 q 433 292 438 300 q 285 56 353 125 q 160 -12 217 -12 m 438 804 q 318 853 367 804 q 274 989 269 903 q 294 1014 276 1014 q 310 997 310 1014 q 349 910 311 938 q 449 883 388 883 q 558 910 510 883 q 638 997 607 938 q 658 1014 646 1014 q 671 1007 667 1014 q 671 989 675 1000 q 578 853 640 903 q 438 804 517 804 z "},"û":{"ha":706,"x_min":24,"x_max":679,"o":"m 160 -12 q 90 34 108 -12 q 92 157 71 81 l 201 560 q 207 622 213 600 q 182 644 201 644 q 117 596 150 644 q 61 461 85 547 q 43 446 57 446 q 31 474 24 446 q 115 653 63 590 q 229 717 167 717 q 296 671 279 717 q 290 546 313 625 l 179 143 q 197 47 153 47 q 261 85 225 47 q 337 188 297 122 q 415 336 376 253 q 486 511 454 419 q 539 693 518 603 q 558 708 543 708 l 614 708 q 629 690 633 708 l 499 132 q 522 67 483 67 q 644 243 581 67 q 664 261 650 261 q 676 254 672 261 q 675 236 679 247 q 586 53 638 118 q 478 -12 535 -12 q 411 133 378 -12 l 447 288 q 444 299 450 297 q 433 292 438 300 q 285 56 353 125 q 160 -12 217 -12 m 254 814 q 221 814 232 800 q 228 843 210 828 l 428 1013 q 467 1028 447 1028 l 493 1028 q 524 1013 513 1028 l 646 843 q 647 821 654 831 q 618 822 638 808 l 469 938 l 254 814 z "},"ü":{"ha":706,"x_min":24,"x_max":679,"o":"m 160 -12 q 90 34 108 -12 q 92 157 71 81 l 201 560 q 207 622 213 600 q 182 644 201 644 q 117 596 150 644 q 61 461 85 547 q 43 446 57 446 q 31 474 24 446 q 115 653 63 590 q 229 717 167 717 q 296 671 279 717 q 290 546 313 625 l 179 143 q 197 47 153 47 q 261 85 225 47 q 337 188 297 122 q 415 336 376 253 q 486 511 454 419 q 539 693 518 603 q 558 708 543 708 l 614 708 q 629 690 633 708 l 499 132 q 522 67 483 67 q 644 243 581 67 q 664 261 650 261 q 676 254 672 261 q 675 236 679 247 q 586 53 638 118 q 478 -12 535 -12 q 411 133 378 -12 l 447 288 q 444 299 450 297 q 433 292 438 300 q 285 56 353 125 q 160 -12 217 -12 m 315 840 q 271 859 288 840 q 254 904 254 878 q 276 960 254 939 q 328 981 299 981 q 372 963 356 981 q 389 917 389 944 q 367 861 389 882 q 315 840 344 840 m 581 840 q 536 859 553 840 q 519 904 519 878 q 542 960 519 939 q 593 981 564 981 q 638 963 621 981 q 654 917 654 944 q 632 861 654 882 q 581 840 610 840 z "},"ù":{"ha":706,"x_min":24,"x_max":679,"o":"m 160 -12 q 90 34 108 -12 q 92 157 71 81 l 201 560 q 207 622 213 600 q 182 644 201 644 q 117 596 150 644 q 61 461 85 547 q 43 446 57 446 q 31 474 24 446 q 115 653 63 590 q 229 717 167 717 q 296 671 279 717 q 290 546 313 625 l 179 143 q 197 47 153 47 q 261 85 225 47 q 337 188 297 122 q 415 336 376 253 q 486 511 454 419 q 539 693 518 603 q 558 708 543 708 l 614 708 q 629 690 633 708 l 499 132 q 522 67 483 67 q 644 243 581 67 q 664 261 650 261 q 676 254 672 261 q 675 236 679 247 q 586 53 638 118 q 478 -12 535 -12 q 411 133 378 -12 l 447 288 q 444 299 450 297 q 433 292 438 300 q 285 56 353 125 q 160 -12 217 -12 m 532 811 l 336 918 q 281 982 281 947 q 296 1015 281 1001 q 333 1028 311 1028 q 366 1022 353 1028 q 397 999 379 1015 l 560 844 q 571 824 571 833 q 560 806 571 811 q 532 811 549 801 z "},"ű":{"ha":706,"x_min":24,"x_max":679,"o":"m 160 -12 q 90 34 108 -12 q 92 157 71 81 l 201 560 q 207 622 213 600 q 182 644 201 644 q 117 596 150 644 q 61 461 85 547 q 43 446 57 446 q 31 474 24 446 q 115 653 63 590 q 229 717 167 717 q 296 671 279 717 q 290 546 313 625 l 179 143 q 197 47 153 47 q 261 85 225 47 q 337 188 297 122 q 415 336 376 253 q 486 511 454 419 q 539 693 518 603 q 558 708 543 708 l 614 708 q 629 690 633 708 l 499 132 q 522 67 483 67 q 644 243 581 67 q 664 261 650 261 q 676 254 672 261 q 675 236 679 247 q 586 53 638 118 q 478 -12 535 -12 q 411 133 378 -12 l 447 288 q 444 299 450 297 q 433 292 438 300 q 285 56 353 125 q 160 -12 217 -12 m 271 818 q 239 817 253 803 q 244 849 229 826 l 346 986 q 378 1019 364 1010 q 410 1028 392 1028 q 445 1014 433 1028 q 457 983 457 1000 q 407 918 457 954 l 271 818 m 482 818 q 450 817 464 803 q 456 849 440 826 l 557 986 q 589 1019 575 1010 q 621 1028 603 1028 q 656 1014 644 1028 q 668 983 668 1000 q 618 918 668 954 l 482 818 z "},"ū":{"ha":706,"x_min":24,"x_max":679,"o":"m 160 -12 q 90 34 108 -12 q 92 157 71 81 l 201 560 q 207 622 213 600 q 182 644 201 644 q 117 596 150 644 q 61 461 85 547 q 43 446 57 446 q 31 474 24 446 q 115 653 63 590 q 229 717 167 717 q 296 671 279 717 q 290 546 313 625 l 179 143 q 197 47 153 47 q 261 85 225 47 q 337 188 297 122 q 415 336 376 253 q 486 511 454 419 q 539 693 518 603 q 558 708 543 708 l 614 708 q 629 690 633 708 l 499 132 q 522 67 483 67 q 644 243 581 67 q 664 261 650 261 q 676 254 672 261 q 675 236 679 247 q 586 53 638 118 q 478 -12 535 -12 q 411 133 378 -12 l 447 288 q 444 299 450 297 q 433 292 438 300 q 285 56 353 125 q 160 -12 217 -12 m 264 883 q 250 900 247 883 l 254 921 q 275 938 257 938 l 646 938 q 658 921 661 938 l 654 900 q 633 883 651 883 l 264 883 z "},"ų":{"ha":706,"x_min":24,"x_max":679,"o":"m 160 -12 q 90 34 108 -12 q 92 157 71 81 l 201 560 q 207 622 213 600 q 182 644 201 644 q 117 596 150 644 q 61 461 85 547 q 43 446 57 446 q 31 474 24 446 q 115 653 63 590 q 229 717 167 717 q 296 671 279 717 q 290 546 313 625 l 179 143 q 197 47 153 47 q 261 85 225 47 q 337 188 297 122 q 415 336 376 253 q 486 511 454 419 q 539 693 518 603 q 558 708 543 708 l 614 708 q 629 690 633 708 l 499 132 q 522 67 483 67 q 644 243 581 67 q 664 261 650 261 q 676 254 672 261 q 675 236 679 247 q 586 53 638 118 q 478 -12 535 -12 q 411 133 378 -12 l 447 288 q 444 299 450 297 q 433 292 438 300 q 285 56 353 125 q 160 -12 217 -12 m 378 -300 q 317 -281 344 -300 q 289 -219 289 -262 q 310 -149 289 -185 q 366 -82 332 -114 q 440 -25 400 -50 q 514 14 479 0 l 525 0 q 444 -55 483 -21 q 381 -129 406 -89 q 356 -210 356 -169 q 369 -247 356 -236 q 401 -258 383 -258 q 463 -229 432 -258 q 478 -219 469 -222 q 492 -225 486 -217 q 491 -239 494 -232 q 481 -253 488 -246 q 434 -287 458 -275 q 378 -300 410 -300 z "},"ů":{"ha":706,"x_min":24,"x_max":679,"o":"m 160 -12 q 90 34 108 -12 q 92 157 71 81 l 201 560 q 207 622 213 600 q 182 644 201 644 q 117 596 150 644 q 61 461 85 547 q 43 446 57 446 q 31 474 24 446 q 115 653 63 590 q 229 717 167 717 q 296 671 279 717 q 290 546 313 625 l 179 143 q 197 47 153 47 q 261 85 225 47 q 337 188 297 122 q 415 336 376 253 q 486 511 454 419 q 539 693 518 603 q 558 708 543 708 l 614 708 q 629 690 633 708 l 499 132 q 522 67 483 67 q 644 243 581 67 q 664 261 650 261 q 676 254 672 261 q 675 236 679 247 q 586 53 638 118 q 478 -12 535 -12 q 411 133 378 -12 l 447 288 q 444 299 450 297 q 433 292 438 300 q 285 56 353 125 q 160 -12 217 -12 m 447 779 q 344 819 382 779 q 307 915 307 860 q 330 998 307 961 q 390 1056 353 1035 q 469 1078 426 1078 q 572 1038 535 1078 q 608 942 608 997 q 585 860 608 897 q 526 801 563 822 q 447 779 490 779 m 450 817 q 531 853 497 817 q 565 942 565 890 q 539 1012 565 983 q 467 1040 513 1040 q 384 1003 418 1040 q 350 915 350 967 q 376 845 350 874 q 450 817 403 817 z "},"v":{"ha":572,"x_min":26,"x_max":553,"o":"m 210 -12 q 108 39 142 -12 q 96 171 75 90 l 203 572 q 181 638 221 638 q 123 596 151 638 q 61 460 94 554 q 42 443 56 443 q 31 449 35 443 q 29 465 26 456 q 231 717 110 717 q 294 678 278 717 q 293 571 311 639 l 183 157 q 181 67 168 99 q 229 36 194 36 q 315 75 269 36 q 400 176 360 114 q 465 314 440 239 q 490 461 490 389 q 478 553 490 519 q 452 611 465 588 q 439 663 439 635 q 486 717 439 717 q 553 569 553 717 q 522 360 553 464 q 442 173 492 257 q 331 38 392 89 q 210 -12 271 -12 z "},"w":{"ha":846,"x_min":26,"x_max":822,"o":"m 190 -12 q 103 32 133 -12 q 92 153 72 76 l 203 572 q 181 638 221 638 q 123 596 151 638 q 61 460 94 554 q 42 443 56 443 q 31 449 35 443 q 29 465 26 456 q 231 717 110 717 q 294 678 278 717 q 293 571 311 639 l 176 128 q 175 58 164 81 q 208 36 186 36 q 360 203 276 36 q 508 693 444 371 q 528 708 513 708 l 582 708 q 597 690 601 708 l 486 128 q 488 59 476 82 q 526 36 500 36 q 608 75 567 36 q 684 176 650 114 q 739 314 718 239 q 760 461 760 389 q 751 553 760 519 q 732 611 742 588 q 722 663 722 635 q 769 717 722 717 q 813 680 803 717 q 822 569 822 643 q 797 360 822 464 q 727 173 771 257 q 627 38 683 89 q 508 -12 571 -12 q 417 34 449 -12 q 403 169 385 81 q 399 181 406 179 q 389 174 393 182 q 301 42 350 96 q 190 -12 253 -12 z "},"ẃ":{"ha":846,"x_min":26,"x_max":822,"o":"m 190 -12 q 103 32 133 -12 q 92 153 72 76 l 203 572 q 181 638 221 638 q 123 596 151 638 q 61 460 94 554 q 42 443 56 443 q 31 449 35 443 q 29 465 26 456 q 231 717 110 717 q 294 678 278 717 q 293 571 311 639 l 176 128 q 175 58 164 81 q 208 36 186 36 q 360 203 276 36 q 508 693 444 371 q 528 708 513 708 l 582 708 q 597 690 601 708 l 486 128 q 488 59 476 82 q 526 36 500 36 q 608 75 567 36 q 684 176 650 114 q 739 314 718 239 q 760 461 760 389 q 751 553 760 519 q 732 611 742 588 q 722 663 722 635 q 769 717 722 717 q 813 680 803 717 q 822 569 822 643 q 797 360 822 464 q 727 173 771 257 q 627 38 683 89 q 508 -12 571 -12 q 417 34 449 -12 q 403 169 385 81 q 399 181 406 179 q 389 174 393 182 q 301 42 350 96 q 190 -12 253 -12 m 471 813 q 439 821 446 803 q 457 851 433 835 l 675 1000 q 742 1028 714 1028 q 783 1014 769 1028 q 796 981 796 1000 q 781 944 796 960 q 725 913 767 929 l 471 813 z "},"ŵ":{"ha":846,"x_min":26,"x_max":822,"o":"m 190 -12 q 103 32 133 -12 q 92 153 72 76 l 203 572 q 181 638 221 638 q 123 596 151 638 q 61 460 94 554 q 42 443 56 443 q 31 449 35 443 q 29 465 26 456 q 231 717 110 717 q 294 678 278 717 q 293 571 311 639 l 176 128 q 175 58 164 81 q 208 36 186 36 q 360 203 276 36 q 508 693 444 371 q 528 708 513 708 l 582 708 q 597 690 601 708 l 486 128 q 488 59 476 82 q 526 36 500 36 q 608 75 567 36 q 684 176 650 114 q 739 314 718 239 q 760 461 760 389 q 751 553 760 519 q 732 611 742 588 q 722 663 722 635 q 769 717 722 717 q 813 680 803 717 q 822 569 822 643 q 797 360 822 464 q 727 173 771 257 q 627 38 683 89 q 508 -12 571 -12 q 417 34 449 -12 q 403 169 385 81 q 399 181 406 179 q 389 174 393 182 q 301 42 350 96 q 190 -12 253 -12 m 397 814 q 364 814 375 800 q 371 843 353 828 l 571 1013 q 610 1028 590 1028 l 636 1028 q 667 1013 656 1028 l 789 843 q 790 821 797 831 q 761 822 781 808 l 613 938 l 397 814 z "},"ẅ":{"ha":846,"x_min":26,"x_max":822,"o":"m 190 -12 q 103 32 133 -12 q 92 153 72 76 l 203 572 q 181 638 221 638 q 123 596 151 638 q 61 460 94 554 q 42 443 56 443 q 31 449 35 443 q 29 465 26 456 q 231 717 110 717 q 294 678 278 717 q 293 571 311 639 l 176 128 q 175 58 164 81 q 208 36 186 36 q 360 203 276 36 q 508 693 444 371 q 528 708 513 708 l 582 708 q 597 690 601 708 l 486 128 q 488 59 476 82 q 526 36 500 36 q 608 75 567 36 q 684 176 650 114 q 739 314 718 239 q 760 461 760 389 q 751 553 760 519 q 732 611 742 588 q 722 663 722 635 q 769 717 722 717 q 813 680 803 717 q 822 569 822 643 q 797 360 822 464 q 727 173 771 257 q 627 38 683 89 q 508 -12 571 -12 q 417 34 449 -12 q 403 169 385 81 q 399 181 406 179 q 389 174 393 182 q 301 42 350 96 q 190 -12 253 -12 m 458 840 q 414 859 431 840 q 397 904 397 878 q 419 960 397 939 q 471 981 442 981 q 515 963 499 981 q 532 917 532 944 q 510 861 532 882 q 458 840 488 840 m 724 840 q 679 859 696 840 q 663 904 663 878 q 685 960 663 939 q 736 981 707 981 q 781 963 764 981 q 797 917 797 944 q 775 861 797 882 q 724 840 753 840 z "},"ẁ":{"ha":846,"x_min":26,"x_max":822,"o":"m 190 -12 q 103 32 133 -12 q 92 153 72 76 l 203 572 q 181 638 221 638 q 123 596 151 638 q 61 460 94 554 q 42 443 56 443 q 31 449 35 443 q 29 465 26 456 q 231 717 110 717 q 294 678 278 717 q 293 571 311 639 l 176 128 q 175 58 164 81 q 208 36 186 36 q 360 203 276 36 q 508 693 444 371 q 528 708 513 708 l 582 708 q 597 690 601 708 l 486 128 q 488 59 476 82 q 526 36 500 36 q 608 75 567 36 q 684 176 650 114 q 739 314 718 239 q 760 461 760 389 q 751 553 760 519 q 732 611 742 588 q 722 663 722 635 q 769 717 722 717 q 813 680 803 717 q 822 569 822 643 q 797 360 822 464 q 727 173 771 257 q 627 38 683 89 q 508 -12 571 -12 q 417 34 449 -12 q 403 169 385 81 q 399 181 406 179 q 389 174 393 182 q 301 42 350 96 q 190 -12 253 -12 m 675 811 l 479 918 q 424 982 424 947 q 439 1015 424 1001 q 476 1028 454 1028 q 509 1022 496 1028 q 540 999 522 1015 l 703 844 q 714 824 714 833 q 703 806 714 811 q 675 811 692 801 z "},"x":{"ha":625,"x_min":-33,"x_max":643,"o":"m 46 -14 q -13 8 7 -14 q -33 64 -33 29 q -17 117 -33 96 q 25 138 -1 138 q 58 126 47 138 q 74 101 68 115 q 86 75 79 86 q 108 64 93 64 q 183 139 143 64 q 258 331 222 214 q 267 365 265 350 q 267 400 268 381 l 256 572 q 243 623 254 608 q 215 638 232 638 q 157 601 185 638 q 111 461 129 564 q 93 443 107 443 q 78 468 74 443 q 124 618 94 564 q 188 694 154 672 q 251 717 222 717 q 319 687 294 717 q 347 585 343 657 l 351 519 q 359 510 353 511 q 369 518 365 510 q 466 672 419 628 q 564 717 513 717 q 623 695 603 717 q 643 639 643 674 q 628 586 643 607 q 585 565 613 565 q 552 576 563 565 q 536 602 542 588 q 524 628 531 617 q 504 639 518 639 q 457 608 483 639 q 407 525 431 576 q 368 411 383 474 q 363 376 364 392 q 364 342 363 361 l 376 139 q 392 78 379 96 q 425 60 404 60 q 479 99 451 60 q 525 242 507 139 q 544 260 529 260 q 558 235 561 260 q 519 86 546 140 q 460 10 492 32 q 399 -12 428 -12 q 319 20 347 -12 q 286 132 292 53 l 279 236 q 272 246 278 246 q 263 238 267 246 l 238 176 q 46 -14 158 -14 z "},"y":{"ha":581,"x_min":-149,"x_max":567,"o":"m -37 -299 q -119 -272 -90 -299 q -149 -206 -149 -244 q -133 -162 -149 -176 q -100 -147 -118 -147 q -62 -161 -74 -147 q -46 -194 -51 -175 q -28 -226 -40 -212 q 10 -240 -17 -240 q 111 -199 61 -240 q 193 -87 161 -158 q 221 74 225 -15 l 200 572 q 188 623 199 608 q 160 638 176 638 q 101 601 129 638 q 56 461 74 564 q 38 443 51 443 q 22 468 18 443 q 69 618 39 564 q 133 694 99 672 q 196 717 167 717 q 264 687 239 717 q 292 585 289 657 l 311 51 q 317 40 311 42 q 329 46 324 38 q 417 187 378 114 q 481 331 457 260 q 504 461 504 401 q 492 553 504 519 q 466 611 479 588 q 453 663 453 635 q 500 717 453 717 q 567 569 567 717 q 539 394 567 489 q 463 201 511 299 q 353 14 415 103 q 224 -146 292 -75 q 90 -258 157 -217 q -37 -299 22 -299 z "},"ý":{"ha":581,"x_min":-149,"x_max":617,"o":"m -37 -299 q -119 -272 -90 -299 q -149 -206 -149 -244 q -133 -162 -149 -176 q -100 -147 -118 -147 q -62 -161 -74 -147 q -46 -194 -51 -175 q -28 -226 -40 -212 q 10 -240 -17 -240 q 111 -199 61 -240 q 193 -87 161 -158 q 221 74 225 -15 l 200 572 q 188 623 199 608 q 160 638 176 638 q 101 601 129 638 q 56 461 74 564 q 38 443 51 443 q 22 468 18 443 q 69 618 39 564 q 133 694 99 672 q 196 717 167 717 q 264 687 239 717 q 292 585 289 657 l 311 51 q 317 40 311 42 q 329 46 324 38 q 417 187 378 114 q 481 331 457 260 q 504 461 504 401 q 492 553 504 519 q 466 611 479 588 q 453 663 453 635 q 500 717 453 717 q 567 569 567 717 q 539 394 567 489 q 463 201 511 299 q 353 14 415 103 q 224 -146 292 -75 q 90 -258 157 -217 q -37 -299 22 -299 m 292 813 q 260 821 267 803 q 278 851 254 835 l 496 1000 q 563 1028 535 1028 q 603 1014 590 1028 q 617 981 617 1000 q 602 944 617 960 q 546 913 588 929 l 292 813 z "},"ŷ":{"ha":581,"x_min":-149,"x_max":618,"o":"m -37 -299 q -119 -272 -90 -299 q -149 -206 -149 -244 q -133 -162 -149 -176 q -100 -147 -118 -147 q -62 -161 -74 -147 q -46 -194 -51 -175 q -28 -226 -40 -212 q 10 -240 -17 -240 q 111 -199 61 -240 q 193 -87 161 -158 q 221 74 225 -15 l 200 572 q 188 623 199 608 q 160 638 176 638 q 101 601 129 638 q 56 461 74 564 q 38 443 51 443 q 22 468 18 443 q 69 618 39 564 q 133 694 99 672 q 196 717 167 717 q 264 687 239 717 q 292 585 289 657 l 311 51 q 317 40 311 42 q 329 46 324 38 q 417 187 378 114 q 481 331 457 260 q 504 461 504 401 q 492 553 504 519 q 466 611 479 588 q 453 663 453 635 q 500 717 453 717 q 567 569 567 717 q 539 394 567 489 q 463 201 511 299 q 353 14 415 103 q 224 -146 292 -75 q 90 -258 157 -217 q -37 -299 22 -299 m 218 814 q 185 814 196 800 q 192 843 174 828 l 392 1013 q 431 1028 411 1028 l 457 1028 q 488 1013 476 1028 l 610 843 q 611 821 618 831 q 582 822 601 808 l 433 938 l 218 814 z "},"ÿ":{"ha":581,"x_min":-149,"x_max":618,"o":"m -37 -299 q -119 -272 -90 -299 q -149 -206 -149 -244 q -133 -162 -149 -176 q -100 -147 -118 -147 q -62 -161 -74 -147 q -46 -194 -51 -175 q -28 -226 -40 -212 q 10 -240 -17 -240 q 111 -199 61 -240 q 193 -87 161 -158 q 221 74 225 -15 l 200 572 q 188 623 199 608 q 160 638 176 638 q 101 601 129 638 q 56 461 74 564 q 38 443 51 443 q 22 468 18 443 q 69 618 39 564 q 133 694 99 672 q 196 717 167 717 q 264 687 239 717 q 292 585 289 657 l 311 51 q 317 40 311 42 q 329 46 324 38 q 417 187 378 114 q 481 331 457 260 q 504 461 504 401 q 492 553 504 519 q 466 611 479 588 q 453 663 453 635 q 500 717 453 717 q 567 569 567 717 q 539 394 567 489 q 463 201 511 299 q 353 14 415 103 q 224 -146 292 -75 q 90 -258 157 -217 q -37 -299 22 -299 m 279 840 q 235 859 251 840 q 218 904 218 878 q 240 960 218 939 q 292 981 263 981 q 336 963 319 981 q 353 917 353 944 q 331 861 353 882 q 279 840 308 840 m 544 840 q 500 859 517 840 q 483 904 483 878 q 506 960 483 939 q 557 981 528 981 q 601 963 585 981 q 618 917 618 944 q 596 861 618 882 q 544 840 574 840 z "},"ỳ":{"ha":581,"x_min":-149,"x_max":567,"o":"m -37 -299 q -119 -272 -90 -299 q -149 -206 -149 -244 q -133 -162 -149 -176 q -100 -147 -118 -147 q -62 -161 -74 -147 q -46 -194 -51 -175 q -28 -226 -40 -212 q 10 -240 -17 -240 q 111 -199 61 -240 q 193 -87 161 -158 q 221 74 225 -15 l 200 572 q 188 623 199 608 q 160 638 176 638 q 101 601 129 638 q 56 461 74 564 q 38 443 51 443 q 22 468 18 443 q 69 618 39 564 q 133 694 99 672 q 196 717 167 717 q 264 687 239 717 q 292 585 289 657 l 311 51 q 317 40 311 42 q 329 46 324 38 q 417 187 378 114 q 481 331 457 260 q 504 461 504 401 q 492 553 504 519 q 466 611 479 588 q 453 663 453 635 q 500 717 453 717 q 567 569 567 717 q 539 394 567 489 q 463 201 511 299 q 353 14 415 103 q 224 -146 292 -75 q 90 -258 157 -217 q -37 -299 22 -299 m 496 811 l 300 918 q 244 982 244 947 q 260 1015 244 1001 q 297 1028 275 1028 q 330 1022 317 1028 q 361 999 343 1015 l 524 844 q 535 824 535 833 q 524 806 535 811 q 496 811 513 801 z "},"z":{"ha":535,"x_min":-18,"x_max":558,"o":"m 0 -12 q -18 8 -18 -12 q 5 60 -18 35 q 64 107 28 86 l 404 557 q 408 572 411 568 q 394 571 404 575 q 356 564 378 564 q 287 578 319 564 q 226 607 254 593 q 172 621 199 621 q 113 583 132 621 q 93 461 93 544 q 76 443 93 443 q 60 468 60 443 q 83 618 60 564 q 140 694 106 672 q 211 717 175 717 q 278 701 251 717 q 325 666 304 686 q 369 631 346 646 q 431 615 393 615 q 453 632 447 615 q 492 690 468 664 q 536 717 515 717 q 558 694 558 717 q 544 660 558 675 q 503 622 529 644 q 446 557 478 600 l 131 138 q 129 126 125 131 q 143 125 133 121 q 181 132 160 132 q 244 120 211 132 q 310 96 278 108 q 368 83 343 83 q 428 120 408 83 q 447 240 447 157 q 464 258 447 258 q 481 233 481 258 q 458 86 481 140 q 400 10 435 32 q 329 -12 365 -12 q 264 2 292 -12 q 213 35 236 17 q 169 67 190 53 q 124 81 149 81 q 79 58 92 81 q 42 8 65 29 q 0 -12 19 -12 z "},"ź":{"ha":535,"x_min":-18,"x_max":603,"o":"m 0 -12 q -18 8 -18 -12 q 5 60 -18 35 q 64 107 28 86 l 404 557 q 408 572 411 568 q 394 571 404 575 q 356 564 378 564 q 287 578 319 564 q 226 607 254 593 q 172 621 199 621 q 113 583 132 621 q 93 461 93 544 q 76 443 93 443 q 60 468 60 443 q 83 618 60 564 q 140 694 106 672 q 211 717 175 717 q 278 701 251 717 q 325 666 304 686 q 369 631 346 646 q 431 615 393 615 q 453 632 447 615 q 492 690 468 664 q 536 717 515 717 q 558 694 558 717 q 544 660 558 675 q 503 622 529 644 q 446 557 478 600 l 131 138 q 129 126 125 131 q 143 125 133 121 q 181 132 160 132 q 244 120 211 132 q 310 96 278 108 q 368 83 343 83 q 428 120 408 83 q 447 240 447 157 q 464 258 447 258 q 481 233 481 258 q 458 86 481 140 q 400 10 435 32 q 329 -12 365 -12 q 264 2 292 -12 q 213 35 236 17 q 169 67 190 53 q 124 81 149 81 q 79 58 92 81 q 42 8 65 29 q 0 -12 19 -12 m 278 813 q 246 821 253 803 q 264 851 240 835 l 482 1000 q 549 1028 521 1028 q 590 1014 576 1028 q 603 981 603 1000 q 588 944 603 960 q 532 913 574 929 l 278 813 z "}}}
